<svg xmlns="http://www.w3.org/2000/svg" xmlns:xlink="http://www.w3.org/1999/xlink" width="500" zoomAndPan="magnify" viewBox="0 0 375 374.999991" height="500" preserveAspectRatio="xMidYMid meet" version="1.0"><defs><g/><clipPath id="50f9510b48"><path d="M 241.402344 170 L 320.152344 170 L 320.152344 226.992188 L 241.402344 226.992188 Z M 241.402344 170 " clip-rule="nonzero"/></clipPath><clipPath id="7aa652bca4"><path d="M 129.9375 176.523438 L 177.9375 176.523438 L 177.9375 227.523438 L 129.9375 227.523438 Z M 129.9375 176.523438 " clip-rule="nonzero"/></clipPath><clipPath id="2070ea673b"><path d="M 59.019531 176 L 113.640625 176 L 113.640625 226.773438 L 59.019531 226.773438 Z M 59.019531 176 " clip-rule="nonzero"/></clipPath></defs><rect x="-37.5" width="450" fill="#ffffff" y="-37.499999" height="449.999989" fill-opacity="1"/><rect x="-37.5" width="450" fill="#ffffff" y="-37.499999" height="449.999989" fill-opacity="1"/><g fill="#444443" fill-opacity="1"><g transform="translate(93.676786, 226.124985)"><g><path d="M 33.265625 -68.890625 L 42.3125 -68.890625 C 42.84375 -68.890625 43.300781 -68.691406 43.6875 -68.296875 C 44.082031 -67.898438 44.28125 -67.441406 44.28125 -66.921875 L 44.28125 -14.171875 C 44.28125 -9.578125 43.082031 -6.066406 40.6875 -3.640625 C 38.289062 -1.210938 34.765625 0 30.109375 0 L 19.09375 0 C 14.5 0 10.988281 -1.210938 8.5625 -3.640625 C 6.132812 -6.066406 4.921875 -9.578125 4.921875 -14.171875 L 4.921875 -66.921875 C 4.921875 -67.441406 5.113281 -67.898438 5.5 -68.296875 C 5.894531 -68.691406 6.359375 -68.890625 6.890625 -68.890625 L 16.328125 -68.890625 C 16.859375 -68.890625 17.316406 -68.691406 17.703125 -68.296875 C 18.097656 -67.898438 18.296875 -67.441406 18.296875 -66.921875 L 18.296875 -16.921875 C 18.296875 -14.296875 19.609375 -12.984375 22.234375 -12.984375 L 27.359375 -12.984375 C 29.984375 -12.984375 31.296875 -14.296875 31.296875 -16.921875 L 31.296875 -66.921875 C 31.296875 -67.441406 31.488281 -67.898438 31.875 -68.296875 C 32.269531 -68.691406 32.734375 -68.890625 33.265625 -68.890625 Z M 33.265625 -68.890625 "/></g></g></g><g fill="#444443" fill-opacity="1"><g transform="translate(151.236073, 226.124985)"><g><path d="M 46.046875 -68.890625 L 59.046875 -68.890625 C 60.359375 -68.890625 61.015625 -68.234375 61.015625 -66.921875 L 61.015625 -1.96875 C 61.015625 -0.65625 60.359375 0 59.046875 0 L 49.890625 0 C 48.578125 0 47.921875 -0.65625 47.921875 -1.96875 L 47.921875 -40.640625 L 47.234375 -40.640625 L 37.984375 -1.671875 C 37.660156 -0.554688 36.9375 0 35.8125 0 L 30.015625 0 C 28.898438 0 28.175781 -0.554688 27.84375 -1.671875 L 18.59375 -40.640625 L 17.90625 -40.640625 L 17.90625 -1.96875 C 17.90625 -0.65625 17.25 0 15.9375 0 L 6.890625 0 C 5.578125 0 4.921875 -0.65625 4.921875 -1.96875 L 4.921875 -66.921875 C 4.921875 -68.234375 5.578125 -68.890625 6.890625 -68.890625 L 19.875 -68.890625 C 20.988281 -68.890625 21.710938 -68.332031 22.046875 -67.21875 L 32.96875 -23.328125 L 43.890625 -67.21875 C 44.210938 -68.332031 44.929688 -68.890625 46.046875 -68.890625 Z M 46.046875 -68.890625 "/></g></g></g><g fill="#444443" fill-opacity="1"><g transform="translate(225.521756, 226.124985)"><g><path d="M 51.375 0 L 41.828125 0 C 40.972656 0 40.445312 -0.457031 40.25 -1.375 L 37.09375 -13.78125 L 18.59375 -13.78125 L 15.546875 -1.375 C 15.347656 -0.457031 14.820312 0 13.96875 0 L 4.328125 0 C 3.148438 0 2.722656 -0.554688 3.046875 -1.671875 L 19.390625 -67.5 C 19.585938 -68.425781 20.144531 -68.890625 21.0625 -68.890625 L 34.734375 -68.890625 C 35.648438 -68.890625 36.207031 -68.425781 36.40625 -67.5 L 52.75 -1.671875 C 53.070312 -0.554688 52.613281 0 51.375 0 Z M 34.046875 -25.1875 L 27.84375 -51.953125 L 21.65625 -25.1875 Z M 34.046875 -25.1875 "/></g></g></g><g clip-path="url(#50f9510b48)"><path fill="#ffffff" d="M 319.75 207.449219 C 320.328125 209.171875 320.214844 211.140625 319.367188 212.75 C 319.335938 212.183594 319.300781 211.617188 319.277344 211.035156 C 319.265625 210.792969 319.242188 210.539062 319.160156 210.308594 C 318.988281 209.84375 318.546875 209.542969 318.140625 209.253906 C 314.019531 206.246094 313.386719 200.816406 313.546875 196.058594 C 313.652344 193.003906 313.222656 190.027344 312.101562 187.160156 C 312.019531 186.949219 311.890625 186.753906 311.730469 186.464844 C 311.601562 186.695312 311.53125 186.789062 311.5 186.890625 C 310.78125 189.578125 310.257812 192.308594 310.097656 195.085938 C 309.980469 197.042969 310.074219 199 310.074219 200.96875 C 310.074219 202.714844 310.582031 204.3125 311.488281 205.78125 C 311.832031 206.335938 311.867188 206.882812 311.683594 207.496094 C 311.519531 208.003906 311.40625 208.535156 311.359375 209.070312 C 311.300781 209.914062 311.300781 210.757812 311.300781 211.605469 C 311.289062 213.457031 311.253906 215.308594 311.300781 217.148438 C 311.335938 218.28125 311.589844 219.382812 312.238281 220.378906 C 312.527344 220.816406 312.320312 221.046875 311.8125 220.933594 C 311.40625 220.828125 311.242188 220.992188 311.253906 221.347656 C 311.253906 221.671875 311.265625 222.007812 311.382812 222.308594 C 311.753906 223.304688 311.441406 224.046875 310.375 224.164062 C 309.390625 224.265625 308.382812 224.183594 307.390625 224.105469 C 306.914062 224.070312 306.8125 223.746094 307.03125 223.292969 C 307.167969 223.015625 307.378906 222.773438 307.503906 222.496094 C 307.886719 221.660156 308.363281 220.851562 308.582031 219.972656 C 309.171875 217.609375 309.078125 215.191406 309.019531 212.785156 C 309.007812 212.496094 308.847656 212.207031 308.730469 211.917969 C 308.453125 211.246094 308.027344 210.597656 307.886719 209.902344 C 307.65625 208.757812 307.332031 207.667969 306.820312 206.617188 C 306.625 206.199219 306.542969 205.734375 306.371094 205.308594 C 306.265625 205.03125 306.117188 204.773438 305.964844 204.472656 C 305.292969 204.878906 305.445312 205.398438 305.550781 205.898438 C 305.605469 206.234375 305.78125 206.570312 305.757812 206.90625 C 305.652344 208.570312 305.433594 210.238281 305.375 211.90625 C 305.304688 213.6875 305.339844 215.480469 305.363281 217.273438 C 305.363281 217.609375 305.46875 217.945312 305.605469 218.257812 C 305.851562 218.816406 305.558594 219.300781 304.96875 219.335938 C 304.808594 219.347656 304.566406 219.441406 304.507812 219.554688 C 304.378906 219.867188 304.277344 220.226562 304.277344 220.5625 C 304.277344 221.40625 303.964844 222.019531 303.152344 222.113281 C 302.191406 222.21875 301.207031 222.148438 300.234375 222.089844 C 299.84375 222.066406 299.703125 221.789062 300.003906 221.441406 C 300.234375 221.1875 300.480469 220.933594 300.722656 220.691406 C 301.625 219.777344 302.457031 218.839844 302.480469 217.449219 C 302.480469 217.332031 302.527344 217.21875 302.539062 217.101562 C 302.714844 215.679688 302.933594 214.242188 302.804688 212.796875 C 302.703125 211.570312 302.296875 210.722656 302.425781 209.460938 C 302.515625 208.59375 302.574219 207.726562 302.632812 206.859375 C 302.65625 206.5 302.757812 206.152344 302.78125 205.78125 C 302.792969 205.5625 302.574219 204.730469 302.65625 204.601562 C 302.527344 204.820312 302.402344 205.042969 302.273438 205.261719 C 301.902344 205.898438 301.507812 206.558594 300.917969 206.996094 C 300.664062 207.195312 300.339844 207.332031 300.246094 207.667969 C 300.203125 207.84375 300.214844 208.039062 300.214844 208.222656 C 300.214844 208.859375 300.085938 209.496094 299.832031 210.074219 C 299.679688 210.167969 299.472656 210.074219 299.378906 209.925781 C 299.289062 209.773438 299.289062 209.589844 299.296875 209.40625 C 299.308594 208.824219 299.320312 208.257812 299.332031 207.679688 C 299.089844 207.75 298.941406 207.992188 298.894531 208.234375 C 298.847656 208.480469 298.894531 208.734375 298.917969 208.976562 C 298.953125 209.347656 298.953125 209.730469 298.894531 210.097656 C 298.582031 210.121094 298.1875 210.085938 298.058594 209.808594 C 298.015625 209.71875 298.015625 209.601562 298.015625 209.496094 L 298.015625 208.457031 C 298.015625 208.222656 298.015625 207.980469 297.875 207.785156 C 297.746094 207.585938 297.433594 207.507812 297.273438 207.679688 C 297.179688 207.785156 297.167969 207.945312 297.167969 208.085938 C 297.167969 208.628906 297.15625 209.160156 297.15625 209.707031 C 296.890625 209.761719 296.542969 209.785156 296.441406 209.542969 C 296.40625 209.472656 296.40625 209.394531 296.40625 209.3125 L 296.40625 207.597656 C 296.289062 207.574219 296.171875 207.597656 296.070312 207.65625 C 296.058594 208.222656 296.046875 208.78125 296.035156 209.347656 C 295.859375 209.542969 295.503906 209.394531 295.410156 209.148438 C 295.304688 208.90625 295.363281 208.628906 295.375 208.363281 C 295.386719 206.960938 293.824219 206.835938 293.128906 205.792969 C 292.746094 205.214844 292.550781 204.730469 291.71875 205.121094 C 288.441406 206.671875 284.75 205.644531 281.382812 205.097656 C 279.96875 204.878906 278.546875 204.707031 277.296875 203.8125 C 276.425781 203.1875 275.222656 203.734375 274.898438 204.761719 C 274.355469 206.488281 273.882812 208.234375 273.371094 209.972656 C 272.976562 211.292969 272.550781 212.609375 272.144531 213.929688 C 271.9375 214.613281 271.648438 215.285156 271.566406 215.980469 C 271.4375 217.042969 271.359375 218.144531 271.449219 219.207031 C 271.554688 220.378906 271.449219 221.605469 272.144531 222.679688 C 272.410156 223.097656 272.203125 223.515625 271.796875 223.769531 C 271.660156 223.851562 271.414062 223.839844 271.265625 223.769531 C 271.183594 223.722656 271.171875 223.480469 271.171875 223.316406 C 271.171875 223.179688 271.21875 223.027344 271.242188 222.890625 C 271.011719 222.957031 270.882812 223.074219 270.789062 223.214844 C 270.410156 223.769531 270.734375 224.253906 270.953125 224.742188 C 271.414062 225.746094 270.789062 227.101562 269.679688 227.207031 C 268.441406 227.320312 267.179688 227.253906 265.941406 227.207031 C 265.445312 227.183594 265.316406 226.882812 265.558594 226.441406 C 265.757812 226.082031 266 225.746094 266.300781 225.285156 C 265.800781 225.285156 265.421875 225.296875 265.039062 225.285156 C 264.632812 225.273438 264.214844 225.273438 263.835938 225.179688 C 263.289062 225.054688 263.1875 224.730469 263.523438 224.289062 C 263.777344 223.953125 264.078125 223.652344 264.390625 223.375 C 264.921875 222.902344 265.570312 222.554688 265.800781 221.8125 C 265.976562 221.269531 266.160156 220.734375 266.289062 220.179688 C 266.578125 218.941406 266.855469 217.703125 267.085938 216.453125 C 267.261719 215.457031 267.226562 214.507812 266.808594 213.523438 C 266.484375 212.773438 266.402344 211.894531 266.335938 211.058594 C 266.230469 209.808594 266.253906 208.558594 266.183594 207.308594 C 266.171875 207.113281 265.988281 206.835938 265.8125 206.765625 C 265.039062 206.441406 264.390625 205.96875 263.996094 205.226562 C 263.511719 204.3125 263.070312 203.363281 262.621094 202.4375 C 261.832031 200.816406 261.554688 199.613281 259.585938 199.371094 C 259.285156 199.335938 258.984375 199.324219 258.695312 199.230469 C 258.082031 199.023438 257.6875 198.433594 257.421875 197.851562 C 256.773438 196.464844 256.554688 194.925781 256.347656 193.410156 C 256.21875 192.496094 256.277344 191.1875 255.90625 190.339844 C 255.511719 189.449219 254.585938 188.757812 254.136719 187.863281 C 254.042969 187.714844 253.742188 187.550781 253.578125 187.585938 C 252.503906 187.820312 251.425781 187.65625 250.363281 187.539062 C 249.285156 187.414062 248.222656 187.25 247.273438 186.648438 C 247.074219 186.523438 246.714844 186.488281 246.507812 186.578125 C 245.558594 186.996094 244.644531 186.960938 243.71875 186.570312 C 243.347656 186.40625 242.964844 186.265625 242.574219 186.175781 C 241.726562 185.988281 241.472656 185.609375 241.578125 184.738281 C 241.625 184.371094 241.625 183.964844 241.554688 183.605469 C 241.425781 182.980469 241.519531 182.679688 242.074219 182.367188 C 242.339844 182.214844 242.628906 182.089844 242.875 181.902344 C 244.226562 180.875 245.128906 179.4375 246.183594 178.140625 C 246.335938 177.957031 246.425781 177.65625 246.4375 177.414062 C 246.460938 176.890625 246.414062 176.371094 246.414062 175.851562 C 246.414062 175.203125 246.613281 174.601562 247.167969 174.230469 C 248.535156 173.316406 248.476562 173.28125 248.554688 171.613281 C 248.566406 171.429688 248.578125 171.222656 248.683594 171.070312 C 248.855469 170.816406 249.191406 170.757812 249.503906 170.757812 C 250.800781 170.757812 251.679688 171.972656 252.445312 170.574219 C 252.617188 170.25 253.265625 169.992188 253.671875 170.039062 C 254.75 170.15625 255.617188 170.6875 256.160156 171.695312 C 256.3125 171.984375 256.589844 172.238281 256.867188 172.425781 C 257.273438 172.714844 257.734375 172.921875 258.164062 173.175781 C 258.566406 173.410156 258.9375 173.441406 259.355469 173.164062 C 260.039062 172.703125 260.734375 172.238281 261.460938 171.847656 C 262.46875 171.300781 263.523438 171.105469 264.621094 171.589844 C 265.109375 171.800781 265.234375 172.179688 265.121094 172.679688 C 264.851562 173.882812 264.25 174.902344 263.417969 175.78125 C 262.933594 176.289062 262.339844 176.578125 261.601562 176.464844 C 261.371094 176.429688 261.136719 176.394531 260.917969 176.359375 C 260.699219 176.324219 260.476562 176.277344 260.257812 176.234375 C 262.238281 177.644531 264.34375 177.460938 266.402344 176.683594 C 267.308594 176.347656 268.222656 176.199219 269.113281 176.277344 C 271.277344 176.476562 273.417969 176.824219 275.570312 177.113281 C 277.167969 177.320312 278.777344 177.527344 280.375 177.75 C 282.054688 177.96875 283.71875 178.28125 285.410156 178.398438 C 287.085938 178.511719 288.695312 178.5 290.328125 178.847656 C 291.324219 179.054688 292.214844 178.976562 293.1875 178.941406 C 294.21875 178.90625 295.304688 179.195312 296.300781 179.390625 C 298.359375 179.820312 300.457031 180.363281 302.574219 180.085938 C 303.90625 179.914062 305.480469 179.242188 306.777344 179.820312 C 307.945312 180.339844 309.21875 180.976562 310.316406 181.648438 C 311.070312 182.113281 311.671875 182.703125 311.832031 183.652344 C 311.925781 184.207031 312.144531 184.761719 312.355469 185.296875 C 312.679688 186.117188 313.082031 186.914062 313.375 187.75 C 314.183594 190.074219 314.289062 192.507812 314.324219 194.9375 C 314.332031 195.898438 314.277344 196.859375 314.34375 197.820312 C 314.507812 200.355469 314.9375 201.835938 316.765625 203.558594 C 317.46875 204.21875 318.199219 204.867188 318.777344 205.644531 C 319.21875 206.1875 319.53125 206.800781 319.75 207.449219 Z M 319.75 207.449219 " fill-opacity="1" fill-rule="nonzero"/></g><g clip-path="url(#7aa652bca4)"><path fill="#ffffff" d="M 177.300781 185.800781 C 177.351562 185.800781 177.398438 185.804688 177.449219 185.804688 C 177.53125 185.71875 177.503906 185.613281 177.492188 185.515625 C 177.429688 185.019531 177.191406 184.609375 176.847656 184.253906 C 176.765625 184.171875 176.652344 184.109375 176.683594 183.960938 C 176.648438 183.976562 176.613281 183.992188 176.578125 184.007812 C 176.613281 183.992188 176.648438 183.976562 176.683594 183.960938 C 176.757812 183.894531 176.832031 183.824219 176.90625 183.753906 C 177.425781 183.171875 177.621094 182.519531 177.324219 181.757812 C 177.195312 181.429688 177.082031 181.09375 177.195312 180.726562 C 177.222656 180.644531 177.183594 180.554688 177.101562 180.542969 C 176.808594 180.503906 176.824219 180.300781 176.84375 180.089844 C 176.851562 180.015625 176.859375 179.933594 176.808594 179.867188 C 176.804688 179.847656 176.796875 179.824219 176.792969 179.804688 C 176.796875 179.800781 176.804688 179.792969 176.804688 179.789062 C 176.800781 179.777344 176.792969 179.765625 176.789062 179.753906 C 176.789062 179.71875 176.792969 179.6875 176.789062 179.652344 C 176.78125 179.355469 176.707031 179.308594 176.457031 179.460938 C 176.269531 179.574219 176.066406 179.667969 175.945312 179.871094 C 175.890625 179.964844 175.800781 179.980469 175.699219 179.945312 C 175.667969 179.886719 175.632812 179.832031 175.589844 179.792969 C 175.632812 179.832031 175.667969 179.886719 175.699219 179.945312 C 175.679688 179.851562 175.699219 179.757812 175.746094 179.675781 C 175.8125 179.546875 175.898438 179.429688 175.894531 179.277344 C 175.988281 179.128906 175.933594 178.976562 175.902344 178.824219 C 175.914062 178.765625 175.921875 178.707031 175.863281 178.667969 C 175.859375 178.503906 175.855469 178.34375 175.847656 178.183594 C 175.84375 178.105469 175.8125 178.03125 175.734375 178 C 175.648438 177.964844 175.582031 178.015625 175.53125 178.070312 C 175.441406 178.171875 175.339844 178.265625 175.296875 178.402344 C 175.171875 178.414062 175.117188 178.5 175.089844 178.605469 C 174.976562 178.6875 174.867188 178.773438 174.828125 178.914062 C 174.59375 178.996094 174.539062 178.878906 174.554688 178.675781 C 174.59375 178.132812 174.511719 177.617188 174.265625 177.128906 C 174.265625 177.007812 174.210938 176.925781 174.09375 176.90625 C 173.960938 176.886719 173.925781 177.003906 173.886719 177.097656 C 173.738281 177.457031 173.585938 177.820312 173.441406 178.183594 C 173.402344 178.285156 173.382812 178.433594 173.257812 178.429688 C 173.121094 178.425781 173.101562 178.269531 173.058594 178.160156 C 173.046875 178.121094 173.042969 178.078125 173.039062 178.035156 C 172.996094 177.578125 172.832031 177.15625 172.703125 176.722656 C 172.671875 176.621094 172.632812 176.523438 172.5 176.527344 C 172.375 176.527344 172.324219 176.609375 172.296875 176.71875 C 172.199219 177.105469 172.101562 177.488281 172.007812 177.875 C 171.984375 177.96875 171.980469 178.082031 171.875 178.105469 C 171.773438 178.128906 171.769531 177.988281 171.699219 177.945312 C 171.695312 177.929688 171.695312 177.910156 171.691406 177.894531 C 171.703125 177.851562 171.699219 177.8125 171.65625 177.785156 C 171.65625 177.738281 171.648438 177.699219 171.609375 177.671875 C 171.597656 177.644531 171.582031 177.617188 171.570312 177.589844 C 171.519531 177.347656 171.402344 177.125 171.308594 176.898438 C 171.261719 176.789062 171.246094 176.621094 171.066406 176.65625 C 170.910156 176.683594 170.898438 176.828125 170.871094 176.957031 C 170.808594 177.269531 170.785156 177.597656 170.675781 177.902344 C 170.511719 177.941406 170.363281 177.929688 170.246094 177.796875 C 170.191406 177.636719 170.019531 177.582031 169.929688 177.449219 C 169.796875 177.246094 169.648438 177.253906 169.515625 177.453125 C 169.441406 177.5625 169.390625 177.691406 169.328125 177.8125 C 169.292969 177.886719 169.265625 177.96875 169.175781 178.003906 C 168.753906 178.167969 168.691406 178.265625 168.722656 178.71875 C 168.714844 178.792969 168.664062 178.863281 168.703125 178.9375 C 168.6875 178.945312 168.675781 178.953125 168.660156 178.957031 C 168.574219 179.023438 168.488281 179.089844 168.453125 179.199219 C 168.210938 179.429688 168.179688 179.535156 168.433594 179.738281 C 168.746094 179.984375 169.109375 180.160156 169.320312 180.519531 C 169.351562 180.570312 169.441406 180.585938 169.496094 180.621094 C 169.566406 180.664062 169.667969 180.664062 169.703125 180.761719 C 169.816406 180.808594 169.929688 180.824219 170.035156 180.824219 C 169.929688 180.824219 169.816406 180.808594 169.703125 180.761719 C 169.550781 180.949219 169.328125 180.894531 169.132812 180.929688 C 169.019531 180.953125 168.894531 180.957031 168.820312 181.074219 C 168.535156 181.074219 168.289062 181.199219 168.046875 181.316406 C 167.039062 181.8125 166.269531 182.597656 165.542969 183.429688 C 165.359375 183.640625 165.179688 183.863281 165.03125 184.097656 C 164.539062 184.867188 164.054688 185.640625 163.601562 186.433594 C 163.414062 186.761719 163.25 187.09375 163.121094 187.449219 C 163.03125 187.621094 162.941406 187.796875 162.84375 187.964844 C 162.46875 188.605469 162.085938 189.238281 161.652344 189.84375 C 161.363281 190.253906 161.027344 190.605469 160.652344 190.933594 C 160.386719 191.167969 160.058594 191.324219 159.824219 191.597656 C 159.679688 191.652344 159.527344 191.6875 159.417969 191.8125 C 159.148438 191.882812 158.894531 191.992188 158.648438 192.125 C 158.378906 192.191406 158.109375 192.289062 157.835938 192.320312 C 156.765625 192.457031 155.6875 192.535156 154.609375 192.535156 C 154.464844 192.535156 154.320312 192.539062 154.179688 192.585938 C 154.09375 192.585938 154.007812 192.585938 153.921875 192.585938 C 153.867188 192.566406 153.8125 192.542969 153.753906 192.535156 C 153.015625 192.441406 152.269531 192.375 151.542969 192.210938 C 150.109375 191.882812 148.660156 191.765625 147.195312 191.765625 C 147.125 191.765625 147.058594 191.765625 146.988281 191.765625 C 146.953125 191.710938 146.921875 191.710938 146.886719 191.761719 C 146.78125 191.761719 146.679688 191.761719 146.578125 191.761719 C 146.492188 191.726562 146.40625 191.667969 146.320312 191.761719 C 146.140625 191.75 145.964844 191.757812 145.785156 191.738281 C 145.300781 191.675781 144.851562 191.476562 144.386719 191.351562 C 143.617188 191.144531 142.878906 190.851562 142.242188 190.359375 C 141.878906 190.082031 141.507812 189.816406 141.136719 189.550781 C 140.851562 189.214844 140.546875 188.910156 140.171875 188.664062 C 139.761719 188.394531 139.347656 188.125 139.042969 187.714844 C 138.925781 187.5625 138.835938 187.351562 138.617188 187.289062 C 138.570312 187.230469 138.515625 187.175781 138.472656 187.113281 C 138.023438 186.414062 137.410156 185.871094 136.730469 185.414062 C 136.074219 184.976562 135.316406 184.746094 134.578125 184.5 C 134.214844 184.378906 133.8125 184.359375 133.429688 184.472656 C 132.886719 184.453125 132.359375 184.484375 131.855469 184.722656 C 131.335938 184.96875 130.976562 185.304688 130.964844 185.921875 C 130.960938 186.1875 130.789062 186.363281 130.59375 186.503906 C 130.488281 186.582031 130.453125 186.664062 130.441406 186.773438 C 130.1875 186.992188 130.097656 187.304688 129.972656 187.589844 C 129.941406 187.660156 130 187.769531 130.0625 187.84375 C 130.089844 187.875 130.140625 187.925781 130.132812 187.945312 C 129.992188 188.304688 130.363281 188.421875 130.492188 188.636719 C 130.585938 188.796875 130.652344 188.917969 130.570312 189.070312 C 130.367188 189.464844 130.460938 189.8125 130.679688 190.167969 C 130.757812 190.296875 130.902344 190.371094 130.929688 190.542969 C 130.960938 190.769531 131.125 190.902344 131.328125 190.984375 C 131.339844 190.972656 131.351562 190.964844 131.363281 190.957031 C 131.351562 190.964844 131.339844 190.972656 131.328125 190.984375 C 131.359375 191.003906 131.390625 191.023438 131.425781 191.042969 C 131.4375 191.046875 131.449219 191.050781 131.464844 191.050781 C 131.449219 191.050781 131.4375 191.046875 131.425781 191.042969 C 131.546875 191.273438 131.71875 191.464844 131.933594 191.609375 C 131.953125 191.691406 131.9375 191.757812 131.855469 191.796875 C 131.847656 191.820312 131.835938 191.84375 131.828125 191.867188 C 131.835938 191.84375 131.847656 191.820312 131.855469 191.796875 C 131.785156 191.765625 131.746094 191.800781 131.722656 191.863281 C 131.640625 191.84375 131.558594 191.828125 131.476562 191.8125 C 131.414062 191.75 131.382812 191.804688 131.347656 191.847656 C 131.304688 191.859375 131.265625 191.875 131.222656 191.890625 C 131.101562 191.878906 131.007812 192.050781 130.871094 191.960938 C 130.757812 191.886719 130.660156 191.972656 130.550781 191.980469 C 130.457031 191.984375 130.457031 192.0625 130.4375 192.125 C 130.402344 192.226562 130.46875 192.261719 130.554688 192.277344 C 130.597656 192.324219 130.640625 192.375 130.683594 192.421875 C 130.660156 192.492188 130.695312 192.523438 130.757812 192.535156 C 130.894531 192.800781 131.0625 193.042969 131.289062 193.242188 C 131.269531 193.328125 131.285156 193.421875 131.191406 193.492188 C 130.976562 193.648438 130.808594 193.84375 130.882812 194.140625 C 130.941406 194.375 131.019531 194.609375 131.089844 194.84375 C 131.089844 194.847656 131.105469 194.847656 131.113281 194.847656 C 131.230469 195.113281 131.472656 195.234375 131.710938 195.359375 C 131.777344 195.488281 131.886719 195.554688 132.03125 195.570312 C 132.0625 195.574219 132.097656 195.578125 132.128906 195.582031 C 132.136719 195.566406 132.140625 195.546875 132.148438 195.53125 C 132.234375 195.53125 132.289062 195.515625 132.292969 195.472656 C 132.289062 195.515625 132.234375 195.53125 132.148438 195.53125 C 132.140625 195.546875 132.136719 195.566406 132.128906 195.582031 C 132.132812 195.59375 132.136719 195.605469 132.148438 195.609375 C 132.160156 195.75 132.148438 195.910156 132.363281 195.898438 C 132.421875 195.929688 132.484375 195.960938 132.542969 195.992188 C 132.550781 196.015625 132.558594 196.042969 132.5625 196.070312 C 132.535156 196.609375 132.625 196.753906 133.078125 196.902344 C 133.066406 197.070312 133.167969 197.109375 133.300781 197.078125 C 133.394531 197.054688 133.480469 197.042969 133.570312 197.066406 C 133.800781 197.351562 134.160156 197.609375 133.789062 198.03125 C 133.699219 198.082031 133.625 198.160156 133.671875 198.253906 C 133.703125 198.320312 133.828125 198.308594 133.882812 198.273438 C 134.058594 198.160156 134.085938 198.363281 134.1875 198.398438 C 134.1875 198.429688 134.191406 198.460938 134.191406 198.492188 C 134.09375 198.675781 134.21875 198.691406 134.347656 198.703125 C 134.367188 198.734375 134.386719 198.765625 134.40625 198.800781 C 134.421875 198.800781 134.4375 198.800781 134.453125 198.800781 C 134.4375 198.800781 134.421875 198.800781 134.40625 198.800781 C 134.410156 198.886719 134.410156 198.972656 134.410156 199.058594 C 134.394531 199.128906 134.378906 199.199219 134.359375 199.265625 C 134.359375 199.300781 134.355469 199.332031 134.351562 199.367188 C 134.269531 199.421875 134.203125 199.476562 134.304688 199.570312 C 134.503906 200.191406 135.199219 200.714844 135.785156 200.691406 C 135.914062 200.769531 135.90625 200.855469 135.820312 200.964844 C 135.449219 201.441406 135.386719 202.050781 135.144531 202.585938 C 135.03125 202.828125 135.066406 203.15625 135.082031 203.441406 C 135.09375 203.609375 135.097656 203.84375 135.378906 203.839844 C 135.410156 203.839844 135.441406 203.84375 135.472656 203.84375 C 135.839844 203.984375 136.128906 204.230469 136.40625 204.496094 C 136.414062 204.503906 136.4375 204.503906 136.453125 204.503906 C 136.457031 204.554688 136.460938 204.605469 136.460938 204.65625 C 136.511719 204.664062 136.574219 204.660156 136.617188 204.671875 C 136.574219 204.660156 136.511719 204.664062 136.460938 204.65625 C 136.394531 204.808594 136.339844 204.96875 136.210938 205.09375 C 136.128906 205.175781 136.085938 205.300781 136.246094 205.382812 C 136.300781 205.675781 136.515625 205.855469 136.710938 206.046875 C 136.808594 206.359375 137.0625 206.527344 137.335938 206.648438 C 137.507812 206.730469 137.511719 206.796875 137.398438 206.929688 C 137.132812 207.242188 136.984375 207.585938 137.164062 208 C 137.183594 208.042969 137.1875 208.113281 137.167969 208.148438 C 137 208.433594 137.171875 208.574219 137.378906 208.71875 C 137.523438 208.824219 137.613281 209.027344 137.566406 209.15625 C 137.453125 209.472656 137.527344 209.78125 137.496094 210.089844 C 137.488281 210.167969 137.519531 210.222656 137.59375 210.203125 C 137.914062 210.113281 137.75 210.320312 137.726562 210.429688 C 137.710938 210.511719 137.667969 210.585938 137.636719 210.664062 C 137.5625 210.667969 137.511719 210.707031 137.476562 210.769531 C 137.371094 210.789062 137.371094 210.863281 137.398438 210.941406 C 137.421875 211.003906 137.480469 211.039062 137.539062 211.015625 C 137.625 210.980469 137.679688 211.054688 137.742188 211.058594 C 137.953125 211.078125 137.871094 211.347656 138.042969 211.386719 C 138.042969 211.441406 138.042969 211.492188 138.042969 211.542969 C 137.980469 211.609375 137.96875 211.699219 138.050781 211.738281 C 138.265625 211.839844 138.40625 212.007812 138.53125 212.199219 C 138.566406 212.253906 138.632812 212.28125 138.691406 212.3125 C 138.84375 212.398438 138.96875 212.511719 138.992188 212.707031 C 139.011719 212.902344 139.261719 213.121094 139.464844 213.132812 C 139.554688 213.136719 139.625 213.144531 139.65625 213.25 C 139.683594 213.339844 139.769531 213.339844 139.847656 213.335938 C 139.980469 213.421875 140.078125 213.527344 140.050781 213.699219 C 139.992188 213.738281 140.003906 213.796875 140.003906 213.855469 C 139.9375 213.894531 139.839844 213.945312 139.878906 214.019531 C 139.933594 214.113281 140.03125 214.042969 140.105469 214.003906 C 140.441406 213.820312 140.835938 213.824219 141.03125 214.113281 C 141.351562 214.585938 141.855469 214.804688 142.273438 215.140625 C 142.398438 215.242188 142.5 215.371094 142.652344 215.4375 C 143.011719 215.597656 143.351562 215.777344 143.632812 216.0625 C 143.746094 216.175781 143.894531 216.253906 144.0625 216.261719 C 144.175781 216.363281 144.164062 216.492188 144.15625 216.625 C 144.074219 216.738281 144.035156 216.871094 144.015625 217.003906 C 143.945312 217.507812 143.914062 218.019531 143.902344 218.527344 C 143.839844 218.601562 143.828125 218.699219 143.816406 218.789062 C 143.742188 219.234375 143.675781 219.683594 143.605469 220.128906 C 143.523438 220.65625 143.433594 221.1875 143.347656 221.714844 C 143.367188 221.851562 143.226562 221.941406 143.246094 222.078125 C 143.167969 222.191406 143.160156 222.328125 143.136719 222.460938 C 143.019531 223.082031 142.898438 223.699219 142.257812 224.027344 C 142.210938 224.050781 142.183594 224.117188 142.148438 224.167969 C 142.105469 224.1875 142.058594 224.210938 142.011719 224.234375 C 141.667969 224.355469 141.324219 224.472656 140.984375 224.597656 C 140.730469 224.691406 140.472656 224.777344 140.226562 224.886719 C 140.035156 224.96875 140.027344 225.035156 140.164062 225.144531 C 140.332031 225.195312 140.488281 225.253906 140.636719 225.367188 C 141.027344 225.664062 141.246094 225.644531 141.632812 225.339844 C 141.6875 225.296875 141.753906 225.273438 141.8125 225.242188 C 141.871094 225.230469 141.929688 225.226562 141.984375 225.203125 C 142.089844 225.148438 142.207031 225.09375 142.3125 225.164062 C 142.441406 225.25 142.378906 225.386719 142.371094 225.507812 C 142.332031 225.785156 142.382812 226.058594 142.410156 226.332031 C 142.421875 226.429688 142.5 226.527344 142.589844 226.53125 C 142.910156 226.542969 143.03125 226.804688 143.210938 226.992188 C 143.289062 227.070312 143.367188 227.144531 143.480469 227.175781 C 143.507812 227.222656 143.542969 227.261719 143.605469 227.230469 C 143.824219 227.289062 144.046875 227.242188 144.265625 227.253906 C 144.3125 227.3125 144.363281 227.308594 144.417969 227.261719 C 144.535156 227.28125 144.652344 227.324219 144.769531 227.292969 C 144.984375 227.265625 145.074219 227.140625 144.992188 226.964844 C 144.960938 226.898438 144.910156 226.839844 144.9375 226.757812 C 145.09375 226.757812 145.246094 226.757812 145.398438 226.757812 C 145.421875 226.777344 145.449219 226.78125 145.472656 226.757812 C 145.492188 226.765625 145.511719 226.773438 145.53125 226.78125 C 145.953125 226.804688 146.375 226.8125 146.792969 226.757812 C 146.976562 226.769531 147.160156 226.78125 147.34375 226.792969 C 147.542969 226.859375 147.742188 226.867188 147.941406 226.796875 C 148.492188 226.835938 149.054688 226.75 149.601562 226.921875 C 149.785156 227.023438 149.957031 226.992188 150.125 226.882812 C 150.246094 226.859375 150.332031 226.773438 150.367188 226.671875 C 150.453125 226.410156 150.601562 226.492188 150.765625 226.574219 C 150.875 226.625 150.890625 226.757812 150.992188 226.808594 C 151.007812 226.867188 151.015625 226.929688 151.042969 226.976562 C 151.097656 227.070312 151.15625 227.210938 151.28125 227.171875 C 151.394531 227.140625 151.363281 226.992188 151.347656 226.898438 C 151.25 226.359375 150.976562 225.964844 150.363281 225.933594 C 150.210938 225.925781 150.058594 225.917969 149.90625 225.910156 C 149.863281 225.882812 149.816406 225.878906 149.769531 225.898438 C 149.515625 225.777344 149.246094 225.820312 148.988281 225.851562 C 148.671875 225.890625 148.371094 225.882812 148.058594 225.808594 C 147.570312 225.699219 147.074219 225.671875 146.578125 225.679688 C 146.4375 225.652344 146.308594 225.570312 146.160156 225.570312 C 146.148438 225.511719 146.140625 225.449219 146.0625 225.523438 C 146.011719 225.523438 145.960938 225.523438 145.910156 225.523438 C 145.890625 225.492188 145.878906 225.441406 145.859375 225.4375 C 145.582031 225.425781 145.324219 225.304688 145.050781 225.277344 C 144.808594 225.25 144.726562 225.109375 144.722656 224.902344 C 144.722656 224.671875 144.726562 224.445312 144.753906 224.214844 C 144.785156 223.984375 144.882812 223.75 144.785156 223.511719 C 144.789062 223.460938 144.792969 223.414062 144.800781 223.363281 C 144.929688 223.136719 144.890625 222.878906 144.914062 222.640625 C 144.992188 221.804688 145.160156 220.980469 145.296875 220.152344 C 145.367188 219.730469 145.496094 219.3125 145.523438 218.878906 C 145.578125 218.730469 145.628906 218.578125 145.679688 218.425781 C 145.703125 218.421875 145.707031 218.40625 145.707031 218.402344 C 145.835938 218.414062 145.976562 218.488281 146.074219 218.332031 C 146.152344 218.320312 146.234375 218.308594 146.316406 218.292969 C 146.386719 218.300781 146.457031 218.308594 146.527344 218.316406 C 146.605469 218.402344 146.695312 218.367188 146.785156 218.351562 C 146.890625 218.375 146.992188 218.382812 147.097656 218.347656 C 147.148438 218.347656 147.199219 218.347656 147.25 218.347656 C 147.25 218.347656 147.269531 218.359375 147.269531 218.359375 C 147.269531 218.359375 147.296875 218.367188 147.285156 218.359375 C 147.289062 218.359375 147.292969 218.359375 147.292969 218.359375 C 147.367188 218.367188 147.445312 218.394531 147.5 218.3125 C 147.601562 218.277344 147.703125 218.242188 147.808594 218.207031 C 147.875 218.21875 147.90625 218.183594 147.921875 218.125 C 148.097656 218.046875 148.242188 217.933594 148.363281 217.789062 C 148.398438 217.828125 148.355469 217.765625 148.4375 217.746094 C 148.53125 217.722656 148.46875 217.726562 148.539062 217.695312 C 148.582031 217.671875 148.613281 217.652344 148.648438 217.625 C 148.8125 217.589844 148.976562 217.554688 149.140625 217.527344 C 149.285156 217.5 149.40625 217.457031 149.5 217.328125 C 149.589844 217.207031 149.714844 217.21875 149.84375 217.289062 C 149.996094 217.375 150.144531 217.375 150.292969 217.265625 C 150.375 217.207031 150.476562 217.117188 150.566406 217.152344 C 150.808594 217.25 150.878906 217.113281 150.941406 216.929688 C 151.167969 216.90625 151.386719 217.121094 151.621094 216.960938 C 151.660156 216.933594 151.707031 216.953125 151.734375 216.984375 C 151.910156 217.191406 152.15625 217.15625 152.386719 217.1875 C 152.4375 217.207031 152.484375 217.226562 152.535156 217.25 C 152.632812 217.519531 152.824219 217.496094 153.039062 217.40625 C 153.074219 217.585938 153.175781 217.710938 153.363281 217.75 C 153.394531 217.769531 153.425781 217.792969 153.457031 217.8125 C 153.5 217.945312 153.621094 217.933594 153.722656 217.953125 C 153.921875 218.082031 154.117188 218.214844 154.316406 218.34375 C 154.382812 218.429688 154.460938 218.511719 154.511719 218.605469 C 154.777344 219.117188 155.175781 219.519531 155.519531 219.964844 C 155.527344 220.066406 155.589844 220.125 155.671875 220.167969 C 155.671875 220.167969 155.671875 220.171875 155.671875 220.171875 C 155.726562 220.269531 155.777344 220.367188 155.839844 220.457031 C 156.339844 221.226562 156.886719 221.964844 157.320312 222.773438 C 157.429688 222.980469 157.5 223.21875 157.703125 223.371094 C 157.707031 223.386719 157.714844 223.398438 157.722656 223.414062 C 157.871094 223.703125 157.988281 223.996094 157.945312 224.332031 C 157.933594 224.433594 157.988281 224.53125 158.070312 224.601562 C 158.082031 224.628906 158.089844 224.660156 158.097656 224.691406 C 158.082031 224.855469 157.980469 224.972656 157.84375 225.050781 C 157.449219 225.277344 157.042969 225.484375 156.648438 225.710938 C 156.414062 225.847656 156.179688 225.996094 156.058594 226.257812 C 156.03125 226.324219 156 226.414062 156.082031 226.464844 C 156.144531 226.507812 156.210938 226.480469 156.242188 226.398438 C 156.199219 226.351562 156.183594 226.3125 156.179688 226.28125 C 156.183594 226.3125 156.199219 226.351562 156.242188 226.398438 C 156.296875 226.363281 156.371094 226.355469 156.394531 226.28125 C 156.511719 226.316406 156.628906 226.355469 156.742188 226.394531 C 157.070312 226.546875 157.363281 226.480469 157.628906 226.1875 C 157.691406 226.175781 157.75 226.152344 157.785156 226.089844 C 157.785156 226.089844 157.789062 226.085938 157.789062 226.085938 C 157.894531 226.089844 157.953125 226.011719 158.027344 225.960938 C 158.285156 225.777344 158.570312 225.769531 158.863281 225.828125 C 158.78125 226.191406 158.847656 226.304688 159.199219 226.414062 C 159.34375 226.460938 159.464844 226.527344 159.570312 226.65625 C 159.710938 226.832031 159.890625 226.984375 160.144531 226.984375 C 160.171875 227.042969 160.203125 227.046875 160.238281 226.992188 C 160.304688 226.988281 160.375 226.984375 160.441406 226.976562 C 160.597656 227 160.757812 227.03125 160.910156 226.953125 C 161.03125 226.953125 161.152344 226.957031 161.269531 226.957031 C 161.480469 226.929688 161.570312 226.816406 161.472656 226.664062 C 161.40625 226.5625 161.417969 226.460938 161.410156 226.355469 C 162.035156 226.492188 162.660156 226.390625 163.285156 226.347656 C 163.484375 226.355469 163.6875 226.367188 163.886719 226.375 C 164.214844 226.460938 164.542969 226.410156 164.871094 226.40625 C 165.261719 226.398438 165.644531 226.40625 166.023438 226.535156 C 166.234375 226.609375 166.464844 226.652344 166.675781 226.503906 C 166.757812 226.484375 166.800781 226.417969 166.84375 226.355469 C 167.023438 226.109375 167.09375 226.109375 167.328125 226.304688 C 167.472656 226.425781 167.535156 226.613281 167.6875 226.71875 C 167.726562 226.777344 167.796875 226.902344 167.820312 226.761719 C 167.84375 226.640625 167.867188 226.484375 167.804688 226.347656 C 167.550781 225.785156 166.996094 225.480469 166.355469 225.554688 C 166.320312 225.554688 166.289062 225.554688 166.257812 225.554688 C 166.125 225.488281 165.980469 225.476562 165.835938 225.46875 C 165.394531 225.445312 164.949219 225.535156 164.507812 225.421875 C 164.226562 225.347656 163.9375 225.320312 163.648438 225.308594 C 163.375 225.300781 163.09375 225.296875 162.839844 225.222656 C 162.421875 225.097656 162.003906 225.046875 161.578125 225.039062 C 161.484375 224.902344 161.339844 224.96875 161.21875 224.949219 C 161.109375 224.738281 161.015625 224.515625 160.875 224.320312 L 160.867188 224.328125 C 160.871094 224.324219 160.875 224.320312 160.875 224.320312 C 160.855469 224.289062 160.835938 224.261719 160.820312 224.230469 C 160.8125 224.199219 160.804688 224.167969 160.792969 224.140625 C 160.660156 223.785156 160.40625 223.550781 160.0625 223.40625 C 160.023438 223.382812 159.988281 223.359375 159.953125 223.339844 C 159.929688 223.203125 159.8125 223.140625 159.726562 223.050781 C 159.652344 222.957031 159.625 222.816406 159.480469 222.789062 C 159.191406 222.300781 158.878906 221.828125 158.527344 221.390625 C 158.417969 221.253906 158.382812 221.054688 158.199219 220.984375 C 158.179688 220.96875 158.164062 220.949219 158.144531 220.933594 C 158.105469 220.867188 158.066406 220.804688 158.027344 220.738281 C 157.933594 220.550781 157.84375 220.359375 157.675781 220.222656 C 157.660156 220.203125 157.644531 220.1875 157.628906 220.167969 C 157.5 219.800781 157.265625 219.496094 157.027344 219.199219 C 157.019531 219.128906 157.011719 219.058594 157.003906 218.988281 C 157.003906 218.96875 157 218.949219 156.996094 218.929688 C 157 218.949219 157.003906 218.96875 157.003906 218.988281 C 157.070312 218.972656 157.140625 218.964844 157.199219 218.9375 C 157.460938 218.808594 157.734375 218.6875 157.835938 218.378906 C 157.851562 218.363281 157.867188 218.34375 157.882812 218.328125 C 157.898438 218.328125 157.914062 218.328125 157.929688 218.324219 C 158.496094 218.015625 158.988281 217.640625 159.1875 216.988281 C 159.246094 216.800781 159.332031 216.621094 159.382812 216.433594 C 159.425781 216.265625 159.535156 216.199219 159.683594 216.171875 C 159.863281 216.136719 160.007812 216.042969 160.078125 215.886719 C 160.214844 215.589844 160.335938 215.289062 160.433594 214.984375 C 160.511719 214.738281 160.625 214.488281 160.433594 214.230469 C 160.367188 214.140625 160.414062 214.015625 160.414062 213.90625 C 160.410156 213.621094 160.621094 213.40625 160.65625 213.136719 C 160.984375 212.75 161.421875 212.519531 161.847656 212.265625 C 162.445312 211.90625 163.070312 211.589844 163.640625 211.183594 C 163.789062 211.078125 163.992188 211.042969 164.140625 210.933594 C 164.425781 210.722656 164.726562 210.570312 165.0625 210.46875 C 165.488281 210.34375 165.871094 210.117188 166.253906 209.894531 C 166.523438 209.800781 166.652344 209.535156 166.875 209.375 C 167.566406 208.871094 168.167969 208.273438 168.652344 207.5625 C 169.152344 206.824219 169.554688 206.035156 169.984375 205.257812 C 170.296875 204.6875 170.601562 204.113281 170.914062 203.546875 C 171.238281 202.964844 171.574219 202.390625 171.832031 201.769531 C 172.027344 201.296875 172.164062 200.804688 172.320312 200.316406 C 172.566406 199.5625 172.960938 198.863281 173.136719 198.082031 C 173.152344 198.03125 173.171875 197.980469 173.1875 197.925781 C 173.449219 197.265625 173.640625 196.585938 173.710938 195.875 C 173.761719 195.832031 173.753906 195.773438 173.753906 195.71875 C 173.699219 195.5 173.90625 195.324219 173.851562 195.101562 C 173.949219 195.011719 173.894531 194.898438 173.902344 194.792969 C 173.894531 194.480469 173.957031 194.175781 174.007812 193.871094 C 173.988281 193.867188 173.96875 193.867188 173.949219 193.871094 C 173.96875 193.867188 173.988281 193.867188 174.007812 193.871094 C 174.058594 193.667969 174.074219 193.460938 174.054688 193.253906 C 174.050781 193.164062 174.09375 193.070312 174.007812 192.996094 C 173.992188 192.84375 173.972656 192.6875 173.953125 192.535156 C 173.945312 192.429688 173.996094 192.316406 173.90625 192.226562 C 173.910156 192.070312 173.890625 191.921875 173.757812 191.8125 C 173.753906 191.777344 173.753906 191.746094 173.753906 191.710938 C 173.839844 191.640625 173.738281 191.578125 173.746094 191.507812 C 173.753906 191.464844 173.742188 191.425781 173.703125 191.402344 C 173.699219 191.371094 173.699219 191.335938 173.699219 191.300781 C 173.664062 191.300781 173.632812 191.300781 173.601562 191.300781 C 173.632812 191.300781 173.664062 191.300781 173.699219 191.300781 C 173.6875 191.199219 173.742188 191.082031 173.648438 190.992188 C 173.648438 190.960938 173.644531 190.925781 173.644531 190.890625 C 173.648438 190.847656 173.640625 190.8125 173.597656 190.789062 C 173.5625 190.648438 173.523438 190.511719 173.488281 190.371094 C 173.390625 190.136719 173.292969 189.902344 173.199219 189.667969 L 173.191406 189.65625 C 173.195312 189.660156 173.199219 189.667969 173.199219 189.667969 C 173.210938 189.652344 173.226562 189.636719 173.242188 189.625 C 173.234375 189.621094 173.226562 189.617188 173.21875 189.617188 C 173.226562 189.617188 173.234375 189.621094 173.242188 189.625 C 173.378906 189.605469 173.492188 189.535156 173.613281 189.476562 C 173.921875 189.328125 174.070312 189.039062 174.285156 188.804688 C 174.410156 188.730469 174.519531 188.632812 174.601562 188.511719 C 174.953125 187.996094 175.070312 187.382812 175.304688 186.820312 C 175.339844 186.738281 175.328125 186.636719 175.34375 186.542969 C 175.421875 186.136719 175.21875 185.800781 175.085938 185.441406 C 175.144531 185.441406 175.179688 185.410156 175.195312 185.355469 C 175.230469 185.347656 175.261719 185.34375 175.292969 185.335938 C 175.308594 185.332031 175.328125 185.328125 175.347656 185.324219 C 175.363281 185.328125 175.378906 185.332031 175.398438 185.339844 C 175.394531 185.316406 175.390625 185.300781 175.382812 185.285156 C 175.390625 185.300781 175.394531 185.316406 175.398438 185.339844 C 175.492188 185.484375 175.660156 185.421875 175.789062 185.464844 C 176.242188 185.617188 176.648438 185.914062 177.148438 185.9375 C 177.203125 185.945312 177.253906 185.953125 177.304688 185.964844 C 177.316406 185.96875 177.332031 185.972656 177.347656 185.972656 C 177.441406 186.027344 177.445312 185.972656 177.441406 185.902344 C 177.445312 185.867188 177.445312 185.835938 177.449219 185.804688 C 177.398438 185.804688 177.351562 185.800781 177.300781 185.800781 Z M 177.300781 185.800781 " fill-opacity="1" fill-rule="nonzero"/></g><g clip-path="url(#2070ea673b)"><path fill="#ffffff" d="M 72.480469 212.144531 C 72.480469 212.144531 78.824219 213.894531 83.253906 211.152344 L 88.027344 210.378906 C 88.027344 210.378906 89.167969 212.175781 88.757812 213.390625 C 88.351562 214.609375 88.386719 216.765625 89.09375 217.953125 C 89.785156 219.117188 87.78125 223.285156 88.460938 225.324219 C 88.488281 225.40625 88.574219 225.453125 88.65625 225.433594 L 88.875 225.386719 C 88.960938 225.367188 89.050781 225.421875 89.078125 225.507812 L 89.308594 226.28125 C 89.328125 226.34375 89.382812 226.390625 89.445312 226.402344 L 91.121094 226.675781 C 91.460938 226.730469 91.726562 226.390625 91.589844 226.074219 L 90.101562 222.671875 C 90.089844 222.640625 90.085938 222.613281 90.089844 222.582031 L 90.53125 218.191406 C 90.554688 217.949219 90.664062 217.726562 90.835938 217.558594 L 91.339844 217.066406 C 91.519531 216.890625 91.8125 216.90625 91.972656 217.097656 L 92.074219 217.21875 C 92.199219 217.367188 92.28125 217.550781 92.308594 217.742188 L 92.972656 222.773438 C 92.972656 222.792969 92.972656 222.8125 92.96875 222.832031 L 92.636719 224.347656 C 92.609375 224.472656 92.71875 224.582031 92.84375 224.554688 C 92.917969 224.535156 93 224.578125 93.035156 224.648438 L 93.589844 225.777344 C 93.617188 225.832031 93.667969 225.867188 93.726562 225.875 L 95.421875 226.050781 C 95.808594 226.089844 96.074219 225.671875 95.875 225.339844 L 94.324219 222.71875 C 94.308594 222.691406 94.300781 222.664062 94.300781 222.628906 L 94.257812 218.261719 C 94.253906 217.730469 94.324219 217.199219 94.476562 216.691406 L 96.265625 210.574219 C 96.417969 210.058594 96.703125 209.597656 97.097656 209.234375 L 98.792969 207.671875 C 99.417969 207.097656 99.871094 206.355469 100.09375 205.535156 L 100.699219 203.304688 C 100.835938 202.789062 101.0625 202.304688 101.363281 201.863281 L 102.941406 199.554688 C 103.105469 199.3125 103.226562 199.042969 103.292969 198.757812 L 104.445312 193.898438 C 104.445312 193.898438 105.246094 189.136719 109.613281 191.894531 C 110.210938 192.273438 110.96875 192.324219 111.601562 192.007812 C 112.46875 191.578125 113.503906 190.777344 113.613281 189.390625 C 113.636719 189.058594 113.503906 188.738281 113.246094 188.527344 C 112.488281 187.90625 110.753906 186.375 110.265625 185.042969 C 109.636719 183.320312 109.007812 182.03125 106.695312 181.074219 C 104.378906 180.117188 104.179688 175.78125 98.789062 176.246094 C 98.789062 176.246094 103.882812 179.105469 103.734375 180.429688 C 103.585938 181.753906 99.160156 176.960938 96.160156 177.828125 L 101.277344 181.039062 C 101.277344 181.039062 103.160156 182.402344 100.683594 182.4375 C 100.683594 182.4375 99.925781 182.339844 99.269531 183.308594 C 98.757812 184.058594 97.519531 184.078125 96.988281 184.046875 C 96.765625 184.035156 96.550781 184.175781 96.5 184.394531 C 96.429688 184.707031 96.699219 185.117188 98.550781 185.179688 L 100.425781 185.347656 C 100.683594 185.371094 100.84375 185.648438 100.734375 185.882812 C 100.273438 186.902344 98.953125 189.296875 96.210938 191.023438 C 96.210938 191.023438 90.097656 191.253906 88.707031 192.082031 C 87.320312 192.90625 82.460938 194.496094 78.660156 192.578125 C 74.855469 190.660156 68.3125 190.625 65.238281 193.335938 C 62.691406 195.582031 60.800781 191.386719 60.230469 189.878906 C 60.160156 189.703125 59.917969 189.703125 59.847656 189.878906 L 59.765625 190.09375 C 59.722656 190.203125 59.59375 190.253906 59.488281 190.203125 L 59.375 190.152344 C 59.21875 190.078125 59.046875 190.222656 59.09375 190.394531 L 59.839844 193.089844 C 59.878906 193.242188 59.742188 193.382812 59.585938 193.34375 C 59.414062 193.296875 59.269531 193.476562 59.351562 193.632812 L 59.847656 194.601562 C 59.871094 194.648438 59.875 194.703125 59.859375 194.757812 L 59.722656 195.203125 C 59.691406 195.300781 59.734375 195.40625 59.828125 195.449219 L 61.335938 196.195312 C 61.554688 196.304688 61.683594 196.535156 61.660156 196.777344 C 61.511719 198.464844 61.140625 205.03125 64.105469 208.503906 C 64.710938 209.214844 64.980469 210.160156 64.804688 211.078125 C 64.640625 211.90625 64.269531 212.921875 63.445312 213.914062 L 62.351562 215.105469 C 62.152344 215.320312 62.082031 215.621094 62.160156 215.902344 L 63.21875 219.6875 C 63.320312 220.050781 63.382812 220.421875 63.40625 220.800781 L 63.617188 224.335938 C 63.632812 224.601562 63.804688 224.828125 64.054688 224.914062 C 64.324219 225.011719 64.53125 225.234375 64.597656 225.511719 L 64.605469 225.53125 C 64.710938 225.949219 65.078125 226.25 65.503906 226.277344 L 66.671875 226.34375 C 67.03125 226.367188 67.328125 226.074219 67.320312 225.71875 L 67.320312 225.660156 C 67.3125 225.308594 67.179688 224.976562 66.945312 224.714844 L 66.328125 224.03125 C 66.042969 223.71875 65.847656 223.339844 65.753906 222.929688 L 64.667969 218.121094 C 64.582031 217.746094 64.667969 217.355469 64.898438 217.054688 L 65.1875 216.679688 C 65.394531 216.40625 65.8125 216.417969 66.003906 216.699219 C 66.828125 217.898438 68.628906 220.902344 68.585938 224.238281 C 68.582031 224.453125 68.753906 224.632812 68.96875 224.640625 C 69.113281 224.648438 69.242188 224.730469 69.308594 224.859375 L 70.011719 226.207031 C 70.082031 226.339844 70.222656 226.425781 70.371094 226.425781 L 71.660156 226.429688 C 71.925781 226.433594 72.121094 226.179688 72.054688 225.921875 L 71.734375 224.683594 C 71.722656 224.632812 71.699219 224.585938 71.667969 224.542969 L 69.648438 221.816406 C 69.625 221.785156 69.609375 221.757812 69.597656 221.71875 C 69.378906 221.160156 67.488281 216.066406 69.242188 214.804688 C 71.105469 213.46875 71.417969 213.898438 72.480469 212.144531 Z M 72.480469 212.144531 " fill-opacity="1" fill-rule="nonzero"/></g></svg>