<svg width="583" height="606" viewBox="0 0 583 606" fill="none" xmlns="http://www.w3.org/2000/svg">
<g clip-path="url(#clip0_312_331)">
<mask id="mask0_312_331" style="mask-type:luminance" maskUnits="userSpaceOnUse" x="0" y="0" width="583" height="606">
<path d="M583 0H0V606H583V0Z" fill="white"/>
</mask>
<g mask="url(#mask0_312_331)">
<path d="M516.149 232.009L523.016 235.741L519.929 240.93L513.002 236.818L513.127 244.475H507.206L507.269 236.754L500.339 240.93L497.315 235.741L504.181 232.009L497.315 228.214L500.339 223.026L507.269 227.2L507.206 219.481H513.127L513.002 227.2L519.929 223.026L523.016 228.214L516.149 232.009Z" fill="#D9D9D1"/>
<path d="M282.4 558.706V601.101H344.132H412.218V558.706H282.4Z" fill="#F2F1EE"/>
<path d="M276.953 546.854V558.706H416.756V546.854H344.131H276.953Z" fill="#E7E6E0"/>
<path d="M346.855 601.103H412.216V558.706H416.755V546.852H344.132V557.609L346.855 601.103Z" fill="#E7E6E0"/>
<path d="M300.557 565.543V571.925H326.883V565.543H300.557Z" fill="#D9D9D1"/>
<path d="M330.973 593.379H297.167V579.904H330.973V593.379Z" fill="#FEFEFE"/>
<path d="M302.372 504.511V546.908H364.102H432.189V504.511H302.372Z" fill="#F2F1EE"/>
<path d="M296.925 492.66V504.513H436.731V492.66H364.103H296.925Z" fill="#E7E6E0"/>
<path d="M366.828 546.91H432.189V504.513H436.731V492.66H364.104V503.418L366.828 546.91Z" fill="#E7E6E0"/>
<path d="M320.527 511.349V517.731H346.856V511.349H320.527Z" fill="#D9D9D1"/>
<path d="M350.946 539.186H317.141V525.712H350.946V539.186Z" fill="#FEFEFE"/>
<path d="M581.829 601.428C581.829 601.624 451.571 601.782 290.928 601.782C130.229 601.782 0 601.624 0 601.428C0 601.231 130.229 601.073 290.928 601.073C451.571 601.073 581.829 601.231 581.829 601.428Z" fill="#0D151D"/>
<path d="M461.747 269.22H218.985C214.063 269.22 210.07 265.211 210.07 260.266V35.9533C210.07 31.0084 214.063 26.9998 218.985 26.9998H461.747C466.672 26.9998 470.662 31.0084 470.662 35.9533V260.266C470.662 265.211 466.672 269.22 461.747 269.22Z" fill="#FEFEFE"/>
<path d="M461.746 269.22C461.746 269.22 461.962 269.196 462.386 269.169C462.812 269.14 463.446 269.052 464.252 268.818C465.05 268.566 466.029 268.155 467.025 267.403C468.011 266.658 469.035 265.575 469.724 264.081C470.494 262.605 470.65 260.741 470.574 258.703C470.569 256.663 470.563 254.433 470.557 252.016C470.547 247.181 470.538 241.604 470.525 235.327C470.498 210.207 470.46 173.872 470.413 128.976C470.399 106.524 470.384 81.9342 470.368 55.535C470.357 48.9414 470.345 42.2344 470.332 35.4196C470.175 32.1139 467.904 29.002 464.754 27.861C463.194 27.2086 461.487 27.3137 459.738 27.3096C458.001 27.311 456.258 27.311 454.507 27.3123C440.504 27.3178 426.094 27.3219 411.316 27.3274C352.206 27.3355 287.22 27.3451 219.009 27.3547C216.956 27.356 214.927 28.1122 213.384 29.4606C211.83 30.7941 210.79 32.7077 210.521 34.7345C210.38 35.7308 210.435 36.8063 210.424 37.8696V41.0552C210.423 43.1775 210.423 45.2944 210.423 47.41C210.423 55.8694 210.423 64.2743 210.422 72.6163C210.42 89.3018 210.419 105.742 210.416 121.896C210.41 154.204 210.403 185.369 210.396 215.056C210.391 229.901 210.386 244.375 210.381 258.439C210.388 259.312 210.358 260.212 210.419 261.043C210.513 261.881 210.683 262.715 211.006 263.494C211.633 265.058 212.724 266.416 214.09 267.373C215.461 268.324 217.097 268.865 218.754 268.902C220.462 268.906 222.163 268.911 223.858 268.917C230.65 268.919 237.335 268.922 243.907 268.926C270.194 268.941 294.68 268.956 317.033 268.969C361.737 269.016 397.911 269.054 422.921 269.082C435.416 269.11 445.118 269.134 451.709 269.149C454.994 269.164 457.501 269.176 459.196 269.184C460.882 269.195 461.746 269.22 461.746 269.22C461.746 269.22 460.882 269.244 459.196 269.257C457.501 269.265 454.994 269.276 451.709 269.292C445.118 269.307 435.416 269.33 422.921 269.359C397.911 269.385 361.737 269.423 317.033 269.472C294.68 269.484 270.194 269.499 243.907 269.514C237.335 269.519 230.65 269.521 223.858 269.524C222.158 269.521 220.451 269.517 218.736 269.514C216.967 269.476 215.209 268.898 213.74 267.881C212.275 266.857 211.105 265.403 210.433 263.726C210.085 262.891 209.9 261.997 209.802 261.097C209.734 260.179 209.768 259.323 209.759 258.439C209.755 244.375 209.749 229.901 209.744 215.056C209.737 185.369 209.73 154.204 209.723 121.896C209.722 105.742 209.721 89.3018 209.718 72.6163C209.718 64.2743 209.718 55.8694 209.716 47.41C209.716 45.2944 209.716 43.1775 209.716 41.0552V37.8696C209.73 36.8118 209.668 35.7486 209.82 34.6348C210.113 32.4401 211.239 30.3669 212.921 28.9243C214.587 27.4638 216.793 26.6436 219.009 26.6436C287.22 26.6531 352.206 26.664 411.316 26.6722C426.094 26.6777 440.504 26.6818 454.507 26.6872C456.258 26.6872 458.001 26.6886 459.738 26.6886C461.438 26.6941 463.292 26.5835 464.969 27.2837C468.343 28.5093 470.77 31.8423 470.936 35.3828C470.943 42.2098 470.949 48.9291 470.955 55.535C470.94 81.9342 470.926 106.524 470.913 128.976C470.865 173.872 470.826 210.207 470.8 235.327C470.788 241.604 470.777 247.181 470.767 252.016C470.762 254.433 470.756 256.663 470.751 258.703C470.819 260.725 470.646 262.66 469.853 264.144C469.142 265.656 468.094 266.745 467.089 267.49C466.075 268.241 465.081 268.645 464.273 268.887C463.457 269.112 462.816 269.188 462.389 269.206C461.962 269.221 461.746 269.22 461.746 269.22Z" fill="#0D151D"/>
<path d="M229.737 43.7862C229.737 46.2853 227.718 48.3108 225.229 48.3108C222.742 48.3108 220.726 46.2853 220.726 43.7862C220.726 41.2872 222.742 39.2617 225.229 39.2617C227.718 39.2617 229.737 41.2872 229.737 43.7862Z" fill="#0D151D"/>
<path d="M242.895 43.7862C242.895 46.2853 240.878 48.3108 238.39 48.3108C235.901 48.3108 233.885 46.2853 233.885 43.7862C233.885 41.2872 235.901 39.2617 238.39 39.2617C240.878 39.2617 242.895 41.2872 242.895 43.7862Z" fill="#0D151D"/>
<path d="M256.051 43.7862C256.051 46.2853 254.036 48.3108 251.546 48.3108C249.059 48.3108 247.044 46.2853 247.044 43.7862C247.044 41.2872 249.059 39.2617 251.546 39.2617C254.036 39.2617 256.051 41.2872 256.051 43.7862Z" fill="#0D151D"/>
<path d="M470.662 56.6215C470.662 56.818 412.322 56.9763 340.373 56.9763C268.399 56.9763 210.07 56.818 210.07 56.6215C210.07 56.4249 268.399 56.2666 340.373 56.2666C412.322 56.2666 470.662 56.4249 470.662 56.6215Z" fill="#0D151D"/>
<path d="M381.654 141.868C381.654 141.868 381.732 141.707 381.893 141.4L382.028 141.144L382.154 140.813C382.241 140.571 382.355 140.296 382.414 139.963C382.448 139.798 382.494 139.624 382.526 139.439C382.546 139.251 382.566 139.055 382.588 138.848C382.618 138.64 382.618 138.422 382.613 138.195C382.604 137.968 382.627 137.73 382.594 137.486C382.536 136.498 382.284 135.379 381.884 134.164C381.083 131.726 379.534 128.956 377.381 126.026C375.229 123.088 372.429 120.012 369.094 116.874C365.758 113.735 361.847 110.573 357.444 107.477C353.036 104.386 348.126 101.362 342.729 98.6223C340.03 97.2553 337.208 95.9656 334.265 94.7974C331.324 93.6245 328.257 92.588 325.068 91.7779C321.882 90.984 318.561 90.383 315.167 90.407C313.476 90.4297 311.758 90.594 310.128 91.1306C309.316 91.3992 308.536 91.7674 307.823 92.2446C307.124 92.7443 306.509 93.3571 306.035 94.0802C305.589 94.8194 305.301 95.6412 305.151 96.488C305.029 97.3397 305.034 98.2047 305.143 99.0563C305.362 100.762 305.958 102.389 306.665 103.928C308.108 107.009 310.081 109.756 312.17 112.295C314.275 114.83 316.534 117.158 318.857 119.313C321.179 121.471 323.557 123.468 325.953 125.319C330.747 129.018 335.586 132.157 340.269 134.81C344.954 137.458 349.489 139.629 353.751 141.292C358.014 142.954 361.991 144.161 365.561 144.838C369.127 145.521 372.287 145.726 374.825 145.4C376.091 145.237 377.206 144.983 378.118 144.609C378.352 144.533 378.557 144.41 378.766 144.32C378.972 144.224 379.167 144.133 379.341 144.015C379.517 143.906 379.686 143.802 379.846 143.703C379.999 143.594 380.134 143.479 380.268 143.376C380.543 143.179 380.742 142.957 380.921 142.773L381.165 142.519L381.337 142.285C381.545 142.007 381.654 141.868 381.654 141.868C381.654 141.868 381.556 142.015 381.355 142.298L381.183 142.535L380.942 142.795C380.765 142.981 380.568 143.206 380.293 143.408C380.16 143.513 380.026 143.631 379.873 143.743C379.712 143.842 379.543 143.948 379.366 144.059C379.193 144.178 378.996 144.272 378.789 144.37C378.58 144.462 378.374 144.586 378.141 144.664C377.225 145.046 376.105 145.308 374.833 145.477C372.286 145.818 369.115 145.623 365.541 144.948C361.96 144.279 357.972 143.081 353.701 141.425C349.427 139.768 344.883 137.6 340.187 134.955C335.495 132.305 330.644 129.167 325.839 125.466C323.44 123.612 321.056 121.615 318.727 119.454C316.397 117.296 314.132 114.963 312.019 112.421C309.921 109.874 307.939 107.116 306.483 104.011C305.77 102.459 305.167 100.818 304.944 99.0815C304.833 98.2151 304.828 97.3309 304.952 96.4551C305.107 95.5854 305.403 94.7388 305.866 93.9733C306.355 93.2255 306.991 92.5925 307.708 92.0786C308.441 91.587 309.239 91.213 310.066 90.9391C311.725 90.3935 313.461 90.2304 315.165 90.2068C318.585 90.184 321.92 90.7882 325.117 91.5857C328.315 92.3997 331.389 93.4421 334.335 94.6181C337.284 95.791 340.111 97.0867 342.813 98.4573C348.216 101.206 353.13 104.239 357.539 107.339C361.946 110.446 365.854 113.62 369.191 116.77C372.525 119.919 375.324 123.01 377.471 125.96C379.621 128.904 381.163 131.686 381.959 134.139C382.355 135.361 382.602 136.488 382.653 137.481C382.686 137.727 382.661 137.968 382.668 138.195C382.671 138.424 382.67 138.644 382.638 138.851C382.615 139.059 382.593 139.257 382.572 139.446C382.537 139.633 382.49 139.806 382.452 139.971C382.391 140.307 382.273 140.582 382.182 140.823L382.051 141.154L381.91 141.411C381.744 141.715 381.654 141.868 381.654 141.868Z" fill="#4A6CD1"/>
<path d="M388.968 125.043C388.968 125.043 388.978 124.865 389.004 124.52L389.026 124.229C389.028 124.122 389.015 124.004 389.01 123.876C388.996 123.62 388.994 123.323 388.916 122.993C388.884 122.828 388.858 122.651 388.814 122.467C388.759 122.287 388.697 122.099 388.637 121.9C388.583 121.699 388.496 121.5 388.405 121.292C388.308 121.086 388.234 120.859 388.106 120.647C387.668 119.763 386.994 118.833 386.148 117.875C384.452 115.951 381.94 114.017 378.809 112.173C375.676 110.321 371.891 108.596 367.592 107.026C363.291 105.455 358.453 104.089 353.188 102.978C347.923 101.874 342.221 101.028 336.183 100.636C333.164 100.442 330.063 100.367 326.899 100.453C323.736 100.533 320.507 100.788 317.258 101.299C314.019 101.822 310.731 102.58 307.621 103.937C306.079 104.623 304.562 105.45 303.276 106.584C302.636 107.151 302.061 107.795 301.595 108.516C301.151 109.249 300.827 110.054 300.676 110.905C300.556 111.76 300.612 112.627 300.808 113.465C301.031 114.296 301.376 115.086 301.812 115.826C302.682 117.307 303.872 118.568 305.127 119.703C307.667 121.966 310.56 123.712 313.48 125.223C316.411 126.723 319.401 127.973 322.385 129.038C325.368 130.107 328.34 131.005 331.269 131.764C337.131 133.277 342.812 134.252 348.158 134.847C353.506 135.435 358.528 135.646 363.101 135.496C367.671 135.345 371.799 134.888 375.347 134.105C378.891 133.329 381.876 132.275 384.081 130.975C385.181 130.329 386.106 129.656 386.795 128.953C386.983 128.791 387.122 128.598 387.278 128.433C387.43 128.264 387.572 128.102 387.685 127.926C387.804 127.756 387.922 127.596 388.029 127.442C388.127 127.281 388.206 127.121 388.287 126.974C388.464 126.684 388.556 126.403 388.649 126.163C388.693 126.043 388.742 125.935 388.773 125.833L388.841 125.551C388.923 125.215 388.968 125.043 388.968 125.043C388.968 125.043 388.936 125.217 388.861 125.555L388.798 125.841C388.768 125.945 388.72 126.053 388.678 126.175C388.587 126.416 388.497 126.699 388.323 126.992C388.243 127.141 388.162 127.303 388.066 127.466C387.959 127.621 387.844 127.785 387.726 127.956C387.614 128.133 387.47 128.298 387.318 128.468C387.163 128.635 387.024 128.831 386.838 128.994C386.147 129.705 385.221 130.388 384.119 131.042C381.911 132.358 378.924 133.427 375.372 134.215C371.818 135.01 367.682 135.477 363.103 135.637C358.525 135.797 353.499 135.596 348.142 135.013C342.787 134.425 337.096 133.453 331.223 131.943C328.289 131.186 325.311 130.288 322.321 129.219C319.33 128.154 316.332 126.904 313.39 125.399C310.461 123.884 307.554 122.132 304.995 119.852C303.727 118.706 302.528 117.435 301.639 115.928C301.196 115.175 300.845 114.367 300.615 113.514C300.414 112.654 300.351 111.756 300.476 110.872C300.63 109.992 300.967 109.162 301.425 108.408C301.904 107.668 302.492 107.011 303.143 106.433C304.454 105.281 305.984 104.446 307.541 103.754C310.676 102.387 313.977 101.629 317.227 101.103C320.487 100.593 323.724 100.34 326.893 100.261C330.065 100.178 333.172 100.256 336.194 100.451C342.242 100.851 347.949 101.702 353.222 102.815C358.493 103.935 363.336 105.311 367.639 106.893C371.943 108.474 375.73 110.21 378.864 112.075C382 113.933 384.511 115.882 386.205 117.823C387.051 118.791 387.723 119.728 388.16 120.619C388.286 120.833 388.357 121.062 388.454 121.269C388.546 121.479 388.633 121.68 388.685 121.885C388.744 122.085 388.802 122.276 388.857 122.458C388.898 122.642 388.924 122.82 388.955 122.987C389.031 123.319 389.029 123.618 389.041 123.875C389.044 124.003 389.055 124.123 389.052 124.231L389.024 124.522C388.991 124.867 388.968 125.043 388.968 125.043Z" fill="#4A6CD1"/>
<path d="M367.31 76.8469C367.31 76.8469 367.146 76.7778 366.832 76.6361L366.567 76.517L366.232 76.4131C365.987 76.3405 365.705 76.2419 365.37 76.2043C365.204 76.1799 365.029 76.1443 364.842 76.1231C364.654 76.116 364.457 76.1074 364.249 76.0993C364.043 76.0812 363.826 76.0952 363.6 76.1134C363.375 76.1356 363.136 76.1284 362.894 76.1767C361.917 76.2945 360.818 76.6169 359.634 77.0925C357.255 78.0467 354.591 79.769 351.804 82.1063C349.008 84.4423 346.111 87.4381 343.187 90.973C340.261 94.508 337.345 98.6203 334.526 103.223C331.712 107.828 328.995 112.935 326.588 118.51C325.389 121.298 324.271 124.204 323.283 127.224C322.291 130.242 321.44 133.38 320.822 136.623C320.221 139.863 319.821 143.227 320.045 146.627C320.167 148.317 320.432 150.029 321.063 151.629C321.38 152.425 321.789 153.185 322.306 153.87C322.845 154.537 323.491 155.116 324.239 155.546C325.001 155.947 325.836 156.185 326.687 156.284C327.542 156.353 328.402 156.295 329.242 156.133C330.926 155.808 332.509 155.111 333.999 154.308C336.98 152.671 339.596 150.524 341.999 148.276C344.397 146.009 346.58 143.604 348.584 141.144C350.597 138.686 352.44 136.178 354.142 133.665C357.539 128.634 360.373 123.592 362.736 118.738C365.093 113.881 366.987 109.205 368.388 104.833C369.79 100.46 370.755 96.402 371.218 92.7833C371.686 89.1708 371.704 85.9936 371.229 83.47C370.993 82.2121 370.672 81.1114 370.246 80.2209C370.158 79.9906 370.023 79.7939 369.921 79.5906C369.814 79.3896 369.712 79.1973 369.585 79.0325C369.466 78.8623 369.353 78.698 369.245 78.5441C369.127 78.3986 369.005 78.269 368.893 78.1433C368.68 77.8803 368.449 77.6936 368.254 77.5272L367.988 77.2977L367.744 77.1392C367.457 76.9491 367.31 76.8469 367.31 76.8469C367.31 76.8469 367.463 76.937 367.755 77.1223L368.002 77.2776L368.275 77.5031C368.471 77.6693 368.708 77.8524 368.923 78.115C369.035 78.2407 369.16 78.3699 369.279 78.5165C369.389 78.6716 369.504 78.8341 369.626 79.0038C369.754 79.1698 369.859 79.3616 369.968 79.5625C370.071 79.7655 370.21 79.9643 370.3 80.1957C370.735 81.089 371.062 82.1942 371.306 83.4562C371.794 85.9888 371.789 89.1751 371.329 92.7973C370.876 96.4255 369.919 100.495 368.523 104.876C367.128 109.259 365.241 113.944 362.888 118.812C360.527 123.675 357.693 128.727 354.296 133.769C352.592 136.286 350.747 138.801 348.733 141.266C346.725 143.733 344.538 146.146 342.134 148.419C339.723 150.677 337.099 152.833 334.094 154.483C332.592 155.295 330.993 156 329.28 156.33C328.423 156.495 327.544 156.555 326.667 156.483C325.793 156.384 324.93 156.138 324.143 155.723C323.37 155.279 322.702 154.681 322.148 153.995C321.617 153.29 321.198 152.513 320.876 151.703C320.235 150.076 319.97 148.345 319.845 146.641C319.621 143.215 320.025 139.836 320.629 136.586C321.249 133.332 322.105 130.188 323.101 127.163C324.091 124.138 325.214 121.226 326.418 118.435C328.834 112.853 331.56 107.744 334.384 103.135C337.214 98.5295 340.141 94.4181 343.078 90.8827C346.013 87.3488 348.921 84.354 351.729 82.0201C354.532 79.6858 357.21 77.9668 359.604 77.0199C360.796 76.5472 361.903 76.2291 362.886 76.1172C363.131 76.0698 363.37 76.0798 363.597 76.0587C363.825 76.043 364.041 76.029 364.249 76.0481C364.459 76.0588 364.656 76.0687 364.846 76.0783C365.033 76.1022 365.21 76.1375 365.376 76.1647C365.712 76.2062 365.996 76.3071 366.24 76.3842L366.577 76.4933L366.841 76.618C367.154 76.7669 367.31 76.8469 367.31 76.8469Z" fill="#4A6CD1"/>
<path d="M299.544 138.281C300.193 138.932 300.193 139.989 299.544 140.64C298.895 141.293 297.843 141.293 297.195 140.64C296.546 139.989 296.546 138.932 297.195 138.281C297.843 137.628 298.895 137.628 299.544 138.281Z" fill="#4A6CD1"/>
<path d="M393.296 83.4278C393.296 84.3491 392.552 85.097 391.634 85.097C390.716 85.097 389.972 84.3491 389.972 83.4278C389.972 82.5065 390.716 81.7585 391.634 81.7585C392.552 81.7585 393.296 82.5065 393.296 83.4278Z" fill="#4A6CD1"/>
<path d="M310.038 141.995C310.038 142.229 309.847 142.418 309.615 142.418C309.383 142.418 309.192 142.229 309.192 141.995C309.192 141.76 309.383 141.569 309.615 141.569C309.847 141.569 310.038 141.76 310.038 141.995Z" fill="#4A6CD1"/>
<path d="M319.05 95.2294C319.05 95.4628 318.861 95.6539 318.628 95.6539C318.394 95.6539 318.205 95.4628 318.205 95.2294C318.205 94.9946 318.394 94.8049 318.628 94.8049C318.861 94.8049 319.05 94.9946 319.05 95.2294Z" fill="#4A6CD1"/>
<path d="M384.949 117.96C384.949 118.193 384.759 118.384 384.526 118.384C384.294 118.384 384.104 118.193 384.104 117.96C384.104 117.725 384.294 117.535 384.526 117.535C384.759 117.535 384.949 117.725 384.949 117.96Z" fill="#4A6CD1"/>
<path d="M390.817 98.1884C390.817 98.4231 390.628 98.6129 390.396 98.6129C390.162 98.6129 389.972 98.4231 389.972 98.1884C389.972 97.955 390.162 97.7639 390.396 97.7639C390.628 97.7639 390.817 97.955 390.817 98.1884Z" fill="#4A6CD1"/>
<path d="M362.358 114.587H357.134V98.7398C357.134 94.0651 354.499 89.9964 350.644 87.9532C350.601 87.93 350.558 87.9082 350.515 87.8864C348.86 87.0347 346.986 86.5543 345.003 86.5543C340.98 86.5543 337.409 88.5292 335.201 91.5647C335.163 91.6179 335.125 91.6711 335.086 91.7244C333.689 93.7089 332.869 96.1301 332.869 98.7398L332.86 118.596L327.647 114.587V98.7398C327.647 89.1284 335.433 81.3091 345.003 81.3091C354.571 81.3091 362.358 89.1284 362.358 98.7398V102.813V102.963V113.16V113.394V114.587Z" fill="#4A6CD1"/>
<path d="M365.329 144.728H324.674C322.983 144.728 321.613 143.35 321.613 141.654V117.661C321.613 115.963 322.983 114.586 324.674 114.586H327.661H365.329C367.019 114.586 368.389 115.963 368.389 117.661V141.654C368.389 143.35 367.019 144.728 365.329 144.728Z" fill="#4A6CD1"/>
<path d="M346.068 135.362H343.935V129.49C342.297 129.022 341.092 127.525 341.092 125.73C341.092 123.561 342.844 121.803 345.003 121.803C347.161 121.803 348.911 123.561 348.911 125.73C348.911 127.525 347.706 129.022 346.068 129.49V135.362Z" fill="white"/>
<path d="M324.108 141.868C324 141.868 323.914 136.841 323.914 130.642C323.914 124.442 324 119.416 324.108 119.416C324.216 119.416 324.301 124.442 324.301 130.642C324.301 136.841 324.216 141.868 324.108 141.868Z" fill="#FAF9F7"/>
<path d="M341.938 130.764C341.926 130.783 341.756 130.704 341.481 130.503C341.205 130.305 340.838 129.965 340.474 129.471C339.743 128.51 339.076 126.766 339.509 124.883C339.963 123.003 341.339 121.743 342.42 121.214C342.967 120.937 343.445 120.799 343.779 120.746C344.115 120.691 344.305 120.695 344.308 120.718C344.324 120.792 343.566 120.863 342.552 121.455C341.553 122.022 340.304 123.235 339.887 124.971C339.486 126.71 340.06 128.359 340.7 129.314C341.341 130.3 341.985 130.705 341.938 130.764Z" fill="#FAF9F7"/>
<path d="M414.449 197.556H270.425C263.433 197.556 257.764 191.862 257.764 184.838V183.273C257.764 176.249 263.433 170.556 270.425 170.556H414.449C421.443 170.556 427.111 176.249 427.111 183.273V184.838C427.111 191.862 421.443 197.556 414.449 197.556Z" fill="#F2F1EE"/>
<path d="M415.695 234.577H271.671C264.678 234.577 259.01 228.884 259.01 221.86V220.295C259.01 213.271 264.678 207.577 271.671 207.577H415.695C422.689 207.577 428.354 213.271 428.354 220.295V221.86C428.354 228.884 422.689 234.577 415.695 234.577Z" fill="#F2F1EE"/>
<path d="M47.1334 600.61H34.9665L30.4561 545.602H44.7824L47.1334 600.61Z" fill="#0D151D"/>
<path d="M152.577 600.61H164.743L169.254 545.602H154.927L152.577 600.61Z" fill="#0D151D"/>
<path d="M177.616 552.567L21.0121 556.259L16.2462 454.669C15.78 444.723 23.6838 436.402 33.5989 436.402H167.026C177.093 436.402 185.054 444.97 184.357 455.057L177.616 552.567Z" fill="#4A6CD1"/>
<path d="M185.645 454.323C185.645 454.335 185.497 454.347 185.209 454.36C184.881 454.369 184.457 454.383 183.924 454.399C182.749 454.415 181.095 454.441 178.989 454.473C174.654 454.488 168.463 454.511 160.834 454.538C145.506 454.564 124.329 454.391 100.955 454.935C77.5685 455.716 56.3725 455.582 41.0474 455.349C33.3828 455.228 27.1818 455.077 22.8983 454.948C20.7932 454.875 19.1407 454.818 17.9652 454.779C17.4325 454.753 17.0098 454.732 16.6823 454.716C16.3942 454.698 16.2461 454.683 16.2461 454.669C16.2461 454.657 16.3942 454.649 16.6837 454.642C17.0112 454.642 17.4352 454.639 17.9679 454.637C19.1434 454.643 20.7973 454.656 22.9037 454.672C27.2375 454.713 33.4263 454.773 41.0542 454.847C56.3807 454.952 77.5535 455.005 100.937 454.226C124.329 453.68 145.509 453.934 160.836 454.036C168.465 454.103 174.654 454.158 178.989 454.196C181.095 454.222 182.749 454.242 183.924 454.254C184.457 454.268 184.88 454.279 185.209 454.287C185.497 454.299 185.645 454.309 185.645 454.323Z" fill="#0D151D"/>
<path d="M73.371 437.989C73.4145 438.227 68.4637 438.313 63.2032 441.054C57.9032 443.725 54.9297 447.7 54.7639 447.526C54.7014 447.479 55.3442 446.432 56.7045 444.998C58.0567 443.565 60.1917 441.804 62.8811 440.422C65.5732 439.047 68.2463 438.343 70.1951 438.085C72.1506 437.819 73.371 437.913 73.371 437.989Z" fill="#0D151D"/>
<path d="M137.781 253.285L156.927 288.406C156.927 288.406 161.061 295.28 162.14 302.577C163.071 308.876 161.205 315.663 158.619 316.548C153.037 318.456 142.466 318.804 136.421 311.208C130.917 304.293 114.9 267.976 114.9 267.976L137.781 253.285Z" fill="#FBA585"/>
<path d="M207.356 521.1C207.402 521.099 207.447 520.635 207.318 519.807C207.182 518.986 206.846 517.786 206.016 516.515C205.803 516.206 205.591 515.87 205.24 515.565C204.908 515.262 204.335 515.03 203.783 515.235C203.507 515.324 203.234 515.576 203.138 515.886C203.034 516.2 203.086 516.511 203.168 516.764C203.348 517.284 203.619 517.655 203.846 518.085C204.351 518.939 204.768 519.79 205.414 520.752C205.74 521.243 206.474 521.65 207.144 521.534C207.803 521.451 208.336 521.129 208.815 520.79C209.746 520.112 210.566 519.341 211.271 518.518C211.623 518.107 211.944 517.682 212.239 517.252C212.515 516.825 212.842 516.393 212.966 515.799C213.091 515.226 212.875 514.474 212.228 514.214C211.571 513.977 211.037 514.307 210.672 514.568C209.93 515.186 209.484 515.821 209.032 516.435C208.17 517.659 207.693 518.784 207.424 519.567C207.16 520.358 207.098 520.815 207.144 520.828C207.277 520.883 207.719 519.061 209.469 516.758C209.904 516.214 210.444 515.549 211.046 515.088C211.353 514.867 211.737 514.725 211.97 514.843C212.216 514.931 212.352 515.301 212.271 515.658C212.194 516.025 211.918 516.42 211.634 516.831C211.349 517.236 211.039 517.635 210.702 518.021C210.026 518.793 209.242 519.525 208.366 520.162C207.944 520.468 207.484 520.719 207.057 520.771C206.628 520.824 206.289 520.654 206.006 520.284C205.47 519.5 204.955 518.531 204.459 517.726C204.221 517.306 203.934 516.898 203.81 516.547C203.679 516.177 203.752 515.939 204.007 515.834C204.597 515.591 205.171 516.26 205.569 516.828C207.227 519.188 207.206 521.148 207.356 521.1Z" fill="#0D151D"/>
<path d="M173.96 522.248L157.377 558.342L130.619 545.926L147.769 501.255L173.96 522.248Z" fill="#FBA585"/>
<path d="M160.511 555.934L150.822 574.488C150.822 574.488 175.621 600.242 173.292 606L114.992 577.926L131.009 540.708L160.511 555.934Z" fill="#283C46"/>
<path d="M173.292 606C173.629 605.167 173.399 603.919 172.759 602.389C173.288 603.168 174.144 604.766 173.292 606Z" fill="#FEFEFE"/>
<path d="M173.292 606L164.462 601.747L114.992 577.926L117.418 573.257L172.409 601.919C172.409 601.919 172.561 602.095 172.759 602.387C173.4 603.917 173.629 605.167 173.292 606Z" fill="#A4AFAA"/>
<path d="M151.909 574.644C151.764 574.925 150.277 574.371 148.437 574.616C146.591 574.812 145.279 575.704 145.069 575.464C144.834 575.281 146.076 573.777 148.309 573.519C150.538 573.242 152.097 574.412 151.909 574.644Z" fill="#0D151D"/>
<path d="M156.812 580.13C156.744 580.438 155.279 580.331 153.734 581.075C152.168 581.772 151.3 582.963 151.023 582.814C150.733 582.731 151.335 580.96 153.273 580.073C155.202 579.168 156.936 579.855 156.812 580.13Z" fill="#0D151D"/>
<path d="M156.774 589.152C156.488 589.088 156.773 587.471 158.252 586.256C159.722 585.032 161.358 585.06 161.366 585.356C161.414 585.669 160.149 586.093 158.95 587.108C157.728 588.094 157.071 589.26 156.774 589.152Z" fill="#0D151D"/>
<path d="M154.69 567.497C154.445 567.7 153.328 566.677 151.666 566.012C150.019 565.312 148.508 565.252 148.476 564.935C148.41 564.65 150.138 564.179 152.086 564.991C154.037 565.787 154.937 567.34 154.69 567.497Z" fill="#0D151D"/>
<path d="M165.973 551.116L209.683 441.251C209.683 441.251 208.702 422.506 205.264 416.587C201.826 410.667 97.6982 376.136 97.6982 376.136C97.6982 376.136 71.1751 369.723 53.4935 376.136C35.8118 382.548 22.5496 404.747 25.0053 417.08C27.4609 429.411 37.8258 438.471 37.8258 438.471L114.397 440.757L156.134 456.049L128.028 536.949L165.973 551.116Z" fill="#0D151D"/>
<path d="M204.852 476.04L205.837 515.78L176.369 516.505L172.124 468.816L204.852 476.04Z" fill="#FBA585"/>
<path d="M207.59 512.23L207.053 533.176C207.053 533.176 240.625 545.288 241.067 551.486L176.414 552.144L174.426 511.648L207.59 512.23Z" fill="#283C46"/>
<path d="M187.033 530.564C185.785 530.92 184.934 532.342 185.237 533.609C185.54 534.877 186.971 535.757 188.226 535.423C189.479 535.088 190.554 533.412 190.111 532.188C189.669 530.963 187.928 530.022 186.792 530.649" fill="#D9D9D1"/>
<path d="M241.067 551.486C241.003 550.591 240.249 549.573 239.006 548.486C239.824 548.952 241.287 550.004 241.067 551.486Z" fill="#FEFEFE"/>
<path d="M176.412 552.144L176.538 546.881L238.479 548.218C238.479 548.218 238.695 548.31 239.004 548.486C240.247 549.572 241.003 550.591 241.067 551.486L177.645 552.131L176.412 552.144Z" fill="#A4AFAA"/>
<path d="M208.097 532.834C208.09 533.15 206.513 533.31 204.97 534.346C203.401 535.34 202.614 536.722 202.322 536.599C202.029 536.541 202.482 534.641 204.372 533.419C206.25 532.183 208.164 532.542 208.097 532.834Z" fill="#0D151D"/>
<path d="M214.907 535.581C214.982 535.888 213.619 536.441 212.56 537.792C211.462 539.114 211.207 540.567 210.891 540.556C210.596 540.608 210.36 538.753 211.708 537.099C213.041 535.431 214.898 535.28 214.907 535.581Z" fill="#0D151D"/>
<path d="M218.841 543.694C218.554 543.762 218.099 542.183 218.892 540.439C219.672 538.689 221.155 537.989 221.291 538.251C221.472 538.51 220.522 539.452 219.894 540.895C219.231 542.321 219.153 543.658 218.841 543.694Z" fill="#0D151D"/>
<path d="M207.452 525.187C207.323 525.477 205.868 525.054 204.085 525.195C202.3 525.298 200.918 525.913 200.751 525.644C200.564 525.416 201.908 524.228 204.011 524.093C206.112 523.942 207.604 524.935 207.452 525.187Z" fill="#0D151D"/>
<path d="M187.644 365.713C187.644 365.713 205.299 364.295 207.264 383.534C209.228 402.773 211.157 492.554 211.157 492.554L169.899 496.005L163.514 404.254L97.6992 376.138C97.6992 376.138 175.855 363.246 187.644 365.713Z" fill="#0D151D"/>
<path d="M114.873 339.752C114.873 339.752 125.587 369.922 123.547 373.285C121.506 376.648 93.9526 390.485 93.9526 390.485L25.0064 417.079C25.0064 417.079 17.9248 405.766 17.9248 388.389C17.9248 371.011 41.9066 339.752 41.9066 339.752H114.873Z" fill="#0D151D"/>
<path d="M94.4366 374.597C94.4326 374.608 94.5413 374.666 94.7601 374.771C95.0115 374.889 95.3349 375.038 95.7385 375.226C96.6477 375.633 97.9238 376.203 99.5573 376.932C102.942 378.413 107.804 380.541 113.889 383.204C126.186 388.52 143.424 395.972 163.369 404.595L163.146 404.28C163.772 413.342 164.448 423.131 165.147 433.259C166.824 456.931 168.37 478.758 169.593 496.027L169.615 496.34L169.925 496.313C182.474 495.207 192.771 494.299 199.983 493.663C203.528 493.33 206.311 493.07 208.258 492.887C209.173 492.791 209.891 492.716 210.421 492.662C210.909 492.606 211.159 492.569 211.158 492.554C211.156 492.537 210.903 492.543 210.413 492.569C209.882 492.602 209.163 492.647 208.243 492.705C206.294 492.85 203.504 493.055 199.953 493.315C192.738 493.887 182.432 494.703 169.873 495.7L170.206 495.985C169.025 478.711 167.533 456.882 165.915 433.204C165.205 423.079 164.519 413.291 163.883 404.228L163.867 404.001L163.66 403.913C143.671 395.39 126.396 388.027 114.072 382.772C107.95 380.195 103.061 378.136 99.6565 376.701C98.0026 376.019 96.7102 375.487 95.7888 375.107C95.3743 374.943 95.0455 374.812 94.7859 374.711C94.5589 374.627 94.4407 374.586 94.4366 374.597Z" fill="#283C46"/>
<path d="M39.6048 377.614C39.6225 377.665 40.3102 377.472 41.54 377.083C42.9085 376.64 44.6507 376.076 46.7313 375.403C51.1113 374.007 57.1886 372.064 64.1044 370.993C71.0203 369.922 77.4197 370.254 81.8893 371.223C86.3794 372.156 88.9601 373.443 89.0171 373.297C89.0362 373.258 88.411 372.904 87.2233 372.387C86.0369 371.864 84.2635 371.232 82.0062 370.69C77.5053 369.567 70.9904 369.143 63.9889 370.229C56.9902 371.311 50.902 373.355 46.5574 374.885C44.383 375.66 42.6381 376.325 41.4395 376.8C40.2408 377.277 39.5872 377.565 39.6048 377.614Z" fill="#283C46"/>
<path d="M49.3488 361.711C49.3678 361.832 51.6576 361.385 55.3772 361.676C57.2335 361.807 59.4432 362.093 61.903 362.378C64.36 362.672 67.0562 363.005 69.8475 363.536C75.4492 364.538 80.2681 366.496 83.3571 368.568C86.4746 370.606 87.9341 372.465 88.0415 372.358C88.0714 372.334 87.7561 371.837 87.0399 371.056C86.3251 370.28 85.2175 369.203 83.6615 368.115C80.5902 365.881 75.6612 363.787 69.9902 362.776C67.1635 362.238 64.4456 361.925 61.9804 361.67C59.5166 361.424 57.2933 361.192 55.4057 361.131C53.5208 361.063 51.9879 361.171 50.9442 361.33C49.8991 361.49 49.3392 361.665 49.3488 361.711Z" fill="#283C46"/>
<path d="M93.5424 131.501L61.9014 138.232C58.841 138.437 56.4452 140.961 56.3867 144.041L56.7672 212.811C56.7931 217.509 58.3599 222.068 61.226 225.78L64.2429 229.689C71.1234 238.6 85.0597 237.702 90.3149 227.737C90.6818 227.041 90.9359 226.431 91.0433 225.938C91.1493 225.319 91.3137 224.911 91.3423 224.385L91.9443 217.681C92.2528 211.557 92.2949 205.336 92.2963 205.393C92.2963 205.393 105.245 203.75 108.562 186.993C110.212 178.661 110.324 164.898 110.054 153.633C109.809 143.495 103.618 130.825 93.5424 131.501Z" fill="#FBA585"/>
<path d="M92.3821 201.172C92.3821 201.172 80.0847 201.419 69.1572 194.229C69.1572 194.229 72.1008 203.185 77.803 206.445C81.1814 208.377 85.84 209.806 92.113 209.462L92.3821 201.172Z" fill="#FB7E53"/>
<path d="M140.402 253.969C140.402 253.969 128.07 233.314 124.648 229.138C121.439 225.222 117.304 222.912 114.545 221.699C113.009 221.025 111.395 220.561 109.744 220.273L92.0079 216.328C92.0079 216.328 91.9766 228.487 79.2933 229.239C66.6087 229.991 55.9285 212.245 55.9285 212.245C55.9285 212.245 35.4365 215.427 30.5333 217.961C25.6301 220.494 17.9261 223.711 13.6861 245.034L10.71 265.895L46.0419 269.175L49.4231 321.906L66.9457 334.16C66.9457 334.16 115.525 346.846 118.629 347.684C121.733 348.524 122.76 269.175 122.76 269.175C122.76 269.175 135.238 261.073 140.402 253.969Z" fill="#0D151D"/>
<path d="M117.148 245.1C117.194 245.082 117.433 245.624 117.83 246.62C118.234 247.614 118.749 249.08 119.322 250.91C120.473 254.569 121.736 259.743 122.45 265.565C123.156 271.391 123.172 276.718 122.934 280.548C122.817 282.464 122.671 284.009 122.517 285.071C122.372 286.134 122.268 286.719 122.219 286.713C122.17 286.708 122.181 286.113 122.243 285.047C122.31 283.979 122.382 282.434 122.434 280.526C122.544 276.713 122.446 271.432 121.748 265.652C121.038 259.874 119.864 254.728 118.842 251.052C118.334 249.213 117.894 247.73 117.57 246.712C117.255 245.691 117.102 245.116 117.148 245.1Z" fill="#283C46"/>
<path d="M49.202 316.93L46.0437 269.345L12.7217 266.428C12.7217 266.428 13.817 299.076 14.9545 308.78C16.5907 322.74 26.9257 341.387 33.0098 345.509C34.1785 346.3 39.8454 339.3 42.7931 331.782C45.9513 323.728 49.202 316.93 49.202 316.93Z" fill="#FBA585"/>
<path d="M93.5365 120.493C85.9475 117.77 78.544 119.565 71.1761 122.809C63.8079 126.055 57.6759 131.84 53.5118 138.744C49.1274 146.016 46.8562 154.673 47.7722 163.131C48.6883 171.59 52.9257 179.77 59.7135 184.889C68.983 191.879 82.3097 192.386 92.6176 187.109C102.924 181.83 110.123 171.351 112.557 159.999C114.234 152.179 113.763 143.789 110.516 136.472C107.268 129.154 101.116 123.022 93.5365 120.493Z" fill="#0D151D"/>
<path d="M66.6543 143.162C68.3218 140.369 68.4649 136.943 69.4714 133.847C71.6903 127.029 78.2941 122.419 85.2751 120.849C91.7705 119.388 99.0646 121.257 105.941 124.916C110.655 127.423 114.863 131.082 117.484 135.743C120.961 141.928 121.187 149.831 118.066 156.191L83.2638 144.627C79.4355 146.803 75.5197 149.014 71.193 149.839C69.9232 150.081 68.5849 150.193 67.3624 149.769C66.1398 149.345 65.0668 148.272 64.9849 146.978C64.8964 145.565 65.9299 144.376 66.6543 143.162Z" fill="#0D151D"/>
<path d="M104.955 134.956L72.5963 136.029C69.5432 135.694 66.7467 137.757 66.1593 140.778L58.5478 186.524C62.54 192.191 73.4974 199.741 79.0528 203.207C83.8408 206.194 91.0226 207.422 91.0188 207.452C91.0188 207.452 104.07 208.106 110.222 192.199C113.282 184.289 115.76 170.765 117.43 159.633C118.933 149.613 115.006 136.059 104.955 134.956Z" fill="#FBA585"/>
<path d="M110.44 171.468C110.24 172.592 109.125 173.346 107.949 173.155C106.777 172.965 105.986 171.899 106.186 170.774C106.386 169.651 107.502 168.896 108.674 169.087C109.849 169.278 110.641 170.345 110.44 171.468Z" fill="#0D151D"/>
<path d="M113 165.955C112.68 166.174 111.339 164.642 109.071 164.154C106.812 163.633 104.897 164.439 104.711 164.107C104.617 163.958 104.989 163.519 105.827 163.148C106.654 162.778 107.979 162.533 109.39 162.847C110.801 163.161 111.875 163.941 112.443 164.623C113.024 165.311 113.156 165.86 113 165.955Z" fill="#0D151D"/>
<path d="M90.0806 167.331C89.8813 168.456 88.7661 169.21 87.5909 169.019C86.4186 168.827 85.6277 167.764 85.8283 166.64C86.0274 165.517 87.1429 164.761 88.3154 164.952C89.4906 165.143 90.2813 166.207 90.0806 167.331Z" fill="#0D151D"/>
<path d="M91.4325 161.562C91.1116 161.779 89.7684 160.249 87.5018 159.76C85.2434 159.24 83.33 160.046 83.1437 159.714C83.0498 159.565 83.4192 159.126 84.2598 158.755C85.0865 158.385 86.4118 158.14 87.823 158.453C89.2337 158.768 90.3092 159.548 90.8774 160.23C91.4571 160.917 91.5873 161.467 91.4325 161.562Z" fill="#0D151D"/>
<path d="M95.2169 180.194C95.2344 180.062 96.6976 180.126 99.0486 180.332C99.6414 180.398 100.214 180.403 100.398 180.028C100.625 179.638 100.515 178.959 100.38 178.223C100.138 176.697 99.8847 175.101 99.6177 173.425C98.5915 166.609 97.9822 161.055 98.2559 161.016C98.5295 160.977 99.5851 166.471 100.611 173.289C100.85 174.966 101.079 176.565 101.296 178.096C101.374 178.804 101.591 179.635 101.107 180.441C100.857 180.841 100.363 181.064 99.9697 181.083C99.5738 181.116 99.2464 181.051 98.9557 181.005C96.6278 180.627 95.1981 180.325 95.2169 180.194Z" fill="#0D151D"/>
<path d="M93.0773 185.482C92.4951 184.223 91.1925 183.316 89.7408 183.16C88.7339 183.05 87.6391 183.309 86.8684 183.982C86.0976 184.654 85.7261 185.769 86.106 186.653C86.5326 187.649 87.768 188.126 88.9156 188.055C90.0648 187.983 91.1499 187.471 92.1878 186.953C92.474 186.809 92.7692 186.66 92.9793 186.422C93.1902 186.187 93.2977 185.841 93.1575 185.577" fill="#FB7E53"/>
<path d="M88.202 180.323C88.5756 180.382 88.0489 182.851 89.7801 185.061C91.5045 187.279 94.1903 187.575 94.1349 187.924C94.1356 188.086 93.4476 188.276 92.3341 188.065C91.239 187.866 89.7281 187.169 88.6689 185.816C87.6142 184.461 87.3692 182.907 87.5024 181.876C87.6296 180.825 88.0368 180.273 88.202 180.323Z" fill="#0D151D"/>
<path d="M92.4991 154.741C92.1429 155.309 89.9422 154.523 87.2145 154.263C84.4906 153.951 82.1794 154.262 81.946 153.631C81.8463 153.333 82.3452 152.833 83.34 152.425C84.3282 152.015 85.8201 151.748 87.455 151.918C89.0894 152.091 90.4966 152.664 91.3802 153.27C92.2721 153.876 92.6585 154.469 92.4991 154.741Z" fill="#0D151D"/>
<path d="M114.488 155.863C113.978 156.291 112.533 155.415 110.66 154.981C108.803 154.481 107.118 154.57 106.867 153.951C106.763 153.655 107.124 153.192 107.924 152.856C108.713 152.519 109.945 152.371 111.227 152.692C112.508 153.014 113.525 153.726 114.065 154.396C114.616 155.07 114.718 155.65 114.488 155.863Z" fill="#0D151D"/>
<path d="M61.7704 137.34C66.6684 128.394 83.0554 117.934 92.8917 120.612L106.947 133.348C104.92 138.595 99.8051 142.499 94.2184 143.062C91.2345 143.362 87.7978 142.925 85.6497 145.019C83.4567 147.158 83.7501 150.965 81.6596 153.204C78.7616 156.31 72.7658 154.944 70.3632 158.447C69.3139 159.977 69.2995 162.052 68.2229 163.565C66.7879 165.579 60.6508 167.274 58.4818 166.081C56.3144 164.887 57.0785 160.941 56.7255 158.724C56.1236 154.935 57.0137 153.209 57.8244 151.32C59.7443 146.847 59.4334 141.607 61.7704 137.34Z" fill="#0D151D"/>
<path d="M64.914 169.435C65.1742 168.208 64.3809 165.006 63.2123 164.553C60.0923 163.343 54.2166 162.332 52.3954 170.539C49.9073 181.756 61.6574 181.974 61.7488 181.656C61.8211 181.409 64.0131 173.674 64.914 169.435Z" fill="#FBA585"/>
<path d="M59.274 176.638C59.2323 176.591 59.049 176.731 58.687 176.809C58.3326 176.883 57.7561 176.859 57.2215 176.509C56.1346 175.808 55.5572 173.702 55.9515 171.668C56.1493 170.639 56.5789 169.716 57.1188 168.992C57.6427 168.248 58.2985 167.794 58.9184 167.823C59.5411 167.818 59.8838 168.27 59.9503 168.617C60.0318 168.965 59.9099 169.172 59.9652 169.204C59.9893 169.24 60.2471 169.07 60.2598 168.586C60.2633 168.353 60.1903 168.059 59.9758 167.784C59.755 167.505 59.3849 167.304 58.9595 167.255C58.083 167.121 57.1295 167.744 56.536 168.538C55.8952 169.325 55.3886 170.357 55.166 171.512C54.7362 173.789 55.421 176.166 56.9355 176.999C57.6773 177.381 58.3883 177.292 58.7861 177.103C59.1941 176.905 59.3089 176.667 59.274 176.638Z" fill="#FB7E53"/>
<path d="M59.9044 134.012C60.5588 130.48 56.5545 127.383 53.2563 125.97C49.9592 124.558 46.1412 124.957 42.7474 126.107C40.7622 126.778 38.6912 127.869 37.9319 129.827C37.1713 131.784 38.6982 134.549 40.7587 134.167C36.8318 134.778 34.0865 139.403 35.4192 143.162C36.7519 146.921 41.798 148.784 45.2323 146.786C43.6999 149.854 41.0865 152.365 37.9633 153.769C43.6229 155.632 50.2197 154.242 54.6417 150.26C59.0641 146.276 61.1456 139.852 59.9044 134.012Z" fill="#0D151D"/>
<path d="M48.9175 150.602C48.8349 150.6 48.7578 149.262 49.089 147.131C49.4137 145.005 50.2455 142.099 51.8176 139.198C53.399 136.3 55.3844 134.025 56.9887 132.6C58.5946 131.167 59.7562 130.51 59.8025 130.578C59.9847 130.761 55.5399 133.847 52.4839 139.563C49.349 145.233 49.1709 150.656 48.9175 150.602Z" fill="#4A6CD1"/>
<path d="M104.23 129.309C104.464 134.098 110.417 141.246 112.855 145.376C117.509 153.257 118.265 155.733 115.535 171.015C119.22 166.225 122.239 161.426 123.068 155.43C123.898 149.434 122.751 143.074 119.367 138.051C115.983 133.028 110.268 129.502 104.23 129.309Z" fill="#0D151D"/>
<path d="M150.211 352.449C149.65 353.326 148.619 353.825 147.596 353.626C147.394 353.587 147.183 353.525 146.969 353.429C145.555 352.803 146.003 349.828 146.003 349.828L139.107 347.934C139.107 347.934 129.372 352.864 125.72 356.429C122.068 359.995 114.118 355.948 114.118 355.948L105.928 344.137L126.938 330.313C126.938 330.313 126.071 330.927 127.19 328.832C128.308 326.735 132.279 327.995 132.279 327.995C133.024 326.978 135.714 326.872 135.714 326.872L146.904 329.384C149.209 329.901 151.159 331.438 152.207 333.562L156.205 341.673C156.205 341.673 158.164 347.416 157.626 348.644C156.811 350.5 154.831 349.857 154.831 349.857C154.831 349.857 153.899 353.396 152.944 353.421C151.988 353.447 150.211 352.449 150.211 352.449Z" fill="#FBA585"/>
<path d="M127.225 339.121C127.225 339.24 128.746 339.259 131.153 339.621C133.553 339.996 136.849 340.776 140.215 342.338C141.897 343.111 143.432 343.991 144.766 344.884C146.054 345.803 147.416 346.587 147.75 347.634C147.919 348.147 147.769 348.634 147.486 348.975C147.208 349.314 146.856 349.521 146.556 349.61C145.935 349.792 145.568 349.581 145.547 349.648C145.518 349.661 145.866 349.998 146.619 349.883C146.983 349.825 147.417 349.633 147.791 349.245C148.17 348.878 148.438 348.179 148.243 347.495C148.067 346.806 147.558 346.235 147 345.749C146.426 345.279 145.824 344.796 145.142 344.332C143.8 343.387 142.238 342.468 140.516 341.677C137.071 340.078 133.672 339.36 131.217 339.112C128.75 338.876 127.221 339.04 127.225 339.121Z" fill="#FB7E53"/>
<path d="M125.682 346.285C125.673 346.502 130.299 346.796 135.924 347.726C141.554 348.638 146.035 349.832 146.095 349.625C146.121 349.532 145.031 349.117 143.222 348.599C141.412 348.078 138.877 347.475 136.04 347.01C133.204 346.548 130.611 346.309 128.731 346.225C126.85 346.141 125.686 346.19 125.682 346.285Z" fill="#FB7E53"/>
<path d="M150.173 352.15C150.212 352.146 150.307 351.734 150.442 350.955C150.571 350.176 150.736 349.048 150.795 347.628C150.821 346.92 150.826 346.138 150.718 345.291C150.626 344.442 150.322 343.526 149.864 342.698C149.005 341.04 147.753 339.284 146.073 337.888C144.398 336.506 142.704 335.312 140.941 334.566C139.191 333.825 137.516 333.511 136.126 333.301C134.73 333.102 133.599 333.013 132.817 332.96C132.035 332.909 131.6 332.905 131.594 332.954C131.578 333.07 133.303 333.312 136.04 333.807C137.401 334.081 139.021 334.441 140.676 335.183C142.319 335.91 143.983 337.105 145.601 338.441C147.221 339.794 148.394 341.405 149.276 343.017C150.222 344.567 150.255 346.232 150.282 347.62C150.268 350.398 150.017 352.137 150.173 352.15Z" fill="#FB7E53"/>
<path d="M135.958 329.8C135.946 329.908 137.636 330.132 140.31 330.732C142.874 331.411 147.025 332.044 149.025 335.9C151.258 339.45 153.124 342.779 153.817 345.418C154.569 348.047 154.297 349.782 154.447 349.784C154.485 349.789 154.594 349.369 154.637 348.588C154.686 347.807 154.637 346.66 154.313 345.291C153.722 342.519 151.883 339.077 149.637 335.507C149.063 334.609 148.431 333.748 147.668 333.042C146.909 332.322 145.987 331.852 145.133 331.503C143.399 330.807 141.773 330.485 140.412 330.228C137.681 329.751 135.966 329.707 135.958 329.8Z" fill="#FB7E53"/>
<path d="M128.452 354.268C128.465 354.286 128.713 354.134 129.177 353.824C129.703 353.485 130.384 353.046 131.233 352.499C133.04 351.379 135.718 349.798 139.211 348.149L139.047 348.163C141.101 348.743 143.419 349.396 145.929 350.103L145.721 349.78C145.644 350.353 145.619 350.918 145.671 351.513C145.73 352.098 145.846 352.735 146.29 353.29C146.523 353.561 146.876 353.744 147.176 353.815C147.48 353.929 147.816 353.996 148.157 353.979C148.835 353.953 149.502 353.666 150.002 353.196C150.13 353.081 150.242 352.949 150.35 352.812L150.426 352.706L150.463 352.654L150.481 352.626L150.484 352.625C150.578 352.599 149.672 352.825 150.056 352.73L150.064 352.734L150.078 352.742L150.29 352.855C150.574 353.004 150.865 353.144 151.163 353.272C151.462 353.403 151.77 353.522 152.098 353.617C152.264 353.664 152.432 353.705 152.614 353.728C152.783 353.753 152.988 353.78 153.276 353.671C153.7 353.43 153.877 353.111 154.059 352.814C154.233 352.509 154.38 352.2 154.508 351.884C154.77 351.253 154.977 350.614 155.166 349.943L154.727 350.183C155.619 350.44 156.714 350.334 157.432 349.567C157.756 349.21 158.039 348.754 158.062 348.203C158.09 347.708 158.024 347.264 157.955 346.815C157.644 345.039 157.122 343.311 156.548 341.554L156.542 341.533L156.529 341.51C155.85 340.13 155.128 338.666 154.398 337.184C153.945 336.262 153.493 335.35 153.046 334.443C152.594 333.561 152.207 332.585 151.528 331.765C150.878 330.95 150.064 330.28 149.163 329.802C148.27 329.297 147.243 329.086 146.337 328.893C142.629 328.071 139.094 327.287 135.788 326.555L135.742 326.546L135.704 326.549C135.036 326.592 134.407 326.679 133.78 326.844C133.168 327.019 132.519 327.22 132.035 327.811L132.441 327.729C131.293 327.11 129.905 326.957 128.783 327.547C127.655 328.131 127.052 329.205 126.684 330.232L126.784 330.092C122.729 333.042 119.419 335.448 117.051 337.17C115.958 337.986 108.205 342.126 107.545 342.618C106.95 343.075 106.642 343.324 106.658 343.345C106.673 343.367 107.011 343.159 107.636 342.746C108.317 342.284 116.097 338.182 117.225 337.416C119.626 335.743 122.984 333.401 127.097 330.532L127.163 330.487L127.197 330.394C127.532 329.489 128.118 328.512 129.044 328.065C129.95 327.583 131.164 327.73 132.125 328.258L132.361 328.387L132.53 328.176C132.812 327.824 133.379 327.596 133.939 327.454C134.506 327.31 135.126 327.228 135.731 327.195L135.648 327.187C138.95 327.937 142.48 328.741 146.185 329.583C147.13 329.79 148.013 329.973 148.829 330.434C149.643 330.87 150.378 331.477 150.966 332.215C151.567 332.933 151.931 333.85 152.396 334.763C152.843 335.67 153.294 336.585 153.747 337.505C154.479 338.987 155.201 340.451 155.882 341.831L155.864 341.788C156.431 343.506 156.953 345.24 157.254 346.93C157.322 347.35 157.379 347.779 157.358 348.154C157.362 348.481 157.162 348.812 156.924 349.081C156.456 349.616 155.616 349.71 154.938 349.524L154.591 349.428L154.498 349.764C154.325 350.397 154.122 351.03 153.88 351.623C153.651 352.185 153.323 352.863 152.989 353.065C152.972 353.071 152.848 353.096 152.7 353.066C152.564 353.051 152.419 353.015 152.276 352.977C151.988 352.897 151.701 352.787 151.42 352.668C151.137 352.549 150.859 352.418 150.588 352.278L150.389 352.173L150.377 352.165L150.372 352.163C150.755 352.067 149.846 352.292 149.94 352.271L149.937 352.273L149.924 352.294L149.895 352.337L149.835 352.423L149.563 352.724C149.17 353.102 148.65 353.326 148.131 353.349C147.869 353.367 147.616 353.315 147.365 353.223C147.089 353.155 146.911 353.055 146.752 352.886C146.157 352.117 146.19 350.861 146.29 349.868L146.315 349.609L146.081 349.546C143.561 348.871 141.236 348.251 139.173 347.7L139.084 347.676L139.009 347.713C135.508 349.436 132.866 351.087 131.09 352.278C130.206 352.882 129.539 353.371 129.098 353.717C128.659 354.062 128.438 354.25 128.452 354.268Z" fill="#FB7E53"/>
<path d="M47.8617 318.13C46.4688 317.553 39.6652 315.632 31.8406 322.68C24.1562 329.601 28.0481 343.514 29.3352 345.107C30.6223 346.7 47.5342 349.178 47.5342 349.178L114.068 356.282L112.621 339.816C112.621 339.816 49.2546 318.707 47.8617 318.13Z" fill="#FCA586"/>
<path d="M189.811 336.958L172.732 309.513C172.732 309.513 164.884 296.958 155.898 296.657C147.502 296.377 143.392 303.298 143.52 305.768C143.584 307.002 143.789 310.962 145.092 313.113C145.716 314.143 186.351 350.634 186.351 350.634L189.811 336.958Z" fill="#FCA586"/>
<path d="M233.663 366.428C234.254 365.896 234.525 365.09 234.377 364.308L231.85 351.037C231.609 349.875 230.886 348.87 229.861 348.275L185.899 322.765L184.82 324.963L186.05 339.724L233.166 366.875L233.663 366.428Z" fill="#0D151D"/>
<path d="M227.649 357.271C227.415 357.569 227.546 358.065 227.942 358.378C228.338 358.691 228.849 358.703 229.083 358.405C229.317 358.106 229.186 357.612 228.79 357.298C228.394 356.984 227.882 356.973 227.649 357.271Z" fill="#FEFEFE"/>
<path d="M233.167 366.876C233.111 366.886 232.885 365.976 232.521 364.32C232.149 362.527 231.657 360.157 231.062 357.29C230.763 355.791 230.439 354.166 230.092 352.431C229.972 351.593 229.5 350.869 228.772 350.429C227.952 349.958 227.108 349.473 226.244 348.976C222.772 346.967 218.973 344.77 214.987 342.463C207.007 337.822 199.808 333.583 194.618 330.48C192.119 328.966 190.054 327.714 188.491 326.766C187.054 325.874 186.274 325.359 186.302 325.311C186.329 325.264 187.164 325.686 188.65 326.494C190.244 327.385 192.354 328.562 194.904 329.985C200.168 332.963 207.412 337.126 215.391 341.767C219.366 344.092 223.153 346.311 226.615 348.336C227.477 348.844 228.32 349.339 229.139 349.823C230.042 350.362 230.63 351.361 230.743 352.289C231.056 354.034 231.349 355.667 231.619 357.174C232.113 360.063 232.52 362.452 232.828 364.26C233.096 365.936 233.221 366.866 233.167 366.876Z" fill="#283C46"/>
<path d="M217.196 352.843C217.196 352.843 217.348 351.641 214.065 351.161C210.783 350.682 201.358 349.073 201.358 349.073L204.34 342.654L202.921 334.897C202.921 334.897 201.265 333.276 200.477 334.572C199.691 335.866 199.067 340.849 199.067 340.849L194.038 344.767L198.517 334.051C198.517 334.051 197.431 330.613 195.363 331.746C193.296 332.88 187.027 340.277 187.027 340.277L187.151 335.021L190.595 328.596C190.595 328.596 190.409 326.691 188.825 327.491C187.241 328.288 181.719 335.072 181.719 335.072L178.329 343.125C178.329 343.125 178.886 347.391 180.162 347.736C181.439 348.081 183.232 348.091 183.232 348.091C183.232 348.091 183.961 350.334 185.082 350.701C186.204 351.067 187.93 350.701 187.93 350.701C187.93 350.701 187.491 354.308 189.497 354.645C191.503 354.983 195.391 354.402 196.9 353.962C198.407 353.52 212.686 354.651 213.108 354.482C213.529 354.313 218.25 355.033 217.196 352.843Z" fill="#FBA585"/>
<path d="M180.164 348.008C180.073 348.039 179.702 347.298 179.423 345.994C179.144 344.694 179.025 342.82 179.39 340.804C179.761 338.79 180.538 337.079 181.259 335.964C181.982 334.842 182.592 334.281 182.666 334.343C182.876 334.48 180.855 337.081 180.18 340.949C179.442 344.802 180.409 347.953 180.164 348.008Z" fill="#FB7E53"/>
<path d="M182.875 346C182.687 345.888 183.341 344.456 184.481 342.907C185.616 341.355 186.783 340.305 186.946 340.449C187.114 340.599 186.239 341.864 185.126 343.385C184.011 344.902 183.067 346.119 182.875 346Z" fill="#FB7E53"/>
<path d="M189.837 349.778C189.65 349.668 190.287 348.247 191.501 346.786C192.71 345.322 193.983 344.433 194.125 344.598C194.276 344.769 193.283 345.89 192.118 347.302C190.948 348.708 190.031 349.895 189.837 349.778Z" fill="#FB7E53"/>
<path d="M195.5 353.837C195.398 353.628 196.826 352.761 198.361 351.433C199.907 350.116 200.98 348.834 201.171 348.967C201.351 349.079 200.52 350.646 198.883 352.045C197.254 353.452 195.583 354.032 195.5 353.837Z" fill="#FB7E53"/>
<path d="M240.394 294.863L152.769 295.578C149.927 295.578 147.211 296.948 146.785 299.771L137.209 363.914H92.0743C90.6216 363.914 89.4434 365.096 89.4434 366.555C89.4434 368.015 90.6216 369.199 92.0743 369.199H136.42H144.838H236.228L246.079 301.501C246.606 298.009 243.913 294.863 240.394 294.863Z" fill="#D9D9D1"/>
<path d="M240.394 294.863C240.394 294.863 240.871 294.803 241.775 294.994C242.653 295.198 244.033 295.743 245.122 297.224C245.666 297.947 246.077 298.914 246.205 300.03C246.348 301.164 246.024 302.358 245.883 303.651C245.516 306.243 245.093 309.228 244.619 312.583C242.691 326.031 239.91 345.41 236.494 369.237L236.461 369.472H236.226C198.925 369.493 149.907 369.522 96.3782 369.555C95.1211 369.555 93.8654 369.555 92.6138 369.555C92.0335 369.579 91.225 369.545 90.6229 369.173C90.0005 368.829 89.5167 368.253 89.2748 367.584C88.7503 366.242 89.3768 364.599 90.6352 363.933C91.2358 363.567 92.0363 363.537 92.6098 363.559H94.4634C99.4005 363.56 104.287 363.56 109.11 363.56C118.758 363.564 128.154 363.567 137.209 363.57L136.872 363.863C140.318 340.893 143.535 319.463 146.418 300.239C146.519 299.021 147.067 297.704 148.04 296.887C148.991 296.039 150.195 295.591 151.391 295.404C152.61 295.217 153.769 295.317 154.923 295.278C156.079 295.269 157.226 295.263 158.364 295.254C162.914 295.223 167.315 295.193 171.557 295.164C180.037 295.111 187.879 295.061 195 295.016C209.227 294.942 220.569 294.884 228.377 294.844C232.258 294.837 235.254 294.831 237.305 294.827C238.308 294.833 239.073 294.837 239.611 294.839C240.129 294.844 240.394 294.863 240.394 294.863C240.394 294.863 240.13 294.884 239.611 294.899C239.075 294.91 238.308 294.928 237.307 294.949C235.256 294.979 232.258 295.021 228.378 295.077C220.569 295.164 209.229 295.291 195.003 295.45C187.881 295.52 180.038 295.598 171.558 295.683C167.317 295.724 162.916 295.768 158.366 295.81C157.229 295.822 156.082 295.832 154.926 295.841C153.773 295.881 152.587 295.792 151.479 295.968C150.366 296.144 149.263 296.569 148.424 297.322C147.563 298.076 147.107 299.125 146.999 300.328C144.142 319.554 140.959 340.987 137.547 363.964L137.503 364.256H137.209C128.154 364.259 118.758 364.262 109.11 364.266C104.287 364.266 99.4005 364.267 94.4634 364.269H92.6098C91.9561 364.25 91.4669 364.276 90.9763 364.553C90.0168 365.063 89.5385 366.317 89.9394 367.341C90.1228 367.849 90.4925 368.292 90.9681 368.553C91.4614 368.834 91.952 368.862 92.6138 368.842C93.8654 368.842 95.1211 368.842 96.3782 368.842C149.907 368.875 198.925 368.904 236.226 368.927L235.958 369.159C239.475 345.346 242.335 325.979 244.319 312.538C244.82 309.187 245.266 306.206 245.653 303.616C245.808 302.32 246.139 301.13 246.011 300.05C245.899 298.971 245.513 298.028 244.994 297.315C243.956 295.86 242.615 295.298 241.756 295.07C240.871 294.857 240.391 294.897 240.394 294.863Z" fill="#0D151D"/>
<path d="M187.379 331.214C187.379 334.257 189.835 336.724 192.865 336.724C195.894 336.724 198.351 334.257 198.351 331.214C198.351 328.171 195.894 325.706 192.865 325.706C189.835 325.706 187.379 328.171 187.379 331.214Z" fill="#FEFEFE"/>
<path d="M140.759 368.605C140.883 368.627 143.673 352.293 146.989 332.13C150.305 311.96 152.893 295.597 152.768 295.576C152.645 295.555 149.856 311.887 146.539 332.057C143.224 352.22 140.635 368.586 140.759 368.605Z" fill="#0D151D"/>
<path d="M286.895 186.323L288.526 186.352L288.637 179.871L286.897 179.84L286.819 184.438C286.594 184.83 286.183 185.027 285.599 185.017C284.987 185.006 284.694 184.673 284.705 183.991L284.777 179.803L283.051 179.772L282.978 184.015C282.965 184.793 283.145 185.383 283.505 185.785C283.866 186.187 284.379 186.401 285.072 186.413C285.833 186.427 286.422 186.178 286.866 185.667L286.895 186.323Z" fill="black" stroke="black" stroke-width="0.01" stroke-linejoin="round"/>
<path d="M293.095 185.135C292.917 185.255 292.671 185.319 292.331 185.313C291.977 185.306 291.707 185.22 291.492 185.052C291.291 184.885 291.173 184.637 291.165 184.336L289.534 184.307C289.527 184.703 289.63 185.06 289.868 185.405C290.107 185.751 290.429 186.016 290.847 186.214C291.265 186.426 291.739 186.53 292.283 186.54C293.085 186.554 293.74 186.375 294.249 186.029C294.759 185.67 295.025 185.197 295.035 184.596C295.049 183.778 294.597 183.183 293.692 182.826C293.395 182.725 293.043 182.609 292.61 182.52C292.19 182.43 291.879 182.316 291.704 182.203C291.516 182.077 291.437 181.926 291.44 181.735C291.444 181.53 291.528 181.354 291.68 181.234C291.845 181.1 292.078 181.036 292.363 181.041C292.703 181.048 292.946 181.134 293.107 181.3C293.267 181.467 293.331 181.673 293.327 181.918L295.053 181.949C295.064 181.335 294.828 180.826 294.345 180.422C293.862 180.031 293.213 179.828 292.384 179.814C291.623 179.8 290.994 179.98 290.512 180.353C290.03 180.727 289.79 181.214 289.781 181.787C289.764 182.769 290.514 183.438 292.044 183.793C292.505 183.896 292.843 184.012 293.044 184.138C293.26 184.265 293.352 184.43 293.348 184.648C293.345 184.853 293.261 185.015 293.095 185.135Z" fill="black" stroke="black" stroke-width="0.01" stroke-linejoin="round"/>
<path d="M299.825 181.65C300.012 181.872 300.115 182.174 300.109 182.556L300.106 182.692L297.714 182.65C297.776 182.214 297.918 181.889 298.139 181.661C298.347 181.433 298.634 181.315 298.974 181.321C299.341 181.328 299.625 181.442 299.825 181.65ZM300.56 186.372C300.999 186.175 301.357 185.894 301.621 185.531L300.795 184.561C300.406 185.045 299.886 185.268 299.22 185.256C298.785 185.248 298.433 185.119 298.166 184.855C297.885 184.604 297.714 184.26 297.667 183.836L301.785 183.91L301.797 183.2C301.815 182.163 301.584 181.368 301.077 180.799C300.584 180.231 299.895 179.945 299.012 179.93C298.414 179.919 297.895 180.046 297.428 180.311C296.961 180.589 296.601 180.979 296.334 181.479C296.08 181.993 295.948 182.577 295.937 183.219L295.934 183.396C295.917 184.365 296.203 185.148 296.777 185.745C297.366 186.328 298.135 186.642 299.087 186.659C299.617 186.669 300.108 186.568 300.56 186.372Z" fill="black" stroke="black" stroke-width="0.01" stroke-linejoin="round"/>
<path d="M306.491 180.129C306.315 180.085 306.138 180.055 305.948 180.052C305.336 180.041 304.855 180.332 304.492 180.913L304.464 180.148L302.833 180.119L302.722 186.6L304.448 186.631L304.521 182.387C304.733 181.941 305.158 181.73 305.81 181.741C305.987 181.745 306.204 181.762 306.435 181.807L306.491 180.129Z" fill="black" stroke="black" stroke-width="0.01" stroke-linejoin="round"/>
<path d="M307.252 180.196L307.141 186.677L308.867 186.708L308.945 182.137C309.197 181.718 309.568 181.52 310.057 181.529C310.424 181.536 310.681 181.622 310.841 181.789C311.001 181.955 311.078 182.23 311.072 182.598L311.001 186.746L312.727 186.776L312.799 182.588C312.799 181.783 312.633 181.179 312.314 180.764C311.98 180.362 311.481 180.149 310.788 180.136C310.013 180.123 309.397 180.398 308.925 180.963L308.883 180.225L307.252 180.196Z" fill="black" stroke="black" stroke-width="0.01" stroke-linejoin="round"/>
<path d="M315.755 185.409C315.595 185.27 315.53 185.091 315.533 184.873L315.535 184.777C315.6 184.178 316.067 183.886 316.937 183.902L317.576 183.913L317.556 185.032C317.458 185.221 317.292 185.368 317.073 185.473C316.854 185.579 316.621 185.643 316.363 185.638C316.105 185.634 315.902 185.562 315.755 185.409ZM319.523 186.895L319.525 186.8C319.354 186.469 319.28 186.004 319.291 185.39L319.339 182.58C319.351 181.856 319.13 181.279 318.661 180.875C318.206 180.458 317.57 180.255 316.782 180.241C316.252 180.232 315.775 180.305 315.35 180.489C314.926 180.659 314.595 180.898 314.359 181.222C314.122 181.531 313.994 181.884 313.987 182.252L315.714 182.283C315.718 182.037 315.816 181.848 315.982 181.715C316.147 181.581 316.379 181.517 316.665 181.522C316.991 181.528 317.234 181.614 317.38 181.808C317.541 181.988 317.605 182.221 317.599 182.521L317.593 182.903L316.805 182.889C315.839 182.872 315.102 183.036 314.593 183.396C314.084 183.755 313.817 184.283 313.805 184.965C313.795 185.524 313.991 185.992 314.406 186.368C314.808 186.743 315.335 186.944 315.974 186.955C316.64 186.967 317.187 186.745 317.617 186.275C317.64 186.507 317.691 186.713 317.77 186.864L319.523 186.895Z" fill="black" stroke="black" stroke-width="0.01" stroke-linejoin="round"/>
<path d="M320.698 180.432L320.587 186.911L322.313 186.942L322.392 182.359C322.616 181.953 322.973 181.755 323.462 181.764C323.816 181.77 324.072 181.856 324.205 182.023C324.352 182.203 324.429 182.477 324.422 182.845L324.352 186.978L326.078 187.009L326.14 182.548C326.353 182.061 326.71 181.822 327.227 181.831C327.594 181.837 327.85 181.924 327.983 182.104C328.13 182.27 328.193 182.544 328.187 182.912L328.116 187.045L329.842 187.076L329.913 182.929C329.927 182.111 329.775 181.494 329.442 181.079C329.096 180.663 328.583 180.449 327.876 180.437C327.047 180.422 326.389 180.738 325.929 181.385C325.628 180.724 325.063 180.387 324.22 180.372C323.445 180.358 322.829 180.62 322.357 181.185L322.315 180.461L320.698 180.432Z" fill="black" stroke="black" stroke-width="0.01" stroke-linejoin="round"/>
<path d="M334.887 182.265C335.073 182.487 335.177 182.789 335.17 183.171L335.168 183.307L332.776 183.264C332.838 182.829 332.979 182.504 333.201 182.276C333.408 182.047 333.696 181.93 334.036 181.936C334.403 181.942 334.686 182.057 334.887 182.265ZM335.622 186.986C336.06 186.789 336.418 186.509 336.683 186.145L335.857 185.175C335.468 185.66 334.947 185.882 334.281 185.871C333.846 185.863 333.495 185.734 333.227 185.47C332.946 185.219 332.775 184.875 332.728 184.451L336.847 184.524L336.859 183.815C336.876 182.778 336.645 181.982 336.138 181.414C335.645 180.845 334.957 180.56 334.073 180.544C333.475 180.534 332.956 180.661 332.489 180.926C332.022 181.204 331.662 181.593 331.395 182.094C331.142 182.608 331.009 183.192 330.998 183.833L330.995 184.011C330.979 184.979 331.265 185.762 331.839 186.359C332.427 186.943 333.197 187.257 334.148 187.274C334.678 187.283 335.17 187.183 335.622 186.986Z" fill="black" stroke="black" stroke-width="0.01" stroke-linejoin="round"/>
<path d="M342.125 182.992C342.389 182.614 342.746 182.416 343.209 182.424C343.372 182.427 343.521 182.457 343.683 182.515L343.376 185.348C343.262 185.673 343.108 185.916 342.928 186.077C342.749 186.251 342.571 186.33 342.367 186.326C342.068 186.321 341.853 186.18 341.721 185.905C341.59 185.63 341.556 185.234 341.606 184.702C341.7 183.953 341.873 183.383 342.125 182.992ZM347.196 181.376C346.857 180.579 346.324 179.941 345.611 179.506C344.898 179.056 344.031 178.836 343.039 178.818C342.06 178.801 341.173 179.017 340.376 179.481C339.58 179.944 338.957 180.615 338.493 181.481C338.016 182.345 337.754 183.337 337.681 184.441C337.621 185.586 337.754 186.571 338.106 187.41C338.459 188.249 339.006 188.886 339.732 189.323C340.473 189.759 341.366 189.993 342.413 190.012C342.834 190.019 343.243 189.972 343.652 189.884C344.075 189.796 344.403 189.679 344.651 189.519L344.435 188.587C344.175 188.706 343.861 188.809 343.493 188.871C343.124 188.933 342.784 188.967 342.458 188.962C341.194 188.939 340.262 188.54 339.65 187.752C339.025 186.963 338.772 185.866 338.85 184.462C338.921 183.522 339.125 182.706 339.477 181.989C339.843 181.273 340.328 180.722 340.933 180.337C341.537 179.965 342.234 179.773 342.995 179.787C344.232 179.809 345.15 180.207 345.762 180.969C346.375 181.73 346.642 182.799 346.55 184.203C346.511 184.899 346.365 185.456 346.113 185.874C345.861 186.306 345.545 186.506 345.178 186.499C344.947 186.495 344.772 186.41 344.666 186.244C344.56 186.079 344.523 185.832 344.57 185.519L344.941 182.059L344.565 181.793C344.162 181.527 343.689 181.382 343.118 181.372C342.656 181.364 342.218 181.492 341.82 181.758C341.421 182.024 341.074 182.414 340.807 182.927C340.54 183.441 340.367 184.025 340.274 184.678C340.192 185.482 340.29 186.139 340.608 186.636C340.912 187.133 341.356 187.386 341.941 187.397C342.579 187.408 343.101 187.131 343.518 186.579C343.636 186.867 343.822 187.075 344.064 187.23C344.32 187.384 344.604 187.458 344.958 187.464C345.732 187.478 346.349 187.189 346.822 186.596C347.294 186.004 347.553 185.19 347.625 184.168C347.683 183.118 347.536 182.187 347.196 181.376Z" fill="black" stroke="black" stroke-width="0.01" stroke-linejoin="round"/>
<path d="M350.63 182.745C350.881 182.409 351.21 182.251 351.617 182.258C352.134 182.267 352.511 182.479 352.735 182.878L352.689 185.607C352.451 185.999 352.067 186.183 351.537 186.174C351.129 186.166 350.819 185.997 350.58 185.665C350.355 185.32 350.241 184.854 350.251 184.267C350.262 183.599 350.393 183.082 350.63 182.745ZM348.525 184.182C348.508 185.191 348.739 186.001 349.204 186.623C349.683 187.232 350.303 187.557 351.078 187.571C351.73 187.583 352.251 187.36 352.666 186.917L352.66 187.272C352.653 187.722 352.511 188.061 352.248 188.302C351.999 188.543 351.63 188.659 351.182 188.651C350.57 188.64 350.044 188.399 349.631 187.9L348.838 188.951C349.064 189.241 349.4 189.493 349.845 189.692C350.304 189.891 350.764 189.995 351.227 190.003C351.852 190.014 352.411 189.915 352.877 189.705C353.343 189.495 353.716 189.174 353.981 188.769C354.233 188.351 354.377 187.862 354.387 187.289L354.494 181.026L352.931 180.998L352.853 181.597C352.467 181.113 351.913 180.857 351.207 180.845C350.405 180.831 349.761 181.119 349.274 181.725C348.802 182.317 348.543 183.118 348.526 184.114L348.525 184.182Z" fill="black" stroke="black" stroke-width="0.01" stroke-linejoin="round"/>
<path d="M355.82 181.048L355.709 187.527L357.435 187.558L357.514 182.974C357.738 182.569 358.095 182.371 358.584 182.379C358.938 182.386 359.194 182.472 359.328 182.638C359.474 182.818 359.551 183.093 359.545 183.461L359.474 187.594L361.2 187.625L361.263 183.164C361.475 182.677 361.832 182.437 362.349 182.447C362.716 182.453 362.973 182.539 363.105 182.719C363.252 182.886 363.315 183.16 363.309 183.528L363.238 187.661L364.964 187.692L365.035 183.545C365.049 182.727 364.897 182.11 364.564 181.695C364.218 181.279 363.705 181.065 362.998 181.053C362.169 181.038 361.511 181.354 361.051 182C360.75 181.34 360.185 181.002 359.342 180.987C358.568 180.974 357.951 181.236 357.479 181.8L357.437 181.076L355.82 181.048Z" fill="black" stroke="black" stroke-width="0.01" stroke-linejoin="round"/>
<path d="M368.019 186.325C367.858 186.186 367.793 186.007 367.797 185.789L367.799 185.694C367.863 185.094 368.331 184.802 369.2 184.818L369.839 184.829L369.82 185.948C369.722 186.137 369.556 186.284 369.337 186.39C369.117 186.495 368.885 186.559 368.627 186.554C368.369 186.55 368.166 186.478 368.019 186.325ZM371.787 187.812L371.789 187.716C371.617 187.386 371.544 186.92 371.554 186.306L371.602 183.496C371.615 182.773 371.393 182.196 370.925 181.791C370.469 181.374 369.834 181.172 369.046 181.158C368.515 181.148 368.038 181.221 367.614 181.405C367.189 181.575 366.859 181.815 366.622 182.138C366.386 182.448 366.257 182.8 366.251 183.169L367.977 183.199C367.981 182.954 368.08 182.764 368.245 182.631C368.411 182.497 368.643 182.433 368.928 182.438C369.255 182.444 369.498 182.53 369.644 182.724C369.804 182.904 369.868 183.137 369.863 183.438L369.857 183.82L369.068 183.806C368.103 183.788 367.366 183.953 366.857 184.312C366.348 184.671 366.08 185.199 366.069 185.881C366.059 186.44 366.255 186.908 366.67 187.284C367.072 187.659 367.598 187.86 368.237 187.871C368.903 187.883 369.451 187.661 369.88 187.191C369.904 187.423 369.955 187.629 370.034 187.78L371.787 187.812Z" fill="black" stroke="black" stroke-width="0.01" stroke-linejoin="round"/>
<path d="M373.225 180.315C373.399 180.482 373.643 180.568 373.928 180.574C374.214 180.579 374.46 180.501 374.64 180.341C374.82 180.18 374.905 179.963 374.91 179.69C374.914 179.431 374.836 179.225 374.662 179.044C374.488 178.877 374.258 178.791 373.959 178.786C373.66 178.781 373.427 178.858 373.247 179.019C373.068 179.193 372.982 179.397 372.978 179.656C372.973 179.929 373.051 180.148 373.225 180.315ZM374.785 181.381L373.044 181.35L372.933 187.831L374.674 187.862L374.785 181.381Z" fill="black" stroke="black" stroke-width="0.01" stroke-linejoin="round"/>
<path d="M378.074 178.708L376.333 178.677L376.175 187.888L377.917 187.919L378.074 178.708Z" fill="black" stroke="black" stroke-width="0.01" stroke-linejoin="round"/>
<path d="M379.705 187.759C379.879 187.939 380.109 188.025 380.394 188.03C380.68 188.035 380.912 187.958 381.105 187.784C381.285 187.623 381.384 187.407 381.388 187.134C381.393 186.847 381.302 186.627 381.128 186.447C380.941 186.28 380.711 186.18 380.426 186.175C380.14 186.17 379.908 186.261 379.728 186.422C379.535 186.596 379.436 186.813 379.431 187.099C379.426 187.372 379.518 187.592 379.705 187.759Z" fill="black" stroke="black" stroke-width="0.01" stroke-linejoin="round"/>
<path d="M384.67 186.317C384.471 186.027 384.384 185.548 384.396 184.879L384.399 184.688C384.41 184.033 384.527 183.558 384.736 183.261C384.945 182.978 385.246 182.833 385.654 182.841C385.98 182.846 386.237 182.96 386.437 183.168C386.624 183.39 386.728 183.665 386.736 184.006L388.353 184.035C388.353 183.257 388.119 182.639 387.637 182.166C387.156 181.707 386.507 181.464 385.705 181.45C384.781 181.433 384.042 181.72 383.502 182.297C382.961 182.888 382.69 183.675 382.672 184.685L382.67 184.794C382.653 185.831 382.911 186.654 383.431 187.25C383.951 187.846 384.679 188.159 385.604 188.176C386.093 188.185 386.543 188.083 386.954 187.9C387.366 187.702 387.697 187.422 387.934 187.057C388.185 186.693 388.301 186.3 388.322 185.863L386.704 185.834C386.686 186.121 386.573 186.351 386.38 186.525C386.173 186.698 385.913 186.776 385.601 186.77C385.179 186.763 384.869 186.621 384.67 186.317Z" fill="black" stroke="black" stroke-width="0.01" stroke-linejoin="round"/>
<path d="M391.14 183.428C391.377 183.105 391.719 182.947 392.141 182.954C392.562 182.962 392.886 183.131 393.124 183.477C393.35 183.808 393.451 184.274 393.44 184.888C393.428 185.598 393.311 186.1 393.074 186.424C392.824 186.747 392.495 186.891 392.074 186.884C391.652 186.876 391.315 186.706 391.09 186.388C390.878 186.057 390.764 185.577 390.774 184.963C390.786 184.268 390.917 183.765 391.14 183.428ZM389.049 184.892C389.031 185.915 389.289 186.738 389.836 187.349C390.383 187.959 391.125 188.272 392.05 188.289C392.987 188.305 393.74 188.019 394.294 187.428C394.862 186.838 395.147 186.038 395.164 185.042L395.172 184.605C395.12 183.676 394.819 182.947 394.285 182.406C393.737 181.85 393.034 181.578 392.165 181.563C391.539 181.552 391.007 181.679 390.54 181.943C390.073 182.208 389.7 182.597 389.446 183.097C389.193 183.598 389.061 184.169 389.05 184.81L389.049 184.892Z" fill="black" stroke="black" stroke-width="0.01" stroke-linejoin="round"/>
<g opacity="0.53045">
<path d="M396.29 181.757L396.179 188.237L397.905 188.267L397.983 183.684C398.208 183.279 398.565 183.08 399.054 183.089C399.407 183.095 399.664 183.182 399.797 183.348C399.944 183.528 400.021 183.802 400.014 184.17L399.944 188.304L401.67 188.334L401.732 183.873C401.945 183.386 402.302 183.147 402.819 183.156C403.185 183.163 403.442 183.249 403.575 183.429C403.722 183.595 403.785 183.869 403.779 184.237L403.708 188.371L405.434 188.401L405.505 184.255C405.519 183.436 405.366 182.819 405.034 182.404C404.687 181.988 404.174 181.775 403.468 181.762C402.639 181.747 401.981 182.063 401.521 182.71C401.22 182.05 400.655 181.712 399.812 181.697C399.037 181.683 398.421 181.945 397.949 182.51L397.907 181.786L396.29 181.757Z" fill="black" stroke="black" stroke-width="0.01" stroke-linejoin="round"/>
</g>
<path d="M303.702 224.548L305.496 225.762L307.521 222.569L309.573 225.885L311.367 224.602L309.002 221.586L312.617 220.576L311.951 218.515L308.527 219.907L308.758 215.867H306.543L306.774 219.825L303.254 218.406L302.588 220.453L306.135 221.463L303.702 224.548Z" fill="black" stroke="black" stroke-width="0.01" stroke-linejoin="round"/>
<path d="M314.17 224.548L315.964 225.762L317.989 222.569L320.041 225.885L321.835 224.602L319.47 221.586L323.085 220.576L322.419 218.515L318.994 219.907L319.225 215.867H317.01L317.241 219.825L313.722 218.406L313.056 220.453L316.603 221.463L314.17 224.548Z" fill="black" stroke="black" stroke-width="0.01" stroke-linejoin="round"/>
<path d="M324.638 224.548L326.432 225.762L328.457 222.569L330.509 225.885L332.302 224.602L329.938 221.586L333.553 220.576L332.887 218.515L329.462 219.907L329.693 215.867H327.478L327.709 219.825L324.189 218.406L323.523 220.453L327.07 221.463L324.638 224.548Z" fill="black" stroke="black" stroke-width="0.01" stroke-linejoin="round"/>
<g opacity="0.136301">
<path d="M335.106 224.548L336.899 225.762L338.924 222.569L340.976 225.885L342.77 224.602L340.406 221.586L344.02 220.576L343.355 218.515L339.93 219.907L340.161 215.867H337.946L338.177 219.825L334.657 218.406L333.991 220.453L337.538 221.463L335.106 224.548Z" fill="black" stroke="black" stroke-width="0.01" stroke-linejoin="round"/>
</g>
<mask id="mask1_312_331" style="mask-type:alpha" maskUnits="userSpaceOnUse" x="501" y="86" width="62" height="73">
<path d="M538.479 121.436C544.744 118.796 549.198 112.309 549.235 104.663C549.276 94.6479 541.731 86.4928 532.378 86.4492C523.031 86.4055 515.417 94.4896 515.376 104.505C515.345 112.221 519.83 118.788 526.162 121.436C500.109 125.378 501.29 158.593 501.29 158.593L562.899 158.878C562.899 158.878 564.306 125.353 538.479 121.436Z" fill="#F2F1EE"/>
</mask>
<g mask="url(#mask1_312_331)">
<path d="M574.507 80.6975V153.718H483.966V80.6975H574.507Z" fill="#F3F2EF"/>
</g>
<path d="M517.321 531.853C533.843 521.737 552.086 503.959 558.548 484.526C540.662 495.004 526.001 511.838 517.321 531.853Z" fill="#0D151D"/>
<path d="M516.943 503.211C533.466 493.096 551.71 475.32 558.171 455.884C540.286 466.362 525.623 483.196 516.943 503.211Z" fill="#0D151D"/>
<path d="M518.032 475.138C534.555 465.023 552.798 447.244 559.26 427.811C541.374 438.288 526.71 455.123 518.032 475.138Z" fill="#0D151D"/>
<path d="M520.219 445.592C535.399 433.233 551.383 413.024 555.489 392.825C539.002 405.735 526.457 424.505 520.219 445.592Z" fill="#0D151D"/>
<path d="M523.834 422.697C533.637 405.005 541.487 379.684 538.349 359.216C527.523 377.955 522.361 400.533 523.834 422.697Z" fill="#0D151D"/>
<path d="M522.017 433.578C516.434 412.458 504.15 386.682 487.641 372.674C493.25 395.36 505.476 417.024 522.017 433.578Z" fill="#0D151D"/>
<path d="M519.776 457.923C512.229 436.415 497.325 410.641 478.986 397.491C486.687 420.632 501.194 442.125 519.776 457.923Z" fill="#0D151D"/>
<path d="M517.44 487.558C509.895 466.048 494.993 440.277 476.652 427.129C484.354 450.268 498.861 471.761 517.44 487.558Z" fill="#0D151D"/>
<path d="M517.356 523.532C509.812 502.023 494.907 476.251 476.568 463.103C484.268 486.242 498.777 507.735 517.356 523.532Z" fill="#0D151D"/>
<path d="M524.147 418.364C524.135 418.362 524.106 418.481 524.059 418.715C524.009 418.989 523.946 419.331 523.868 419.756C523.71 420.727 523.486 422.069 523.204 423.77C522.63 427.259 521.905 432.321 521.105 438.589C520.293 444.855 519.485 452.338 518.741 460.66C518.032 468.984 517.413 478.15 517.01 487.783C516.632 497.422 516.516 506.609 516.548 514.965C516.614 523.319 516.818 530.841 517.119 537.151C517.408 543.461 517.72 548.564 518.01 552.084C518.152 553.802 518.266 555.156 518.346 556.137C518.389 556.565 518.423 556.912 518.451 557.189C518.479 557.427 518.498 557.548 518.51 557.546C518.521 557.546 518.524 557.423 518.52 557.185C518.512 556.906 518.501 556.557 518.486 556.126C518.438 555.144 518.368 553.787 518.283 552.065C518.076 548.54 517.836 543.438 517.609 537.129C517.372 530.823 517.221 523.308 517.189 514.96C517.191 506.614 517.328 497.437 517.706 487.811C518.107 478.187 518.711 469.031 519.383 460.712C520.09 452.396 520.844 444.916 521.594 438.646C522.331 432.377 522.981 427.307 523.473 423.811C523.698 422.101 523.877 420.753 524.006 419.778C524.056 419.349 524.097 419.003 524.129 418.725C524.153 418.489 524.159 418.365 524.147 418.364Z" fill="#0D151D"/>
<path d="M512.903 543.335C521.478 528.004 528.417 506.11 525.848 488.485C516.387 504.727 511.783 524.237 512.903 543.335Z" fill="#283C46"/>
<path d="M501.726 522.002C510.301 506.671 517.241 484.777 514.672 467.155C505.21 483.397 500.604 502.905 501.726 522.002Z" fill="#283C46"/>
<path d="M491.866 500.41C500.439 485.078 507.378 463.185 504.809 445.561C495.348 461.803 490.744 481.312 491.866 500.41Z" fill="#283C46"/>
<path d="M482.278 477.198C488.984 460.81 493.292 438.155 488.658 421.059C481.177 438.471 478.908 458.44 482.278 477.198Z" fill="#283C46"/>
<path d="M476.304 458.311C476.917 440.444 473.142 417.765 462.962 403.866C461.981 422.996 466.729 442.361 476.304 458.311Z" fill="#283C46"/>
<path d="M479.047 467.371C466.791 454.135 447.727 440.536 429.978 437.739C442.851 452.139 460.302 462.68 479.047 467.371Z" fill="#283C46"/>
<path d="M486.621 486.711C472.742 474.101 451.706 461.732 432.909 460.437C447.526 474.197 466.633 483.541 486.621 486.711Z" fill="#283C46"/>
<path d="M496.137 510.061C482.257 497.452 461.222 485.082 442.427 483.787C457.044 497.546 476.148 506.891 496.137 510.061Z" fill="#283C46"/>
<path d="M509.761 537.115C495.881 524.506 474.846 512.135 456.049 510.84C470.667 524.599 489.771 533.946 509.761 537.115Z" fill="#283C46"/>
<path d="M474.738 454.961C474.726 454.965 474.748 455.067 474.801 455.262C474.868 455.493 474.949 455.775 475.049 456.121C475.298 456.925 475.638 458.022 476.067 459.407C476.951 462.261 478.322 466.361 480.095 471.401C483.638 481.48 488.958 495.263 495.719 510.1C499.112 517.517 502.536 524.489 505.761 530.774C509.021 537.041 512.053 542.632 514.715 547.264C517.361 551.902 519.568 555.617 521.147 558.151C521.916 559.381 522.524 560.353 522.969 561.066C523.166 561.368 523.326 561.614 523.459 561.817C523.571 561.983 523.633 562.066 523.643 562.06C523.653 562.054 523.61 561.959 523.516 561.781C523.4 561.569 523.259 561.311 523.084 560.997C522.664 560.268 522.092 559.274 521.37 558.018C519.859 555.443 517.715 551.696 515.122 547.031C512.517 542.376 509.531 536.768 506.306 530.493C503.113 524.202 499.712 517.23 496.323 509.825C489.572 495.007 484.189 481.27 480.535 471.241C478.708 466.227 477.27 462.153 476.311 459.325C475.832 457.959 475.454 456.874 475.176 456.08C475.052 455.742 474.949 455.467 474.865 455.24C474.792 455.053 474.749 454.957 474.738 454.961Z" fill="#0D151D"/>
<path d="M477.205 544.692H552.166V559.203H544.463L537.976 600.586H491.64L484.969 559.203H477.205V544.692Z" fill="#4A6CD1"/>
<path d="M477.205 558.898C477.205 558.707 493.866 558.549 514.412 558.549C534.967 558.549 551.625 558.707 551.625 558.898C551.625 559.092 534.967 559.249 514.412 559.249C493.866 559.249 477.205 559.092 477.205 558.898Z" fill="#0D151D"/>
</g>
</g>
<defs>
<clipPath id="clip0_312_331">
<rect width="583" height="606" fill="white"/>
</clipPath>
</defs>
</svg>
