<svg xmlns="http://www.w3.org/2000/svg" xmlns:xlink="http://www.w3.org/1999/xlink" width="355" zoomAndPan="magnify" viewBox="0 0 266.25 160.499995" height="214" preserveAspectRatio="xMidYMid meet" version="1.0"><defs><g/><clipPath id="cf2bbe5e0b"><path d="M 180.144531 57.273438 L 264.632812 57.273438 L 264.632812 118.582031 L 180.144531 118.582031 Z M 180.144531 57.273438 " clip-rule="nonzero"/></clipPath><clipPath id="e7d3c7afe6"><path d="M 70.554688 73.027344 L 113.917969 73.027344 L 113.917969 119.382812 L 70.554688 119.382812 Z M 70.554688 73.027344 " clip-rule="nonzero"/></clipPath><clipPath id="06428dcc1e"><path d="M 0.0390625 68 L 54.492188 68 L 54.492188 118.796875 L 0.0390625 118.796875 Z M 0.0390625 68 " clip-rule="nonzero"/></clipPath></defs><g fill="#444443" fill-opacity="1"><g transform="translate(34.430349, 118.148728)"><g><path d="M 33.15625 -68.671875 L 42.1875 -68.671875 C 42.707031 -68.671875 43.160156 -68.472656 43.546875 -68.078125 C 43.941406 -67.679688 44.140625 -67.222656 44.140625 -66.703125 L 44.140625 -14.125 C 44.140625 -9.550781 42.945312 -6.050781 40.5625 -3.625 C 38.175781 -1.207031 34.660156 0 30.015625 0 L 19.03125 0 C 14.445312 0 10.945312 -1.207031 8.53125 -3.625 C 6.113281 -6.050781 4.90625 -9.550781 4.90625 -14.125 L 4.90625 -66.703125 C 4.90625 -67.222656 5.097656 -67.679688 5.484375 -68.078125 C 5.878906 -68.472656 6.335938 -68.671875 6.859375 -68.671875 L 16.28125 -68.671875 C 16.800781 -68.671875 17.257812 -68.472656 17.65625 -68.078125 C 18.050781 -67.679688 18.25 -67.222656 18.25 -66.703125 L 18.25 -16.875 C 18.25 -14.257812 19.554688 -12.953125 22.171875 -12.953125 L 27.265625 -12.953125 C 29.878906 -12.953125 31.1875 -14.257812 31.1875 -16.875 L 31.1875 -66.703125 C 31.1875 -67.222656 31.382812 -67.679688 31.78125 -68.078125 C 32.175781 -68.472656 32.632812 -68.671875 33.15625 -68.671875 Z M 33.15625 -68.671875 "/></g></g></g><g fill="#444443" fill-opacity="1"><g transform="translate(91.810879, 118.148728)"><g><path d="M 45.90625 -68.671875 L 58.859375 -68.671875 C 60.160156 -68.671875 60.8125 -68.015625 60.8125 -66.703125 L 60.8125 -1.96875 C 60.8125 -0.65625 60.160156 0 58.859375 0 L 49.734375 0 C 48.421875 0 47.765625 -0.65625 47.765625 -1.96875 L 47.765625 -40.515625 L 47.078125 -40.515625 L 37.859375 -1.671875 C 37.535156 -0.554688 36.816406 0 35.703125 0 L 29.921875 0 C 28.804688 0 28.085938 -0.554688 27.765625 -1.671875 L 18.546875 -40.515625 L 17.859375 -40.515625 L 17.859375 -1.96875 C 17.859375 -0.65625 17.203125 0 15.890625 0 L 6.859375 0 C 5.554688 0 4.90625 -0.65625 4.90625 -1.96875 L 4.90625 -66.703125 C 4.90625 -68.015625 5.554688 -68.671875 6.859375 -68.671875 L 19.8125 -68.671875 C 20.925781 -68.671875 21.644531 -68.113281 21.96875 -67 L 32.859375 -23.25 L 43.75 -67 C 44.070312 -68.113281 44.789062 -68.671875 45.90625 -68.671875 Z M 45.90625 -68.671875 "/></g></g></g><g fill="#444443" fill-opacity="1"><g transform="translate(165.865861, 118.148728)"><g><path d="M 51.203125 0 L 41.6875 0 C 40.84375 0 40.320312 -0.457031 40.125 -1.375 L 36.984375 -13.734375 L 18.546875 -13.734375 L 15.5 -1.375 C 15.300781 -0.457031 14.773438 0 13.921875 0 L 4.3125 0 C 3.132812 0 2.710938 -0.554688 3.046875 -1.671875 L 19.328125 -67.296875 C 19.523438 -68.210938 20.078125 -68.671875 20.984375 -68.671875 L 34.625 -68.671875 C 35.539062 -68.671875 36.097656 -68.210938 36.296875 -67.296875 L 52.578125 -1.671875 C 52.898438 -0.554688 52.441406 0 51.203125 0 Z M 33.9375 -25.109375 L 27.765625 -51.796875 L 21.578125 -25.109375 Z M 33.9375 -25.109375 "/></g></g></g><g clip-path="url(#cf2bbe5e0b)"><path fill="#ffffff" d="M 264.152344 97.4375 C 264.773438 99.285156 264.648438 101.394531 263.742188 103.121094 C 263.707031 102.511719 263.667969 101.90625 263.644531 101.285156 C 263.632812 101.023438 263.605469 100.75 263.519531 100.503906 C 263.332031 100.007812 262.863281 99.683594 262.425781 99.371094 C 258.007812 96.144531 257.328125 90.324219 257.5 85.222656 C 257.613281 81.949219 257.152344 78.757812 255.949219 75.679688 C 255.863281 75.457031 255.726562 75.246094 255.550781 74.933594 C 255.414062 75.183594 255.339844 75.28125 255.304688 75.394531 C 254.535156 78.273438 253.976562 81.203125 253.800781 84.183594 C 253.675781 86.277344 253.777344 88.375 253.777344 90.488281 C 253.777344 92.359375 254.324219 94.074219 255.292969 95.648438 C 255.664062 96.246094 255.699219 96.828125 255.503906 97.488281 C 255.328125 98.03125 255.203125 98.601562 255.15625 99.175781 C 255.09375 100.082031 255.09375 100.988281 255.09375 101.890625 C 255.082031 103.878906 255.042969 105.863281 255.09375 107.835938 C 255.128906 109.054688 255.402344 110.234375 256.097656 111.300781 C 256.40625 111.773438 256.183594 112.019531 255.636719 111.894531 C 255.203125 111.785156 255.03125 111.957031 255.042969 112.34375 C 255.042969 112.691406 255.054688 113.050781 255.179688 113.371094 C 255.578125 114.441406 255.242188 115.234375 254.101562 115.359375 C 253.042969 115.46875 251.964844 115.382812 250.898438 115.296875 C 250.390625 115.257812 250.277344 114.910156 250.511719 114.425781 C 250.660156 114.128906 250.886719 113.871094 251.023438 113.570312 C 251.429688 112.679688 251.941406 111.808594 252.175781 110.867188 C 252.808594 108.332031 252.710938 105.738281 252.648438 103.160156 C 252.636719 102.847656 252.460938 102.539062 252.335938 102.226562 C 252.039062 101.507812 251.582031 100.8125 251.429688 100.066406 C 251.183594 98.839844 250.835938 97.671875 250.289062 96.542969 C 250.078125 96.097656 249.992188 95.601562 249.804688 95.140625 C 249.695312 94.84375 249.53125 94.570312 249.371094 94.246094 C 248.652344 94.679688 248.8125 95.238281 248.925781 95.773438 C 248.984375 96.132812 249.171875 96.492188 249.148438 96.851562 C 249.035156 98.640625 248.800781 100.429688 248.738281 102.214844 C 248.664062 104.125 248.699219 106.050781 248.726562 107.972656 C 248.726562 108.332031 248.835938 108.695312 248.984375 109.027344 C 249.246094 109.625 248.9375 110.144531 248.304688 110.183594 C 248.128906 110.195312 247.871094 110.292969 247.808594 110.417969 C 247.671875 110.753906 247.558594 111.140625 247.558594 111.5 C 247.558594 112.40625 247.222656 113.0625 246.355469 113.160156 C 245.324219 113.273438 244.269531 113.199219 243.226562 113.136719 C 242.804688 113.113281 242.65625 112.8125 242.980469 112.441406 C 243.226562 112.167969 243.488281 111.894531 243.75 111.636719 C 244.71875 110.65625 245.609375 109.648438 245.636719 108.160156 C 245.636719 108.035156 245.683594 107.910156 245.699219 107.789062 C 245.882812 106.261719 246.121094 104.722656 245.984375 103.171875 C 245.871094 101.855469 245.4375 100.949219 245.574219 99.597656 C 245.671875 98.664062 245.734375 97.734375 245.796875 96.804688 C 245.820312 96.417969 245.933594 96.046875 245.957031 95.648438 C 245.96875 95.414062 245.734375 94.519531 245.820312 94.382812 C 245.683594 94.621094 245.546875 94.855469 245.410156 95.089844 C 245.015625 95.773438 244.59375 96.480469 243.960938 96.953125 C 243.6875 97.164062 243.339844 97.3125 243.238281 97.671875 C 243.191406 97.859375 243.203125 98.070312 243.203125 98.269531 C 243.203125 98.949219 243.066406 99.632812 242.792969 100.253906 C 242.632812 100.351562 242.410156 100.253906 242.308594 100.09375 C 242.210938 99.929688 242.210938 99.734375 242.222656 99.535156 C 242.234375 98.914062 242.246094 98.304688 242.257812 97.683594 C 242 97.757812 241.835938 98.019531 241.789062 98.28125 C 241.738281 98.542969 241.789062 98.816406 241.8125 99.074219 C 241.851562 99.472656 241.851562 99.882812 241.789062 100.277344 C 241.453125 100.304688 241.03125 100.265625 240.894531 99.96875 C 240.84375 99.871094 240.84375 99.746094 240.84375 99.632812 L 240.84375 98.515625 C 240.84375 98.269531 240.84375 98.007812 240.695312 97.796875 C 240.558594 97.585938 240.222656 97.5 240.050781 97.683594 C 239.949219 97.796875 239.9375 97.96875 239.9375 98.121094 C 239.9375 98.703125 239.925781 99.273438 239.925781 99.855469 C 239.640625 99.917969 239.269531 99.945312 239.15625 99.683594 C 239.121094 99.609375 239.121094 99.523438 239.121094 99.433594 L 239.121094 97.597656 C 238.996094 97.574219 238.871094 97.597656 238.757812 97.660156 C 238.746094 98.269531 238.734375 98.863281 238.722656 99.472656 C 238.535156 99.683594 238.152344 99.523438 238.050781 99.261719 C 237.941406 99 238.003906 98.703125 238.015625 98.417969 C 238.027344 96.914062 236.351562 96.777344 235.605469 95.660156 C 235.199219 95.042969 234.988281 94.519531 234.09375 94.941406 C 230.582031 96.605469 226.621094 95.5 223.007812 94.917969 C 221.496094 94.679688 219.96875 94.496094 218.628906 93.539062 C 217.699219 92.871094 216.40625 93.453125 216.058594 94.558594 C 215.476562 96.40625 214.96875 98.28125 214.421875 100.140625 C 214 101.558594 213.539062 102.972656 213.105469 104.386719 C 212.882812 105.121094 212.570312 105.839844 212.484375 106.582031 C 212.347656 107.726562 212.261719 108.90625 212.359375 110.046875 C 212.472656 111.300781 212.359375 112.617188 213.105469 113.769531 C 213.390625 114.214844 213.167969 114.664062 212.734375 114.9375 C 212.585938 115.023438 212.324219 115.011719 212.164062 114.9375 C 212.074219 114.886719 212.0625 114.625 212.0625 114.453125 C 212.0625 114.304688 212.113281 114.140625 212.136719 113.992188 C 211.890625 114.066406 211.753906 114.191406 211.652344 114.339844 C 211.242188 114.9375 211.589844 115.457031 211.828125 115.980469 C 212.324219 117.058594 211.652344 118.511719 210.460938 118.621094 C 209.132812 118.746094 207.78125 118.671875 206.453125 118.621094 C 205.917969 118.597656 205.78125 118.273438 206.042969 117.804688 C 206.253906 117.417969 206.515625 117.058594 206.839844 116.5625 C 206.304688 116.5625 205.894531 116.574219 205.484375 116.5625 C 205.050781 116.550781 204.605469 116.550781 204.195312 116.449219 C 203.609375 116.3125 203.5 115.964844 203.859375 115.496094 C 204.132812 115.136719 204.453125 114.8125 204.789062 114.515625 C 205.359375 114.003906 206.054688 113.632812 206.304688 112.839844 C 206.492188 112.253906 206.6875 111.683594 206.824219 111.089844 C 207.136719 109.761719 207.433594 108.433594 207.683594 107.09375 C 207.867188 106.023438 207.832031 105.007812 207.382812 103.953125 C 207.035156 103.144531 206.949219 102.203125 206.875 101.308594 C 206.761719 99.96875 206.789062 98.628906 206.714844 97.289062 C 206.703125 97.078125 206.503906 96.777344 206.316406 96.703125 C 205.484375 96.355469 204.789062 95.847656 204.367188 95.054688 C 203.847656 94.074219 203.375 93.054688 202.890625 92.0625 C 202.046875 90.324219 201.75 89.035156 199.640625 88.773438 C 199.316406 88.738281 198.992188 88.722656 198.683594 88.625 C 198.027344 88.402344 197.605469 87.769531 197.320312 87.148438 C 196.625 85.660156 196.386719 84.007812 196.164062 82.382812 C 196.027344 81.402344 196.089844 80 195.691406 79.09375 C 195.269531 78.136719 194.277344 77.394531 193.792969 76.4375 C 193.695312 76.277344 193.371094 76.101562 193.199219 76.140625 C 192.042969 76.386719 190.890625 76.214844 189.746094 76.089844 C 188.59375 75.953125 187.453125 75.78125 186.433594 75.132812 C 186.222656 74.996094 185.839844 74.960938 185.613281 75.058594 C 184.597656 75.507812 183.617188 75.46875 182.625 75.046875 C 182.226562 74.875 181.816406 74.722656 181.394531 74.625 C 180.488281 74.425781 180.214844 74.015625 180.328125 73.085938 C 180.378906 72.6875 180.378906 72.253906 180.304688 71.871094 C 180.167969 71.199219 180.265625 70.875 180.859375 70.542969 C 181.148438 70.378906 181.457031 70.242188 181.71875 70.046875 C 183.167969 68.941406 184.136719 67.402344 185.265625 66.011719 C 185.429688 65.8125 185.527344 65.492188 185.539062 65.230469 C 185.566406 64.671875 185.515625 64.113281 185.515625 63.554688 C 185.515625 62.859375 185.726562 62.214844 186.320312 61.816406 C 187.785156 60.835938 187.726562 60.800781 187.8125 59.011719 C 187.824219 58.8125 187.835938 58.589844 187.949219 58.429688 C 188.132812 58.15625 188.496094 58.09375 188.828125 58.09375 C 190.21875 58.09375 191.164062 59.398438 191.980469 57.894531 C 192.167969 57.546875 192.863281 57.273438 193.296875 57.324219 C 194.453125 57.449219 195.382812 58.019531 195.964844 59.097656 C 196.128906 59.410156 196.425781 59.683594 196.722656 59.878906 C 197.15625 60.191406 197.652344 60.414062 198.113281 60.6875 C 198.546875 60.9375 198.945312 60.972656 199.390625 60.675781 C 200.125 60.179688 200.867188 59.683594 201.648438 59.261719 C 202.730469 58.675781 203.859375 58.464844 205.039062 58.988281 C 205.558594 59.210938 205.695312 59.621094 205.570312 60.152344 C 205.285156 61.445312 204.640625 62.535156 203.746094 63.480469 C 203.226562 64.027344 202.59375 64.335938 201.800781 64.210938 C 201.550781 64.175781 201.300781 64.136719 201.066406 64.101562 C 200.832031 64.0625 200.59375 64.011719 200.359375 63.964844 C 202.480469 65.476562 204.742188 65.28125 206.949219 64.449219 C 207.917969 64.089844 208.898438 63.925781 209.855469 64.011719 C 212.175781 64.222656 214.472656 64.597656 216.777344 64.90625 C 218.492188 65.128906 220.21875 65.355469 221.929688 65.589844 C 223.730469 65.824219 225.515625 66.160156 227.328125 66.285156 C 229.128906 66.410156 230.855469 66.398438 232.601562 66.769531 C 233.671875 66.992188 234.625 66.90625 235.667969 66.867188 C 236.773438 66.832031 237.941406 67.140625 239.007812 67.351562 C 241.21875 67.8125 243.464844 68.394531 245.734375 68.097656 C 247.160156 67.910156 248.851562 67.191406 250.238281 67.8125 C 251.492188 68.371094 252.859375 69.050781 254.039062 69.773438 C 254.84375 70.269531 255.488281 70.902344 255.664062 71.917969 C 255.761719 72.515625 256 73.109375 256.222656 73.683594 C 256.570312 74.5625 257.003906 75.417969 257.3125 76.3125 C 258.183594 78.808594 258.292969 81.414062 258.332031 84.019531 C 258.34375 85.050781 258.28125 86.082031 258.355469 87.109375 C 258.53125 89.828125 258.988281 91.417969 260.949219 93.265625 C 261.707031 93.972656 262.488281 94.667969 263.109375 95.5 C 263.582031 96.085938 263.917969 96.742188 264.152344 97.4375 Z M 264.152344 97.4375 " fill-opacity="1" fill-rule="nonzero"/></g><g clip-path="url(#e7d3c7afe6)"><path fill="#ffffff" d="M 113.882812 81.511719 C 113.925781 81.511719 113.96875 81.515625 114.015625 81.515625 C 114.09375 81.4375 114.0625 81.339844 114.054688 81.25 C 114 80.796875 113.78125 80.421875 113.464844 80.097656 C 113.390625 80.023438 113.285156 79.964844 113.316406 79.828125 C 113.285156 79.84375 113.25 79.855469 113.21875 79.871094 C 113.25 79.855469 113.285156 79.84375 113.316406 79.828125 C 113.382812 79.765625 113.449219 79.703125 113.519531 79.640625 C 113.996094 79.105469 114.171875 78.507812 113.902344 77.8125 C 113.785156 77.511719 113.679688 77.203125 113.785156 76.871094 C 113.808594 76.796875 113.773438 76.710938 113.699219 76.703125 C 113.429688 76.664062 113.445312 76.480469 113.460938 76.285156 C 113.46875 76.21875 113.476562 76.144531 113.429688 76.085938 C 113.425781 76.066406 113.421875 76.046875 113.417969 76.027344 C 113.417969 76.023438 113.425781 76.015625 113.425781 76.011719 C 113.421875 76 113.417969 75.992188 113.414062 75.980469 C 113.414062 75.949219 113.414062 75.917969 113.414062 75.886719 C 113.402344 75.613281 113.335938 75.574219 113.109375 75.710938 C 112.9375 75.8125 112.75 75.902344 112.640625 76.085938 C 112.589844 76.171875 112.507812 76.1875 112.414062 76.15625 C 112.386719 76.101562 112.355469 76.050781 112.316406 76.015625 C 112.355469 76.050781 112.386719 76.101562 112.414062 76.15625 C 112.398438 76.066406 112.414062 75.984375 112.457031 75.910156 C 112.515625 75.792969 112.597656 75.683594 112.59375 75.542969 C 112.675781 75.40625 112.628906 75.269531 112.601562 75.128906 C 112.613281 75.074219 112.621094 75.023438 112.5625 74.984375 C 112.558594 74.839844 112.558594 74.691406 112.550781 74.542969 C 112.546875 74.46875 112.519531 74.40625 112.445312 74.375 C 112.367188 74.34375 112.308594 74.390625 112.261719 74.441406 C 112.179688 74.535156 112.085938 74.617188 112.046875 74.742188 C 111.933594 74.753906 111.882812 74.832031 111.855469 74.929688 C 111.753906 75.007812 111.65625 75.082031 111.617188 75.214844 C 111.402344 75.289062 111.351562 75.179688 111.367188 74.996094 C 111.40625 74.5 111.328125 74.023438 111.101562 73.578125 C 111.101562 73.46875 111.054688 73.390625 110.945312 73.375 C 110.824219 73.355469 110.792969 73.464844 110.757812 73.550781 C 110.621094 73.878906 110.480469 74.210938 110.347656 74.542969 C 110.3125 74.636719 110.296875 74.769531 110.183594 74.769531 C 110.054688 74.765625 110.039062 74.621094 110 74.523438 C 109.988281 74.488281 109.984375 74.445312 109.980469 74.40625 C 109.941406 73.992188 109.792969 73.601562 109.671875 73.207031 C 109.644531 73.113281 109.609375 73.027344 109.488281 73.027344 C 109.375 73.027344 109.324219 73.101562 109.300781 73.203125 C 109.214844 73.554688 109.121094 73.910156 109.035156 74.261719 C 109.015625 74.347656 109.015625 74.449219 108.917969 74.472656 C 108.820312 74.492188 108.820312 74.363281 108.753906 74.324219 C 108.753906 74.308594 108.75 74.292969 108.746094 74.277344 C 108.757812 74.238281 108.757812 74.203125 108.71875 74.179688 C 108.71875 74.136719 108.707031 74.101562 108.671875 74.074219 C 108.660156 74.050781 108.648438 74.023438 108.640625 74 C 108.589844 73.777344 108.484375 73.574219 108.398438 73.367188 C 108.355469 73.269531 108.34375 73.113281 108.175781 73.144531 C 108.03125 73.171875 108.023438 73.304688 108 73.417969 C 107.941406 73.707031 107.921875 74.007812 107.816406 74.285156 C 107.667969 74.324219 107.535156 74.3125 107.425781 74.1875 C 107.375 74.042969 107.21875 73.992188 107.136719 73.871094 C 107.015625 73.6875 106.878906 73.691406 106.757812 73.875 C 106.691406 73.976562 106.644531 74.09375 106.585938 74.203125 C 106.554688 74.273438 106.527344 74.347656 106.445312 74.378906 C 106.058594 74.53125 106.003906 74.621094 106.03125 75.03125 C 106.027344 75.101562 105.980469 75.164062 106.015625 75.234375 C 106.003906 75.242188 105.988281 75.246094 105.976562 75.253906 C 105.894531 75.3125 105.820312 75.371094 105.785156 75.472656 C 105.5625 75.683594 105.535156 75.78125 105.769531 75.964844 C 106.050781 76.191406 106.386719 76.351562 106.582031 76.683594 C 106.609375 76.726562 106.6875 76.738281 106.742188 76.773438 C 106.804688 76.8125 106.898438 76.8125 106.929688 76.898438 C 107.035156 76.941406 107.136719 76.960938 107.234375 76.960938 C 107.136719 76.960938 107.035156 76.941406 106.929688 76.898438 C 106.792969 77.074219 106.585938 77.023438 106.410156 77.058594 C 106.304688 77.078125 106.1875 77.082031 106.121094 77.1875 C 105.863281 77.1875 105.632812 77.300781 105.414062 77.410156 C 104.492188 77.863281 103.789062 78.582031 103.125 79.34375 C 102.953125 79.535156 102.792969 79.738281 102.65625 79.957031 C 102.207031 80.660156 101.761719 81.367188 101.347656 82.09375 C 101.175781 82.390625 101.027344 82.695312 100.910156 83.019531 C 100.824219 83.175781 100.742188 83.335938 100.652344 83.492188 C 100.3125 84.078125 99.960938 84.65625 99.566406 85.210938 C 99.300781 85.585938 98.992188 85.90625 98.652344 86.207031 C 98.40625 86.421875 98.105469 86.566406 97.890625 86.816406 C 97.757812 86.863281 97.621094 86.898438 97.523438 87.011719 C 97.273438 87.074219 97.042969 87.175781 96.816406 87.296875 C 96.570312 87.359375 96.324219 87.445312 96.074219 87.476562 C 95.09375 87.601562 94.109375 87.671875 93.121094 87.671875 C 92.988281 87.671875 92.859375 87.675781 92.730469 87.71875 C 92.652344 87.71875 92.574219 87.71875 92.496094 87.71875 C 92.441406 87.703125 92.390625 87.679688 92.339844 87.671875 C 91.664062 87.589844 90.980469 87.527344 90.316406 87.375 C 89.007812 87.074219 87.679688 86.96875 86.339844 86.96875 C 86.277344 86.96875 86.214844 86.96875 86.148438 86.96875 C 86.121094 86.917969 86.089844 86.917969 86.054688 86.964844 C 85.960938 86.964844 85.867188 86.964844 85.773438 86.964844 C 85.695312 86.933594 85.617188 86.878906 85.539062 86.964844 C 85.375 86.953125 85.214844 86.964844 85.050781 86.941406 C 84.605469 86.886719 84.195312 86.703125 83.769531 86.589844 C 83.066406 86.402344 82.390625 86.128906 81.808594 85.683594 C 81.476562 85.429688 81.136719 85.183594 80.796875 84.941406 C 80.535156 84.636719 80.257812 84.355469 79.914062 84.128906 C 79.539062 83.886719 79.160156 83.636719 78.878906 83.261719 C 78.777344 83.121094 78.691406 82.929688 78.492188 82.875 C 78.449219 82.820312 78.398438 82.769531 78.359375 82.710938 C 77.949219 82.070312 77.386719 81.578125 76.765625 81.160156 C 76.164062 80.757812 75.472656 80.546875 74.796875 80.320312 C 74.464844 80.210938 74.097656 80.191406 73.746094 80.296875 C 73.25 80.277344 72.769531 80.308594 72.304688 80.527344 C 71.832031 80.75 71.5 81.058594 71.492188 81.621094 C 71.488281 81.863281 71.332031 82.027344 71.152344 82.15625 C 71.054688 82.226562 71.027344 82.300781 71.011719 82.402344 C 70.78125 82.601562 70.699219 82.886719 70.582031 83.148438 C 70.554688 83.210938 70.609375 83.3125 70.667969 83.382812 C 70.691406 83.410156 70.738281 83.453125 70.730469 83.472656 C 70.601562 83.804688 70.941406 83.90625 71.058594 84.109375 C 71.144531 84.253906 71.203125 84.363281 71.132812 84.5 C 70.945312 84.863281 71.03125 85.183594 71.230469 85.507812 C 71.304688 85.625 71.433594 85.695312 71.457031 85.851562 C 71.488281 86.058594 71.636719 86.179688 71.824219 86.253906 C 71.835938 86.242188 71.84375 86.234375 71.855469 86.230469 C 71.84375 86.234375 71.835938 86.242188 71.824219 86.253906 C 71.855469 86.273438 71.882812 86.289062 71.910156 86.308594 C 71.921875 86.3125 71.9375 86.3125 71.949219 86.316406 C 71.9375 86.3125 71.921875 86.3125 71.910156 86.308594 C 72.023438 86.519531 72.179688 86.691406 72.378906 86.828125 C 72.394531 86.902344 72.382812 86.960938 72.308594 87 C 72.296875 87.019531 72.289062 87.042969 72.28125 87.0625 C 72.289062 87.042969 72.296875 87.019531 72.308594 87 C 72.242188 86.964844 72.207031 87 72.183594 87.054688 C 72.109375 87.039062 72.035156 87.023438 71.960938 87.007812 C 71.902344 86.957031 71.875 87.003906 71.839844 87.042969 C 71.804688 87.054688 71.765625 87.066406 71.730469 87.082031 C 71.617188 87.074219 71.53125 87.230469 71.40625 87.148438 C 71.300781 87.078125 71.210938 87.160156 71.113281 87.164062 C 71.027344 87.167969 71.027344 87.238281 71.007812 87.296875 C 70.980469 87.390625 71.039062 87.421875 71.113281 87.4375 C 71.15625 87.480469 71.195312 87.527344 71.234375 87.570312 C 71.210938 87.632812 71.246094 87.660156 71.300781 87.671875 C 71.425781 87.914062 71.582031 88.136719 71.789062 88.320312 C 71.769531 88.398438 71.785156 88.480469 71.699219 88.546875 C 71.503906 88.691406 71.347656 88.871094 71.417969 89.140625 C 71.46875 89.355469 71.542969 89.570312 71.605469 89.78125 C 71.605469 89.785156 71.621094 89.785156 71.628906 89.789062 C 71.734375 90.03125 71.957031 90.140625 72.171875 90.253906 C 72.234375 90.375 72.335938 90.433594 72.464844 90.449219 C 72.496094 90.453125 72.527344 90.457031 72.558594 90.460938 C 72.5625 90.445312 72.570312 90.429688 72.574219 90.414062 C 72.652344 90.410156 72.703125 90.398438 72.707031 90.359375 C 72.703125 90.398438 72.652344 90.410156 72.574219 90.414062 C 72.570312 90.429688 72.5625 90.445312 72.558594 90.460938 C 72.558594 90.472656 72.566406 90.480469 72.574219 90.484375 C 72.585938 90.613281 72.574219 90.757812 72.769531 90.75 C 72.828125 90.777344 72.882812 90.804688 72.9375 90.832031 C 72.941406 90.859375 72.949219 90.882812 72.953125 90.90625 C 72.925781 91.398438 73.007812 91.53125 73.425781 91.667969 C 73.414062 91.820312 73.507812 91.859375 73.628906 91.828125 C 73.714844 91.808594 73.792969 91.796875 73.875 91.816406 C 74.085938 92.078125 74.414062 92.3125 74.078125 92.699219 C 73.996094 92.746094 73.925781 92.816406 73.96875 92.902344 C 73.996094 92.964844 74.109375 92.953125 74.160156 92.921875 C 74.320312 92.816406 74.347656 93.003906 74.4375 93.035156 C 74.441406 93.066406 74.445312 93.09375 74.445312 93.125 C 74.355469 93.289062 74.46875 93.304688 74.585938 93.3125 C 74.605469 93.34375 74.625 93.375 74.640625 93.402344 C 74.65625 93.402344 74.667969 93.402344 74.683594 93.40625 C 74.667969 93.402344 74.65625 93.402344 74.640625 93.402344 C 74.640625 93.484375 74.644531 93.5625 74.644531 93.640625 C 74.628906 93.703125 74.613281 93.765625 74.597656 93.832031 C 74.597656 93.859375 74.59375 93.890625 74.589844 93.921875 C 74.515625 93.972656 74.453125 94.023438 74.546875 94.109375 C 74.730469 94.675781 75.367188 95.15625 75.902344 95.132812 C 76.019531 95.203125 76.011719 95.28125 75.933594 95.382812 C 75.59375 95.820312 75.539062 96.378906 75.3125 96.867188 C 75.210938 97.089844 75.246094 97.386719 75.257812 97.648438 C 75.269531 97.800781 75.273438 98.015625 75.527344 98.011719 C 75.558594 98.015625 75.585938 98.015625 75.617188 98.019531 C 75.949219 98.144531 76.214844 98.371094 76.46875 98.613281 C 76.476562 98.621094 76.5 98.621094 76.511719 98.621094 C 76.515625 98.667969 76.519531 98.714844 76.519531 98.761719 C 76.566406 98.765625 76.621094 98.761719 76.664062 98.777344 C 76.625 98.761719 76.566406 98.765625 76.519531 98.761719 C 76.457031 98.898438 76.410156 99.046875 76.292969 99.160156 C 76.214844 99.238281 76.175781 99.351562 76.320312 99.425781 C 76.371094 99.691406 76.570312 99.855469 76.75 100.035156 C 76.839844 100.320312 77.070312 100.472656 77.320312 100.585938 C 77.476562 100.65625 77.480469 100.71875 77.378906 100.84375 C 77.132812 101.128906 77 101.441406 77.164062 101.820312 C 77.179688 101.859375 77.183594 101.921875 77.164062 101.957031 C 77.011719 102.214844 77.171875 102.34375 77.359375 102.480469 C 77.492188 102.570312 77.574219 102.761719 77.53125 102.878906 C 77.425781 103.164062 77.496094 103.449219 77.46875 103.730469 C 77.460938 103.800781 77.488281 103.851562 77.554688 103.832031 C 77.851562 103.753906 77.699219 103.945312 77.679688 104.039062 C 77.664062 104.117188 77.625 104.183594 77.59375 104.257812 C 77.527344 104.261719 77.480469 104.292969 77.449219 104.351562 C 77.351562 104.371094 77.351562 104.441406 77.378906 104.511719 C 77.398438 104.566406 77.453125 104.601562 77.507812 104.578125 C 77.585938 104.546875 77.632812 104.613281 77.691406 104.621094 C 77.886719 104.636719 77.8125 104.882812 77.96875 104.917969 C 77.96875 104.964844 77.96875 105.015625 77.96875 105.0625 C 77.910156 105.121094 77.898438 105.203125 77.972656 105.238281 C 78.171875 105.332031 78.296875 105.484375 78.414062 105.660156 C 78.445312 105.710938 78.503906 105.734375 78.558594 105.765625 C 78.699219 105.84375 78.816406 105.945312 78.835938 106.125 C 78.855469 106.304688 79.082031 106.503906 79.265625 106.515625 C 79.351562 106.519531 79.414062 106.523438 79.445312 106.621094 C 79.46875 106.703125 79.546875 106.707031 79.617188 106.703125 C 79.738281 106.78125 79.828125 106.875 79.804688 107.035156 C 79.75 107.070312 79.761719 107.125 79.761719 107.175781 C 79.703125 107.210938 79.609375 107.257812 79.648438 107.324219 C 79.699219 107.414062 79.789062 107.347656 79.851562 107.3125 C 80.160156 107.140625 80.523438 107.148438 80.703125 107.410156 C 80.992188 107.84375 81.453125 108.042969 81.835938 108.351562 C 81.953125 108.441406 82.042969 108.5625 82.183594 108.625 C 82.511719 108.769531 82.824219 108.933594 83.082031 109.195312 C 83.183594 109.296875 83.320312 109.367188 83.476562 109.378906 C 83.574219 109.46875 83.566406 109.589844 83.558594 109.710938 C 83.484375 109.8125 83.449219 109.933594 83.433594 110.058594 C 83.367188 110.519531 83.339844 110.984375 83.328125 111.449219 C 83.269531 111.519531 83.261719 111.605469 83.246094 111.691406 C 83.179688 112.097656 83.121094 112.507812 83.054688 112.914062 C 82.980469 113.398438 82.898438 113.882812 82.820312 114.367188 C 82.835938 114.492188 82.707031 114.574219 82.726562 114.695312 C 82.65625 114.804688 82.648438 114.925781 82.625 115.050781 C 82.519531 115.617188 82.410156 116.183594 81.824219 116.480469 C 81.78125 116.503906 81.757812 116.566406 81.722656 116.609375 C 81.683594 116.628906 81.640625 116.652344 81.597656 116.671875 C 81.285156 116.78125 80.96875 116.890625 80.65625 117.003906 C 80.425781 117.085938 80.191406 117.167969 79.964844 117.265625 C 79.789062 117.34375 79.78125 117.402344 79.90625 117.503906 C 80.0625 117.546875 80.207031 117.601562 80.339844 117.707031 C 80.695312 117.980469 80.898438 117.960938 81.25 117.679688 C 81.300781 117.644531 81.359375 117.621094 81.414062 117.59375 C 81.46875 117.582031 81.523438 117.578125 81.570312 117.554688 C 81.671875 117.507812 81.777344 117.457031 81.875 117.519531 C 81.992188 117.597656 81.933594 117.726562 81.925781 117.835938 C 81.890625 118.089844 81.933594 118.339844 81.964844 118.589844 C 81.972656 118.679688 82.046875 118.765625 82.128906 118.769531 C 82.417969 118.78125 82.527344 119.019531 82.695312 119.191406 C 82.765625 119.265625 82.839844 119.332031 82.941406 119.359375 C 82.964844 119.40625 82.996094 119.441406 83.054688 119.410156 C 83.257812 119.464844 83.460938 119.421875 83.660156 119.429688 C 83.703125 119.488281 83.75 119.480469 83.800781 119.441406 C 83.90625 119.457031 84.011719 119.5 84.121094 119.46875 C 84.320312 119.445312 84.398438 119.332031 84.324219 119.167969 C 84.292969 119.105469 84.25 119.054688 84.277344 118.980469 C 84.414062 118.980469 84.554688 118.980469 84.695312 118.976562 C 84.71875 118.996094 84.742188 119 84.765625 118.980469 C 84.78125 118.984375 84.800781 118.992188 84.816406 119 C 85.203125 119.023438 85.589844 119.027344 85.972656 118.980469 C 86.140625 118.992188 86.308594 119 86.476562 119.011719 C 86.65625 119.070312 86.839844 119.078125 87.019531 119.015625 C 87.527344 119.050781 88.042969 118.972656 88.539062 119.128906 C 88.707031 119.222656 88.867188 119.191406 89.019531 119.09375 C 89.128906 119.070312 89.207031 118.992188 89.238281 118.898438 C 89.320312 118.660156 89.457031 118.738281 89.605469 118.808594 C 89.703125 118.859375 89.71875 118.976562 89.8125 119.027344 C 89.828125 119.078125 89.832031 119.136719 89.859375 119.179688 C 89.910156 119.265625 89.964844 119.390625 90.074219 119.359375 C 90.179688 119.328125 90.152344 119.195312 90.136719 119.109375 C 90.050781 118.613281 89.796875 118.253906 89.238281 118.226562 C 89.097656 118.21875 88.960938 118.210938 88.820312 118.203125 C 88.78125 118.179688 88.738281 118.175781 88.691406 118.191406 C 88.460938 118.082031 88.214844 118.121094 87.980469 118.148438 C 87.691406 118.1875 87.414062 118.179688 87.128906 118.113281 C 86.683594 118.007812 86.230469 117.984375 85.773438 117.996094 C 85.644531 117.964844 85.53125 117.894531 85.394531 117.894531 C 85.382812 117.839844 85.371094 117.78125 85.304688 117.851562 C 85.257812 117.851562 85.210938 117.847656 85.164062 117.847656 C 85.148438 117.824219 85.132812 117.773438 85.117188 117.773438 C 84.863281 117.757812 84.628906 117.652344 84.378906 117.625 C 84.15625 117.601562 84.078125 117.472656 84.078125 117.28125 C 84.078125 117.070312 84.082031 116.863281 84.109375 116.652344 C 84.136719 116.441406 84.222656 116.226562 84.132812 116.011719 C 84.136719 115.964844 84.144531 115.917969 84.148438 115.875 C 84.265625 115.667969 84.230469 115.429688 84.25 115.214844 C 84.324219 114.445312 84.476562 113.695312 84.605469 112.9375 C 84.667969 112.550781 84.785156 112.167969 84.8125 111.773438 C 84.859375 111.632812 84.90625 111.496094 84.953125 111.355469 C 84.976562 111.351562 84.976562 111.339844 84.976562 111.335938 C 85.09375 111.34375 85.222656 111.414062 85.3125 111.273438 C 85.386719 111.261719 85.460938 111.25 85.535156 111.238281 C 85.597656 111.242188 85.664062 111.25 85.730469 111.257812 C 85.796875 111.335938 85.882812 111.304688 85.964844 111.289062 C 86.058594 111.308594 86.15625 111.316406 86.25 111.285156 C 86.296875 111.285156 86.339844 111.285156 86.386719 111.285156 C 86.386719 111.289062 86.40625 111.296875 86.40625 111.296875 C 86.40625 111.296875 86.429688 111.300781 86.421875 111.296875 C 86.425781 111.296875 86.429688 111.296875 86.429688 111.296875 C 86.496094 111.304688 86.566406 111.328125 86.617188 111.253906 C 86.710938 111.222656 86.804688 111.191406 86.898438 111.15625 C 86.960938 111.167969 86.988281 111.132812 87.003906 111.082031 C 87.164062 111.011719 87.296875 110.90625 87.40625 110.777344 C 87.441406 110.8125 87.398438 110.753906 87.476562 110.734375 C 87.5625 110.714844 87.503906 110.71875 87.566406 110.6875 C 87.609375 110.667969 87.636719 110.648438 87.667969 110.625 C 87.820312 110.59375 87.96875 110.558594 88.117188 110.535156 C 88.25 110.511719 88.363281 110.472656 88.449219 110.351562 C 88.53125 110.242188 88.644531 110.253906 88.761719 110.316406 C 88.898438 110.394531 89.035156 110.394531 89.171875 110.296875 C 89.246094 110.242188 89.34375 110.160156 89.421875 110.191406 C 89.644531 110.28125 89.710938 110.15625 89.765625 109.988281 C 89.976562 109.96875 90.171875 110.164062 90.386719 110.015625 C 90.425781 109.992188 90.464844 110.007812 90.492188 110.039062 C 90.652344 110.226562 90.878906 110.195312 91.089844 110.222656 C 91.132812 110.242188 91.179688 110.261719 91.222656 110.28125 C 91.3125 110.527344 91.488281 110.503906 91.683594 110.421875 C 91.71875 110.589844 91.808594 110.703125 91.980469 110.738281 C 92.011719 110.757812 92.039062 110.777344 92.070312 110.796875 C 92.109375 110.917969 92.21875 110.90625 92.3125 110.921875 C 92.492188 111.042969 92.671875 111.164062 92.851562 111.28125 C 92.914062 111.363281 92.988281 111.433594 93.03125 111.523438 C 93.273438 111.988281 93.640625 112.359375 93.957031 112.765625 C 93.960938 112.859375 94.019531 112.910156 94.09375 112.953125 C 94.144531 113.042969 94.191406 113.132812 94.246094 113.21875 C 94.703125 113.917969 95.203125 114.59375 95.601562 115.335938 C 95.703125 115.523438 95.765625 115.742188 95.949219 115.878906 C 95.957031 115.894531 95.960938 115.90625 95.96875 115.917969 C 96.105469 116.183594 96.210938 116.453125 96.175781 116.761719 C 96.164062 116.855469 96.210938 116.941406 96.289062 117.003906 C 96.296875 117.03125 96.304688 117.058594 96.3125 117.085938 C 96.296875 117.242188 96.203125 117.347656 96.082031 117.417969 C 95.71875 117.625 95.347656 117.816406 94.988281 118.023438 C 94.769531 118.148438 94.558594 118.28125 94.449219 118.519531 C 94.421875 118.582031 94.394531 118.664062 94.46875 118.710938 C 94.527344 118.75 94.585938 118.726562 94.613281 118.652344 C 94.578125 118.605469 94.5625 118.570312 94.558594 118.542969 C 94.5625 118.570312 94.578125 118.605469 94.613281 118.652344 C 94.664062 118.621094 94.734375 118.609375 94.757812 118.542969 C 94.863281 118.578125 94.96875 118.613281 95.074219 118.644531 C 95.375 118.785156 95.640625 118.726562 95.882812 118.457031 C 95.941406 118.445312 95.996094 118.425781 96.027344 118.367188 C 96.027344 118.367188 96.03125 118.363281 96.03125 118.363281 C 96.125 118.367188 96.183594 118.296875 96.25 118.25 C 96.484375 118.082031 96.746094 118.074219 97.015625 118.128906 C 96.9375 118.460938 97 118.5625 97.320312 118.664062 C 97.453125 118.707031 97.5625 118.769531 97.660156 118.886719 C 97.789062 119.046875 97.953125 119.1875 98.183594 119.1875 C 98.210938 119.238281 98.238281 119.242188 98.273438 119.195312 C 98.332031 119.191406 98.394531 119.183594 98.457031 119.179688 C 98.601562 119.199219 98.746094 119.226562 98.886719 119.15625 C 98.996094 119.160156 99.105469 119.160156 99.214844 119.164062 C 99.410156 119.136719 99.488281 119.03125 99.402344 118.894531 C 99.339844 118.800781 99.351562 118.707031 99.34375 118.609375 C 99.914062 118.734375 100.484375 118.644531 101.058594 118.601562 C 101.242188 118.613281 101.425781 118.621094 101.609375 118.628906 C 101.90625 118.707031 102.210938 118.664062 102.511719 118.65625 C 102.867188 118.648438 103.21875 118.660156 103.5625 118.777344 C 103.757812 118.84375 103.96875 118.882812 104.160156 118.746094 C 104.234375 118.726562 104.273438 118.667969 104.3125 118.613281 C 104.476562 118.386719 104.542969 118.386719 104.757812 118.566406 C 104.890625 118.675781 104.945312 118.847656 105.085938 118.945312 C 105.121094 118.996094 105.183594 119.109375 105.207031 118.984375 C 105.230469 118.871094 105.25 118.726562 105.195312 118.605469 C 104.960938 118.089844 104.453125 117.8125 103.867188 117.878906 C 103.835938 117.878906 103.808594 117.878906 103.777344 117.878906 C 103.65625 117.816406 103.527344 117.808594 103.390625 117.800781 C 102.988281 117.777344 102.578125 117.859375 102.175781 117.757812 C 101.917969 117.691406 101.65625 117.664062 101.390625 117.652344 C 101.140625 117.644531 100.882812 117.644531 100.648438 117.574219 C 100.269531 117.460938 99.886719 117.414062 99.496094 117.40625 C 99.410156 117.28125 99.28125 117.339844 99.167969 117.328125 C 99.070312 117.128906 98.984375 116.929688 98.851562 116.75 L 98.847656 116.757812 C 98.847656 116.753906 98.851562 116.75 98.851562 116.75 C 98.835938 116.722656 98.820312 116.695312 98.804688 116.667969 C 98.796875 116.640625 98.789062 116.609375 98.78125 116.582031 C 98.65625 116.257812 98.425781 116.042969 98.109375 115.914062 C 98.074219 115.890625 98.042969 115.871094 98.007812 115.851562 C 97.988281 115.726562 97.882812 115.667969 97.800781 115.589844 C 97.734375 115.5 97.710938 115.375 97.578125 115.347656 C 97.316406 114.902344 97.027344 114.472656 96.707031 114.066406 C 96.609375 113.945312 96.574219 113.761719 96.40625 113.699219 C 96.386719 113.683594 96.371094 113.667969 96.355469 113.652344 C 96.320312 113.59375 96.285156 113.53125 96.25 113.472656 C 96.164062 113.300781 96.082031 113.125 95.929688 113 C 95.914062 112.984375 95.898438 112.96875 95.882812 112.949219 C 95.765625 112.613281 95.550781 112.335938 95.332031 112.0625 C 95.324219 112 95.320312 111.9375 95.3125 111.871094 C 95.3125 111.855469 95.308594 111.835938 95.304688 111.820312 C 95.308594 111.835938 95.3125 111.855469 95.3125 111.871094 C 95.375 111.855469 95.4375 111.851562 95.492188 111.824219 C 95.730469 111.707031 95.980469 111.597656 96.074219 111.3125 C 96.089844 111.296875 96.101562 111.285156 96.117188 111.269531 C 96.132812 111.269531 96.148438 111.265625 96.160156 111.261719 C 96.675781 110.980469 97.128906 110.640625 97.308594 110.042969 C 97.363281 109.871094 97.441406 109.707031 97.488281 109.535156 C 97.527344 109.382812 97.628906 109.320312 97.765625 109.292969 C 97.929688 109.261719 98.0625 109.175781 98.125 109.03125 C 98.25 108.765625 98.359375 108.488281 98.449219 108.207031 C 98.523438 107.984375 98.625 107.753906 98.449219 107.519531 C 98.386719 107.4375 98.433594 107.324219 98.433594 107.222656 C 98.429688 106.960938 98.621094 106.765625 98.652344 106.515625 C 98.953125 106.164062 99.355469 105.953125 99.742188 105.722656 C 100.289062 105.390625 100.859375 105.105469 101.382812 104.734375 C 101.519531 104.632812 101.707031 104.605469 101.84375 104.503906 C 102.101562 104.3125 102.378906 104.171875 102.683594 104.078125 C 103.074219 103.960938 103.421875 103.753906 103.773438 103.554688 C 104.019531 103.464844 104.140625 103.226562 104.339844 103.078125 C 104.972656 102.617188 105.523438 102.070312 105.96875 101.417969 C 106.425781 100.746094 106.792969 100.019531 107.1875 99.308594 C 107.472656 98.789062 107.75 98.265625 108.039062 97.746094 C 108.332031 97.210938 108.640625 96.6875 108.875 96.121094 C 109.058594 95.6875 109.179688 95.234375 109.324219 94.792969 C 109.546875 94.101562 109.910156 93.460938 110.070312 92.746094 C 110.085938 92.699219 110.101562 92.652344 110.117188 92.605469 C 110.355469 92 110.53125 91.375 110.59375 90.726562 C 110.644531 90.691406 110.636719 90.636719 110.636719 90.585938 C 110.585938 90.386719 110.777344 90.222656 110.722656 90.019531 C 110.8125 89.9375 110.765625 89.832031 110.773438 89.738281 C 110.765625 89.453125 110.820312 89.171875 110.867188 88.894531 C 110.851562 88.890625 110.832031 88.890625 110.816406 88.894531 C 110.832031 88.890625 110.851562 88.890625 110.867188 88.894531 C 110.914062 88.707031 110.925781 88.519531 110.910156 88.328125 C 110.90625 88.25 110.945312 88.160156 110.867188 88.09375 C 110.851562 87.953125 110.835938 87.8125 110.820312 87.671875 C 110.8125 87.578125 110.859375 87.472656 110.777344 87.390625 C 110.78125 87.246094 110.761719 87.109375 110.636719 87.011719 C 110.636719 86.980469 110.636719 86.949219 110.632812 86.917969 C 110.714844 86.855469 110.621094 86.796875 110.628906 86.734375 C 110.632812 86.691406 110.625 86.660156 110.585938 86.636719 C 110.585938 86.605469 110.585938 86.574219 110.585938 86.542969 C 110.554688 86.542969 110.523438 86.542969 110.496094 86.542969 C 110.523438 86.542969 110.554688 86.542969 110.585938 86.542969 C 110.574219 86.449219 110.625 86.34375 110.539062 86.261719 C 110.539062 86.230469 110.535156 86.199219 110.535156 86.167969 C 110.539062 86.128906 110.53125 86.09375 110.492188 86.074219 C 110.457031 85.945312 110.425781 85.820312 110.390625 85.695312 C 110.304688 85.480469 110.214844 85.261719 110.125 85.046875 L 110.121094 85.039062 C 110.121094 85.042969 110.125 85.046875 110.125 85.046875 C 110.140625 85.035156 110.152344 85.023438 110.167969 85.007812 C 110.160156 85.003906 110.152344 85.003906 110.144531 85.003906 C 110.152344 85.003906 110.160156 85.003906 110.167969 85.007812 C 110.292969 84.992188 110.394531 84.929688 110.503906 84.875 C 110.789062 84.738281 110.925781 84.472656 111.121094 84.257812 C 111.234375 84.191406 111.335938 84.105469 111.410156 83.992188 C 111.730469 83.523438 111.839844 82.960938 112.054688 82.445312 C 112.085938 82.367188 112.074219 82.277344 112.089844 82.191406 C 112.160156 81.820312 111.972656 81.511719 111.851562 81.183594 C 111.90625 81.183594 111.941406 81.152344 111.957031 81.101562 C 111.984375 81.097656 112.011719 81.09375 112.042969 81.085938 C 112.058594 81.082031 112.074219 81.078125 112.09375 81.078125 C 112.109375 81.082031 112.125 81.085938 112.140625 81.089844 C 112.136719 81.070312 112.132812 81.054688 112.125 81.039062 C 112.132812 81.054688 112.136719 81.070312 112.140625 81.089844 C 112.222656 81.222656 112.378906 81.164062 112.496094 81.203125 C 112.914062 81.34375 113.285156 81.613281 113.742188 81.636719 C 113.789062 81.644531 113.835938 81.652344 113.882812 81.660156 C 113.894531 81.667969 113.910156 81.671875 113.921875 81.671875 C 114.007812 81.71875 114.011719 81.667969 114.007812 81.605469 C 114.011719 81.574219 114.011719 81.542969 114.015625 81.515625 C 113.96875 81.515625 113.925781 81.511719 113.882812 81.511719 Z M 113.882812 81.511719 " fill-opacity="1" fill-rule="nonzero"/></g><g clip-path="url(#06428dcc1e)"><path fill="#ffffff" d="M 13.457031 104.210938 C 13.457031 104.210938 19.785156 105.957031 24.199219 103.222656 L 28.957031 102.453125 C 28.957031 102.453125 30.09375 104.242188 29.683594 105.457031 C 29.277344 106.667969 29.3125 108.816406 30.019531 110.003906 C 30.707031 111.160156 28.710938 115.316406 29.386719 117.351562 C 29.414062 117.433594 29.5 117.480469 29.585938 117.460938 L 29.800781 117.414062 C 29.890625 117.394531 29.976562 117.445312 30.003906 117.53125 L 30.234375 118.304688 C 30.253906 118.367188 30.308594 118.414062 30.371094 118.425781 L 32.039062 118.699219 C 32.378906 118.753906 32.644531 118.414062 32.507812 118.101562 L 31.027344 114.703125 C 31.015625 114.675781 31.011719 114.648438 31.011719 114.617188 L 31.453125 110.238281 C 31.476562 110 31.585938 109.777344 31.757812 109.609375 L 32.257812 109.117188 C 32.4375 108.941406 32.726562 108.957031 32.890625 109.152344 L 32.992188 109.269531 C 33.117188 109.417969 33.195312 109.601562 33.222656 109.792969 L 33.886719 114.808594 C 33.886719 114.828125 33.886719 114.847656 33.882812 114.867188 L 33.550781 116.378906 C 33.523438 116.5 33.632812 116.609375 33.757812 116.582031 C 33.832031 116.566406 33.914062 116.605469 33.949219 116.675781 L 34.503906 117.804688 C 34.527344 117.855469 34.578125 117.890625 34.636719 117.898438 L 36.328125 118.074219 C 36.710938 118.113281 36.980469 117.699219 36.78125 117.363281 L 35.234375 114.753906 C 35.21875 114.726562 35.210938 114.695312 35.210938 114.664062 L 35.167969 110.308594 C 35.164062 109.78125 35.234375 109.25 35.386719 108.742188 L 37.167969 102.644531 C 37.320312 102.132812 37.605469 101.671875 38 101.308594 L 39.691406 99.753906 C 40.3125 99.179688 40.761719 98.441406 40.984375 97.625 L 41.589844 95.402344 C 41.726562 94.886719 41.953125 94.402344 42.253906 93.960938 L 43.824219 91.660156 C 43.988281 91.417969 44.105469 91.152344 44.175781 90.867188 L 45.324219 86.023438 C 45.324219 86.023438 46.121094 81.277344 50.472656 84.027344 C 51.070312 84.402344 51.828125 84.453125 52.460938 84.136719 C 53.324219 83.707031 54.355469 82.910156 54.460938 81.527344 C 54.488281 81.199219 54.351562 80.875 54.097656 80.667969 C 53.34375 80.046875 51.609375 78.523438 51.125 77.191406 C 50.496094 75.480469 49.871094 74.195312 47.566406 73.238281 C 45.257812 72.285156 45.058594 67.964844 39.6875 68.425781 C 39.6875 68.425781 44.761719 71.273438 44.613281 72.597656 C 44.464844 73.917969 40.054688 69.136719 37.0625 70 L 42.164062 73.203125 C 42.164062 73.203125 44.042969 74.5625 41.574219 74.597656 C 41.574219 74.597656 40.820312 74.5 40.164062 75.464844 C 39.65625 76.210938 38.421875 76.230469 37.890625 76.203125 C 37.667969 76.191406 37.453125 76.328125 37.40625 76.546875 C 37.332031 76.859375 37.601562 77.269531 39.445312 77.332031 L 41.316406 77.5 C 41.574219 77.523438 41.734375 77.796875 41.625 78.035156 C 41.164062 79.046875 39.847656 81.433594 37.117188 83.15625 C 37.117188 83.15625 31.019531 83.386719 29.636719 84.210938 C 28.253906 85.035156 23.40625 86.617188 19.617188 84.703125 C 15.828125 82.792969 9.300781 82.761719 6.238281 85.460938 C 3.699219 87.699219 1.816406 83.519531 1.246094 82.015625 C 1.179688 81.839844 0.933594 81.839844 0.867188 82.015625 L 0.78125 82.230469 C 0.738281 82.335938 0.613281 82.390625 0.503906 82.339844 L 0.394531 82.289062 C 0.238281 82.214844 0.0664062 82.359375 0.113281 82.527344 L 0.855469 85.214844 C 0.898438 85.367188 0.757812 85.507812 0.605469 85.46875 C 0.433594 85.421875 0.289062 85.601562 0.371094 85.757812 L 0.863281 86.722656 C 0.886719 86.769531 0.894531 86.824219 0.878906 86.878906 L 0.738281 87.324219 C 0.710938 87.417969 0.753906 87.523438 0.84375 87.566406 L 2.347656 88.3125 C 2.566406 88.421875 2.695312 88.652344 2.671875 88.894531 C 2.523438 90.574219 2.15625 97.121094 5.109375 100.582031 C 5.714844 101.292969 5.980469 102.234375 5.804688 103.148438 C 5.644531 103.972656 5.273438 104.984375 4.453125 105.976562 L 3.359375 107.160156 C 3.164062 107.378906 3.089844 107.675781 3.167969 107.957031 L 4.226562 111.730469 C 4.324219 112.09375 4.390625 112.464844 4.410156 112.839844 L 4.621094 116.367188 C 4.636719 116.628906 4.808594 116.855469 5.058594 116.941406 C 5.324219 117.039062 5.53125 117.261719 5.601562 117.539062 L 5.605469 117.558594 C 5.714844 117.976562 6.078125 118.273438 6.503906 118.300781 L 7.667969 118.367188 C 8.023438 118.386719 8.324219 118.101562 8.316406 117.742188 L 8.3125 117.6875 C 8.308594 117.335938 8.171875 117.003906 7.941406 116.742188 L 7.324219 116.0625 C 7.042969 115.75 6.847656 115.375 6.753906 114.960938 L 5.667969 110.167969 C 5.582031 109.796875 5.671875 109.40625 5.902344 109.105469 L 6.1875 108.730469 C 6.394531 108.460938 6.808594 108.46875 7 108.75 C 7.824219 109.949219 9.617188 112.941406 9.574219 116.265625 C 9.574219 116.480469 9.742188 116.660156 9.957031 116.671875 C 10.101562 116.679688 10.230469 116.757812 10.296875 116.886719 L 11 118.230469 C 11.066406 118.363281 11.207031 118.449219 11.355469 118.449219 L 12.640625 118.453125 C 12.90625 118.457031 13.101562 118.203125 13.035156 117.949219 L 12.714844 116.710938 C 12.699219 116.660156 12.679688 116.613281 12.648438 116.570312 L 10.636719 113.851562 C 10.613281 113.824219 10.59375 113.792969 10.582031 113.757812 C 10.367188 113.199219 8.480469 108.121094 10.230469 106.863281 C 12.089844 105.53125 12.402344 105.960938 13.457031 104.210938 Z M 13.457031 104.210938 " fill-opacity="1" fill-rule="nonzero"/></g></svg>