<svg width="204" height="238" viewBox="0 0 204 238" fill="none" xmlns="http://www.w3.org/2000/svg">
<path d="M102 105.778C115.526 105.778 128.498 100.206 138.062 90.287C147.627 80.3684 153 66.9159 153 52.8889C153 38.8619 147.627 25.4094 138.062 15.4908C128.498 5.5722 115.526 0 102 0C88.474 0 75.5019 5.5722 65.9376 15.4908C56.3732 25.4094 51 38.8619 51 52.8889C51 66.9159 56.3732 80.3684 65.9376 90.287C75.5019 100.206 88.474 105.778 102 105.778ZM102 132.222C82.2036 132.207 62.6766 136.979 44.9702 146.16C27.2637 155.341 11.8659 168.678 0 185.111C11.8659 201.544 27.2637 214.881 44.9702 224.062C62.6766 233.243 82.2036 238.015 102 238C121.796 238.015 141.323 233.243 159.03 224.062C176.736 214.881 192.134 201.544 204 185.111C192.134 168.678 176.736 155.341 159.03 146.16C141.323 136.979 121.796 132.207 102 132.222Z" fill="black"/>
</svg>
